<svg xmlns="http://www.w3.org/2000/svg" width="24" height="24" viewBox="0 0 24 24">
    <g fill="none" fill-rule="evenodd">
        <g fill-rule="nonzero">
            <g>
                <g>
                    <path fill="#333" d="M14.25 16.5c.414 0 .75.336.75.75s-.336.75-.75.75h-4.5c-.414 0-.75-.336-.75-.75s.336-.75.75-.75h4.5zm3-4.5c.414 0 .75.336.75.75s-.336.75-.75.75H6.75c-.414 0-.75-.336-.75-.75s.336-.75.75-.75h10.5zm3-4.5c.414 0 .75.336.75.75s-.336.75-.75.75H3.75C3.336 9 3 8.664 3 8.25s.336-.75.75-.75h16.5z" transform="translate(-946 -239) translate(930 237) translate(16 2)"/>
                </g>
            </g>
        </g>
    </g>
</svg>