<?xml version="1.0" encoding="UTF-8"?>
<svg width="680px" height="99px" viewBox="0 0 680 99" version="1.1" xmlns="http://www.w3.org/2000/svg" xmlns:xlink="http://www.w3.org/1999/xlink">
    <title>Deriv MT5 Synthetics</title>
    <g id="Deriv-MT5-Synthetics" stroke="none" stroke-width="1" fill="none" fill-rule="evenodd">
        <rect id="bottom" fill="#E5E5E5" x="0" y="55" width="680" height="2"></rect>
        <g id="box-4" transform="translate(547.000000, 0.000000)">
            <rect id="leg-2" stroke="#DEDEDE" stroke-width="2" fill="#F2F2F2" x="67" y="41" width="7" height="13"></rect>
            <rect id="leg-1" stroke="#DEDEDE" stroke-width="2" fill="#F2F2F2" x="11" y="41" width="7" height="13"></rect>
            <rect id="back" fill="#2A3052" x="0" y="0" width="85" height="43"></rect>
            <path d="M20.296,28.216 C21.136,28.216 21.847,28.108 22.429,27.892 C23.011,27.676 23.482,27.346 23.842,26.902 C24.202,26.458 24.463,25.9 24.625,25.228 C24.787,24.556 24.868,23.764 24.868,22.852 L24.868,22.852 L24.868,15.436 L23.356,15.436 L23.356,23.212 C23.356,24.412 23.134,25.321 22.69,25.939 C22.246,26.557 21.466,26.866 20.35,26.866 C19.234,26.866 18.454,26.557 18.01,25.939 C17.566,25.321 17.344,24.412 17.344,23.212 L17.344,23.212 L17.344,15.436 L15.832,15.436 L15.832,22.852 C15.832,23.764 15.907,24.556 16.057,25.228 C16.207,25.9 16.456,26.458 16.804,26.902 C17.152,27.346 17.611,27.676 18.181,27.892 C18.751,28.108 19.456,28.216 20.296,28.216 Z M31.654,28.216 C32.326,28.216 32.929,28.126 33.463,27.946 C33.997,27.766 34.45,27.514 34.822,27.19 C35.194,26.866 35.479,26.47 35.677,26.002 C35.875,25.534 35.974,25.012 35.974,24.436 C35.974,23.5 35.698,22.75 35.146,22.186 C34.594,21.622 33.7,21.202 32.464,20.926 L32.464,20.926 L31.438,20.692 C30.646,20.512 30.055,20.269 29.665,19.963 C29.275,19.657 29.08,19.204 29.08,18.604 C29.08,17.92 29.311,17.407 29.773,17.065 C30.235,16.723 30.868,16.552 31.672,16.552 C32.404,16.552 33.016,16.69 33.508,16.966 C34,17.242 34.42,17.62 34.768,18.1 L34.768,18.1 L35.902,17.272 C35.434,16.6 34.861,16.09 34.183,15.742 C33.505,15.394 32.692,15.22 31.744,15.22 C31.132,15.22 30.571,15.295 30.061,15.445 C29.551,15.595 29.113,15.814 28.747,16.102 C28.381,16.39 28.096,16.75 27.892,17.182 C27.688,17.614 27.586,18.106 27.586,18.658 C27.586,19.63 27.889,20.383 28.495,20.917 C29.101,21.451 29.98,21.85 31.132,22.114 L31.132,22.114 L32.158,22.348 C32.986,22.54 33.58,22.798 33.94,23.122 C34.3,23.446 34.48,23.908 34.48,24.508 C34.48,25.228 34.243,25.804 33.769,26.236 C33.295,26.668 32.608,26.884 31.708,26.884 C30.976,26.884 30.34,26.731 29.8,26.425 C29.26,26.119 28.768,25.672 28.324,25.084 L28.324,25.084 L27.208,26.02 C27.712,26.704 28.324,27.241 29.044,27.631 C29.764,28.021 30.634,28.216 31.654,28.216 Z M42.796,28 C43.576,28 44.284,27.868 44.92,27.604 C45.556,27.34 46.099,26.947 46.549,26.425 C46.999,25.903 47.344,25.249 47.584,24.463 C47.824,23.677 47.944,22.762 47.944,21.718 C47.944,20.674 47.824,19.759 47.584,18.973 C47.344,18.187 46.999,17.533 46.549,17.011 C46.099,16.489 45.556,16.096 44.92,15.832 C44.284,15.568 43.576,15.436 42.796,15.436 L42.796,15.436 L38.584,15.436 L38.584,28 L42.796,28 Z M42.796,26.668 L40.096,26.668 L40.096,16.768 L42.796,16.768 C43.312,16.768 43.786,16.855 44.218,17.029 C44.65,17.203 45.022,17.458 45.334,17.794 C45.646,18.13 45.889,18.541 46.063,19.027 C46.237,19.513 46.324,20.068 46.324,20.692 L46.324,20.692 L46.324,22.744 C46.324,23.368 46.237,23.923 46.063,24.409 C45.889,24.895 45.646,25.306 45.334,25.642 C45.022,25.978 44.65,26.233 44.218,26.407 C43.786,26.581 43.312,26.668 42.796,26.668 L42.796,26.668 Z M62.83,28 L62.83,26.668 L56.224,26.668 L59.608,23.626 C60.004,23.266 60.373,22.906 60.715,22.546 C61.057,22.186 61.348,21.817 61.588,21.439 C61.828,21.061 62.017,20.662 62.155,20.242 C62.293,19.822 62.362,19.366 62.362,18.874 C62.362,18.334 62.275,17.842 62.101,17.398 C61.927,16.954 61.678,16.57 61.354,16.246 C61.03,15.922 60.628,15.67 60.148,15.49 C59.668,15.31 59.122,15.22 58.51,15.22 C57.898,15.22 57.367,15.304 56.917,15.472 C56.467,15.64 56.083,15.862 55.765,16.138 C55.447,16.414 55.183,16.729 54.973,17.083 C54.763,17.437 54.598,17.8 54.478,18.172 L54.478,18.172 L55.828,18.694 C55.912,18.394 56.023,18.115 56.161,17.857 C56.299,17.599 56.473,17.374 56.683,17.182 C56.893,16.99 57.142,16.84 57.43,16.732 C57.718,16.624 58.054,16.57 58.438,16.57 C59.218,16.57 59.8,16.786 60.184,17.218 C60.568,17.65 60.76,18.214 60.76,18.91 L60.76,18.91 L60.76,19.126 C60.76,19.738 60.562,20.347 60.166,20.953 C59.77,21.559 59.278,22.132 58.69,22.672 L58.69,22.672 L54.586,26.452 L54.586,28 L62.83,28 Z M69.346,28.216 C70.006,28.216 70.597,28.114 71.119,27.91 C71.641,27.706 72.085,27.421 72.451,27.055 C72.817,26.689 73.096,26.251 73.288,25.741 C73.48,25.231 73.576,24.67 73.576,24.058 C73.576,23.446 73.483,22.9 73.297,22.42 C73.111,21.94 72.85,21.535 72.514,21.205 C72.178,20.875 71.782,20.62 71.326,20.44 C70.87,20.26 70.372,20.17 69.832,20.17 C69.172,20.17 68.653,20.296 68.275,20.548 C67.897,20.8 67.558,21.136 67.258,21.556 L67.258,21.556 L67.132,21.556 L67.492,16.768 L73,16.768 L73,15.436 L66.268,15.436 L65.818,22.348 L67.096,22.528 C67.36,22.24 67.657,21.991 67.987,21.781 C68.317,21.571 68.77,21.466 69.346,21.466 C70.21,21.466 70.864,21.694 71.308,22.15 C71.752,22.606 71.974,23.248 71.974,24.076 L71.974,24.076 L71.974,24.256 C71.974,25.084 71.752,25.726 71.308,26.182 C70.864,26.638 70.21,26.866 69.346,26.866 C68.962,26.866 68.632,26.827 68.356,26.749 C68.08,26.671 67.837,26.56 67.627,26.416 C67.417,26.272 67.225,26.098 67.051,25.894 C66.877,25.69 66.712,25.462 66.556,25.21 L66.556,25.21 L65.422,26.074 C65.614,26.35 65.827,26.614 66.061,26.866 C66.295,27.118 66.568,27.346 66.88,27.55 C67.192,27.754 67.549,27.916 67.951,28.036 C68.353,28.156 68.818,28.216 69.346,28.216 Z" id="USD25" fill="#FFFFFF" fill-rule="nonzero"></path>
        </g>
        <g id="note" transform="translate(554.000000, 33.000000)">
            <path d="M3.9685,63.156 C4.73116667,63.156 5.38116667,62.9718333 5.9185,62.6035 C6.45583333,62.2351667 6.8675,61.7303333 7.1535,61.089 L7.1535,61.089 L6.2825,60.543 C6.1005,61.037 5.8145,61.4335 5.4245,61.7325 C5.0345,62.0315 4.54916667,62.181 3.9685,62.181 C3.17983333,62.181 2.56883333,61.9166667 2.1355,61.388 C1.70216667,60.8593333 1.4855,60.127 1.4855,59.191 L1.4855,59.191 L1.4855,57.839 C1.4855,57.371 1.54183333,56.9485 1.6545,56.5715 C1.76716667,56.1945 1.92966667,55.8695 2.142,55.5965 C2.35433333,55.3235 2.61433333,55.1133333 2.922,54.966 C3.22966667,54.8186667 3.5785,54.745 3.9685,54.745 C4.53183333,54.745 4.99983333,54.8858333 5.3725,55.1675 C5.74516667,55.4491667 6.0225,55.824 6.2045,56.292 L6.2045,56.292 L7.0885,55.759 C6.8025,55.1263333 6.40166667,54.6366667 5.886,54.29 C5.37033333,53.9433333 4.73116667,53.77 3.9685,53.77 C2.81583333,53.77 1.91883333,54.1795 1.2775,54.9985 C0.636166667,55.8175 0.3155,56.9896667 0.3155,58.515 C0.3155,60.0403333 0.636166667,61.1951667 1.2775,61.9795 C1.91883333,62.7638333 2.81583333,63.156 3.9685,63.156 Z M11.2745,63.156 C11.7251667,63.156 12.1346667,63.0736667 12.503,62.909 C12.8713333,62.7443333 13.1898333,62.5081667 13.4585,62.2005 C13.7271667,61.8928333 13.9351667,61.5245 14.0825,61.0955 C14.2298333,60.6665 14.3035,60.1833333 14.3035,59.646 C14.3035,59.1173333 14.2298333,58.6363333 14.0825,58.203 C13.9351667,57.7696667 13.7271667,57.3991667 13.4585,57.0915 C13.1898333,56.7838333 12.8713333,56.5476667 12.503,56.383 C12.1346667,56.2183333 11.7251667,56.136 11.2745,56.136 C10.8238333,56.136 10.4121667,56.2183333 10.0395,56.383 C9.66683333,56.5476667 9.34833333,56.7838333 9.084,57.0915 C8.81966667,57.3991667 8.61383333,57.7696667 8.4665,58.203 C8.31916667,58.6363333 8.2455,59.1173333 8.2455,59.646 C8.2455,60.1833333 8.31916667,60.6665 8.4665,61.0955 C8.61383333,61.5245 8.81966667,61.8928333 9.084,62.2005 C9.34833333,62.5081667 9.66683333,62.7443333 10.0395,62.909 C10.4121667,63.0736667 10.8238333,63.156 11.2745,63.156 Z M11.2745,62.233 C10.7111667,62.233 10.2518333,62.0596667 9.8965,61.713 C9.54116667,61.3663333 9.3635,60.8376667 9.3635,60.127 L9.3635,60.127 L9.3635,59.165 C9.3635,58.4543333 9.54116667,57.9256667 9.8965,57.579 C10.2518333,57.2323333 10.7111667,57.059 11.2745,57.059 C11.8378333,57.059 12.2971667,57.2323333 12.6525,57.579 C13.0078333,57.9256667 13.1855,58.4543333 13.1855,59.165 L13.1855,59.165 L13.1855,60.127 C13.1855,60.8376667 13.0078333,61.3663333 12.6525,61.713 C12.2971667,62.0596667 11.8378333,62.233 11.2745,62.233 Z M17.0595,63 L17.0595,58.346 C17.0595,58.1293333 17.105,57.9408333 17.196,57.7805 C17.287,57.6201667 17.4061667,57.488 17.5535,57.384 C17.7008333,57.28 17.8698333,57.202 18.0605,57.15 C18.2511667,57.098 18.4505,57.072 18.6585,57.072 C19.1525,57.072 19.5165,57.2236667 19.7505,57.527 C19.9845,57.8303333 20.1015,58.281 20.1015,58.879 L20.1015,58.879 L20.1015,63 L21.1415,63 L21.1415,58.346 C21.1415,58.1293333 21.1848333,57.9408333 21.2715,57.7805 C21.3581667,57.6201667 21.4751667,57.488 21.6225,57.384 C21.7698333,57.28 21.9366667,57.202 22.123,57.15 C22.3093333,57.098 22.5065,57.072 22.7145,57.072 C23.2258333,57.072 23.5985,57.2236667 23.8325,57.527 C24.0665,57.8303333 24.1835,58.281 24.1835,58.879 L24.1835,58.879 L24.1835,63 L25.2235,63 L25.2235,58.697 C25.2235,57.8823333 25.0306667,57.2518333 24.645,56.8055 C24.2593333,56.3591667 23.7241667,56.136 23.0395,56.136 C22.4675,56.136 22.0146667,56.2725 21.681,56.5455 C21.3473333,56.8185 21.1198333,57.137 20.9985,57.501 L20.9985,57.501 L20.9725,57.501 C20.7905,57.0156667 20.5131667,56.6668333 20.1405,56.4545 C19.7678333,56.2421667 19.3605,56.136 18.9185,56.136 C18.6585,56.136 18.4331667,56.1685 18.2425,56.2335 C18.0518333,56.2985 17.885,56.3873333 17.742,56.5 C17.599,56.6126667 17.4776667,56.7448333 17.378,56.8965 C17.2783333,57.0481667 17.1895,57.2106667 17.1115,57.384 L17.1115,57.384 L17.0595,57.384 L17.0595,56.292 L16.0195,56.292 L16.0195,63 L17.0595,63 Z M28.4085,63 L28.4085,58.346 C28.4085,58.1293333 28.454,57.9408333 28.545,57.7805 C28.636,57.6201667 28.7551667,57.488 28.9025,57.384 C29.0498333,57.28 29.2188333,57.202 29.4095,57.15 C29.6001667,57.098 29.7995,57.072 30.0075,57.072 C30.5015,57.072 30.8655,57.2236667 31.0995,57.527 C31.3335,57.8303333 31.4505,58.281 31.4505,58.879 L31.4505,58.879 L31.4505,63 L32.4905,63 L32.4905,58.346 C32.4905,58.1293333 32.5338333,57.9408333 32.6205,57.7805 C32.7071667,57.6201667 32.8241667,57.488 32.9715,57.384 C33.1188333,57.28 33.2856667,57.202 33.472,57.15 C33.6583333,57.098 33.8555,57.072 34.0635,57.072 C34.5748333,57.072 34.9475,57.2236667 35.1815,57.527 C35.4155,57.8303333 35.5325,58.281 35.5325,58.879 L35.5325,58.879 L35.5325,63 L36.5725,63 L36.5725,58.697 C36.5725,57.8823333 36.3796667,57.2518333 35.994,56.8055 C35.6083333,56.3591667 35.0731667,56.136 34.3885,56.136 C33.8165,56.136 33.3636667,56.2725 33.03,56.5455 C32.6963333,56.8185 32.4688333,57.137 32.3475,57.501 L32.3475,57.501 L32.3215,57.501 C32.1395,57.0156667 31.8621667,56.6668333 31.4895,56.4545 C31.1168333,56.2421667 30.7095,56.136 30.2675,56.136 C30.0075,56.136 29.7821667,56.1685 29.5915,56.2335 C29.4008333,56.2985 29.234,56.3873333 29.091,56.5 C28.948,56.6126667 28.8266667,56.7448333 28.727,56.8965 C28.6273333,57.0481667 28.5385,57.2106667 28.4605,57.384 L28.4605,57.384 L28.4085,57.384 L28.4085,56.292 L27.3685,56.292 L27.3685,63 L28.4085,63 Z M39.2375,54.719 C39.4628333,54.719 39.6253333,54.6648333 39.725,54.5565 C39.8246667,54.4481667 39.8745,54.3073333 39.8745,54.134 L39.8745,54.134 L39.8745,53.965 C39.8745,53.7916667 39.8246667,53.6508333 39.725,53.5425 C39.6253333,53.4341667 39.4628333,53.38 39.2375,53.38 C39.0121667,53.38 38.8496667,53.4341667 38.75,53.5425 C38.6503333,53.6508333 38.6005,53.7916667 38.6005,53.965 L38.6005,53.965 L38.6005,54.134 C38.6005,54.3073333 38.6503333,54.4481667 38.75,54.5565 C38.8496667,54.6648333 39.0121667,54.719 39.2375,54.719 Z M39.7575,63 L39.7575,56.292 L38.7175,56.292 L38.7175,63 L39.7575,63 Z M43.9825,63.156 C44.7538333,63.156 45.3605,62.9696667 45.8025,62.597 C46.2445,62.2243333 46.4655,61.713 46.4655,61.063 C46.4655,60.5516667 46.3095,60.1378333 45.9975,59.8215 C45.6855,59.5051667 45.1568333,59.2906667 44.4115,59.178 L44.4115,59.178 L43.8915,59.1 C43.4755,59.0306667 43.157,58.9223333 42.936,58.775 C42.715,58.6276667 42.6045,58.3893333 42.6045,58.06 C42.6045,57.7393333 42.715,57.4858333 42.936,57.2995 C43.157,57.1131667 43.4841667,57.02 43.9175,57.02 C44.3508333,57.02 44.7105,57.1045 44.9965,57.2735 C45.2825,57.4425 45.4991667,57.631 45.6465,57.839 L45.6465,57.839 L46.3355,57.215 C46.0581667,56.877 45.7353333,56.6126667 45.367,56.422 C44.9986667,56.2313333 44.5415,56.136 43.9955,56.136 C43.6575,56.136 43.3411667,56.1771667 43.0465,56.2595 C42.7518333,56.3418333 42.4983333,56.4653333 42.286,56.63 C42.0736667,56.7946667 41.9068333,57.0005 41.7855,57.2475 C41.6641667,57.4945 41.6035,57.7826667 41.6035,58.112 C41.6035,58.424 41.6576667,58.6926667 41.766,58.918 C41.8743333,59.1433333 42.026,59.3318333 42.221,59.4835 C42.416,59.6351667 42.6435,59.7565 42.9035,59.8475 C43.1635,59.9385 43.4495,60.0056667 43.7615,60.049 L43.7615,60.049 L44.2945,60.127 C44.7365,60.1963333 45.042,60.3241667 45.211,60.5105 C45.38,60.6968333 45.4645,60.92 45.4645,61.18 C45.4645,61.5266667 45.341,61.7953333 45.094,61.986 C44.847,62.1766667 44.5025,62.272 44.0605,62.272 C43.6358333,62.272 43.2631667,62.1831667 42.9425,62.0055 C42.6218333,61.8278333 42.3315,61.5743333 42.0715,61.245 L42.0715,61.245 L41.3305,61.843 C41.6338333,62.2416667 41.9956667,62.5601667 42.416,62.7985 C42.8363333,63.0368333 43.3585,63.156 43.9825,63.156 Z M50.3135,63.156 C51.0848333,63.156 51.6915,62.9696667 52.1335,62.597 C52.5755,62.2243333 52.7965,61.713 52.7965,61.063 C52.7965,60.5516667 52.6405,60.1378333 52.3285,59.8215 C52.0165,59.5051667 51.4878333,59.2906667 50.7425,59.178 L50.7425,59.178 L50.2225,59.1 C49.8065,59.0306667 49.488,58.9223333 49.267,58.775 C49.046,58.6276667 48.9355,58.3893333 48.9355,58.06 C48.9355,57.7393333 49.046,57.4858333 49.267,57.2995 C49.488,57.1131667 49.8151667,57.02 50.2485,57.02 C50.6818333,57.02 51.0415,57.1045 51.3275,57.2735 C51.6135,57.4425 51.8301667,57.631 51.9775,57.839 L51.9775,57.839 L52.6665,57.215 C52.3891667,56.877 52.0663333,56.6126667 51.698,56.422 C51.3296667,56.2313333 50.8725,56.136 50.3265,56.136 C49.9885,56.136 49.6721667,56.1771667 49.3775,56.2595 C49.0828333,56.3418333 48.8293333,56.4653333 48.617,56.63 C48.4046667,56.7946667 48.2378333,57.0005 48.1165,57.2475 C47.9951667,57.4945 47.9345,57.7826667 47.9345,58.112 C47.9345,58.424 47.9886667,58.6926667 48.097,58.918 C48.2053333,59.1433333 48.357,59.3318333 48.552,59.4835 C48.747,59.6351667 48.9745,59.7565 49.2345,59.8475 C49.4945,59.9385 49.7805,60.0056667 50.0925,60.049 L50.0925,60.049 L50.6255,60.127 C51.0675,60.1963333 51.373,60.3241667 51.542,60.5105 C51.711,60.6968333 51.7955,60.92 51.7955,61.18 C51.7955,61.5266667 51.672,61.7953333 51.425,61.986 C51.178,62.1766667 50.8335,62.272 50.3915,62.272 C49.9668333,62.272 49.5941667,62.1831667 49.2735,62.0055 C48.9528333,61.8278333 48.6625,61.5743333 48.4025,61.245 L48.4025,61.245 L47.6615,61.843 C47.9648333,62.2416667 48.3266667,62.5601667 48.747,62.7985 C49.1673333,63.0368333 49.6895,63.156 50.3135,63.156 Z M55.1495,54.719 C55.3748333,54.719 55.5373333,54.6648333 55.637,54.5565 C55.7366667,54.4481667 55.7865,54.3073333 55.7865,54.134 L55.7865,54.134 L55.7865,53.965 C55.7865,53.7916667 55.7366667,53.6508333 55.637,53.5425 C55.5373333,53.4341667 55.3748333,53.38 55.1495,53.38 C54.9241667,53.38 54.7616667,53.4341667 54.662,53.5425 C54.5623333,53.6508333 54.5125,53.7916667 54.5125,53.965 L54.5125,53.965 L54.5125,54.134 C54.5125,54.3073333 54.5623333,54.4481667 54.662,54.5565 C54.7616667,54.6648333 54.9241667,54.719 55.1495,54.719 Z M55.6695,63 L55.6695,56.292 L54.6295,56.292 L54.6295,63 L55.6695,63 Z M60.4145,63.156 C60.8651667,63.156 61.2746667,63.0736667 61.643,62.909 C62.0113333,62.7443333 62.3298333,62.5081667 62.5985,62.2005 C62.8671667,61.8928333 63.0751667,61.5245 63.2225,61.0955 C63.3698333,60.6665 63.4435,60.1833333 63.4435,59.646 C63.4435,59.1173333 63.3698333,58.6363333 63.2225,58.203 C63.0751667,57.7696667 62.8671667,57.3991667 62.5985,57.0915 C62.3298333,56.7838333 62.0113333,56.5476667 61.643,56.383 C61.2746667,56.2183333 60.8651667,56.136 60.4145,56.136 C59.9638333,56.136 59.5521667,56.2183333 59.1795,56.383 C58.8068333,56.5476667 58.4883333,56.7838333 58.224,57.0915 C57.9596667,57.3991667 57.7538333,57.7696667 57.6065,58.203 C57.4591667,58.6363333 57.3855,59.1173333 57.3855,59.646 C57.3855,60.1833333 57.4591667,60.6665 57.6065,61.0955 C57.7538333,61.5245 57.9596667,61.8928333 58.224,62.2005 C58.4883333,62.5081667 58.8068333,62.7443333 59.1795,62.909 C59.5521667,63.0736667 59.9638333,63.156 60.4145,63.156 Z M60.4145,62.233 C59.8511667,62.233 59.3918333,62.0596667 59.0365,61.713 C58.6811667,61.3663333 58.5035,60.8376667 58.5035,60.127 L58.5035,60.127 L58.5035,59.165 C58.5035,58.4543333 58.6811667,57.9256667 59.0365,57.579 C59.3918333,57.2323333 59.8511667,57.059 60.4145,57.059 C60.9778333,57.059 61.4371667,57.2323333 61.7925,57.579 C62.1478333,57.9256667 62.3255,58.4543333 62.3255,59.165 L62.3255,59.165 L62.3255,60.127 C62.3255,60.8376667 62.1478333,61.3663333 61.7925,61.713 C61.4371667,62.0596667 60.9778333,62.233 60.4145,62.233 Z M66.1995,63 L66.1995,58.346 C66.1995,58.1293333 66.245,57.9408333 66.336,57.7805 C66.427,57.6201667 66.5505,57.488 66.7065,57.384 C66.8625,57.28 67.038,57.202 67.233,57.15 C67.428,57.098 67.6295,57.072 67.8375,57.072 C68.8515,57.072 69.3585,57.6743333 69.3585,58.879 L69.3585,58.879 L69.3585,63 L70.3985,63 L70.3985,58.697 C70.3985,57.8823333 70.197,57.2518333 69.794,56.8055 C69.391,56.3591667 68.8428333,56.136 68.1495,56.136 C67.6468333,56.136 67.246,56.2486667 66.947,56.474 C66.648,56.6993333 66.4161667,57.0026667 66.2515,57.384 L66.2515,57.384 L66.1995,57.384 L66.1995,56.292 L65.1595,56.292 L65.1595,63 L66.1995,63 Z" id="Commission" fill="#2A3052" fill-rule="nonzero"></path>
            <path d="M35.5,0 C36.8807119,0 38,1.11928813 38,2.5 C38,3.70932545 37.1413382,4.71809967 36.0004345,4.94990271 L36,50 L35,50 L35.000574,4.9501074 C33.8591679,4.7186941 33,3.70968176 33,2.5 C33,1.11928813 34.1192881,0 35.5,0 Z" id="Combined-Shape" fill="#E98024"></path>
        </g>
        <path d="M534.792,21.312 L534.792,18.48 L523.608,18.48 L523.608,21.312 L534.792,21.312 Z M534.792,26.88 L534.792,24.048 L523.608,24.048 L523.608,26.88 L534.792,26.88 Z" id="=" fill="#E98024" fill-rule="nonzero"></path>
        <g id="box-3" transform="translate(383.000000, 0.000000)">
            <rect id="leg-2" stroke="#DEDEDE" stroke-width="2" fill="#F2F2F2" x="101" y="41" width="7" height="13"></rect>
            <rect id="leg-1" stroke="#DEDEDE" stroke-width="2" fill="#F2F2F2" x="21" y="41" width="7" height="13"></rect>
            <rect id="back" stroke="#DEDEDE" stroke-width="2" fill="#F2F2F2" x="1" y="1" width="127" height="41"></rect>
            <path d="M16.048,28.216 C16.888,28.216 17.599,28.108 18.181,27.892 C18.763,27.676 19.234,27.346 19.594,26.902 C19.954,26.458 20.215,25.9 20.377,25.228 C20.539,24.556 20.62,23.764 20.62,22.852 L20.62,22.852 L20.62,15.436 L19.108,15.436 L19.108,23.212 C19.108,24.412 18.886,25.321 18.442,25.939 C17.998,26.557 17.218,26.866 16.102,26.866 C14.986,26.866 14.206,26.557 13.762,25.939 C13.318,25.321 13.096,24.412 13.096,23.212 L13.096,23.212 L13.096,15.436 L11.584,15.436 L11.584,22.852 C11.584,23.764 11.659,24.556 11.809,25.228 C11.959,25.9 12.208,26.458 12.556,26.902 C12.904,27.346 13.363,27.676 13.933,27.892 C14.503,28.108 15.208,28.216 16.048,28.216 Z M27.406,28.216 C28.078,28.216 28.681,28.126 29.215,27.946 C29.749,27.766 30.202,27.514 30.574,27.19 C30.946,26.866 31.231,26.47 31.429,26.002 C31.627,25.534 31.726,25.012 31.726,24.436 C31.726,23.5 31.45,22.75 30.898,22.186 C30.346,21.622 29.452,21.202 28.216,20.926 L28.216,20.926 L27.19,20.692 C26.398,20.512 25.807,20.269 25.417,19.963 C25.027,19.657 24.832,19.204 24.832,18.604 C24.832,17.92 25.063,17.407 25.525,17.065 C25.987,16.723 26.62,16.552 27.424,16.552 C28.156,16.552 28.768,16.69 29.26,16.966 C29.752,17.242 30.172,17.62 30.52,18.1 L30.52,18.1 L31.654,17.272 C31.186,16.6 30.613,16.09 29.935,15.742 C29.257,15.394 28.444,15.22 27.496,15.22 C26.884,15.22 26.323,15.295 25.813,15.445 C25.303,15.595 24.865,15.814 24.499,16.102 C24.133,16.39 23.848,16.75 23.644,17.182 C23.44,17.614 23.338,18.106 23.338,18.658 C23.338,19.63 23.641,20.383 24.247,20.917 C24.853,21.451 25.732,21.85 26.884,22.114 L26.884,22.114 L27.91,22.348 C28.738,22.54 29.332,22.798 29.692,23.122 C30.052,23.446 30.232,23.908 30.232,24.508 C30.232,25.228 29.995,25.804 29.521,26.236 C29.047,26.668 28.36,26.884 27.46,26.884 C26.728,26.884 26.092,26.731 25.552,26.425 C25.012,26.119 24.52,25.672 24.076,25.084 L24.076,25.084 L22.96,26.02 C23.464,26.704 24.076,27.241 24.796,27.631 C25.516,28.021 26.386,28.216 27.406,28.216 Z M38.548,28 C39.328,28 40.036,27.868 40.672,27.604 C41.308,27.34 41.851,26.947 42.301,26.425 C42.751,25.903 43.096,25.249 43.336,24.463 C43.576,23.677 43.696,22.762 43.696,21.718 C43.696,20.674 43.576,19.759 43.336,18.973 C43.096,18.187 42.751,17.533 42.301,17.011 C41.851,16.489 41.308,16.096 40.672,15.832 C40.036,15.568 39.328,15.436 38.548,15.436 L38.548,15.436 L34.336,15.436 L34.336,28 L38.548,28 Z M38.548,26.668 L35.848,26.668 L35.848,16.768 L38.548,16.768 C39.064,16.768 39.538,16.855 39.97,17.029 C40.402,17.203 40.774,17.458 41.086,17.794 C41.398,18.13 41.641,18.541 41.815,19.027 C41.989,19.513 42.076,20.068 42.076,20.692 L42.076,20.692 L42.076,22.744 C42.076,23.368 41.989,23.923 41.815,24.409 C41.641,24.895 41.398,25.306 41.086,25.642 C40.774,25.978 40.402,26.233 39.97,26.407 C39.538,26.581 39.064,26.668 38.548,26.668 L38.548,26.668 Z M54.298,28.216 C54.958,28.216 55.549,28.114 56.071,27.91 C56.593,27.706 57.037,27.421 57.403,27.055 C57.769,26.689 58.048,26.251 58.24,25.741 C58.432,25.231 58.528,24.67 58.528,24.058 C58.528,23.446 58.435,22.9 58.249,22.42 C58.063,21.94 57.802,21.535 57.466,21.205 C57.13,20.875 56.734,20.62 56.278,20.44 C55.822,20.26 55.324,20.17 54.784,20.17 C54.124,20.17 53.605,20.296 53.227,20.548 C52.849,20.8 52.51,21.136 52.21,21.556 L52.21,21.556 L52.084,21.556 L52.444,16.768 L57.952,16.768 L57.952,15.436 L51.22,15.436 L50.77,22.348 L52.048,22.528 C52.312,22.24 52.609,21.991 52.939,21.781 C53.269,21.571 53.722,21.466 54.298,21.466 C55.162,21.466 55.816,21.694 56.26,22.15 C56.704,22.606 56.926,23.248 56.926,24.076 L56.926,24.076 L56.926,24.256 C56.926,25.084 56.704,25.726 56.26,26.182 C55.816,26.638 55.162,26.866 54.298,26.866 C53.914,26.866 53.584,26.827 53.308,26.749 C53.032,26.671 52.789,26.56 52.579,26.416 C52.369,26.272 52.177,26.098 52.003,25.894 C51.829,25.69 51.664,25.462 51.508,25.21 L51.508,25.21 L50.374,26.074 C50.566,26.35 50.779,26.614 51.013,26.866 C51.247,27.118 51.52,27.346 51.832,27.55 C52.144,27.754 52.501,27.916 52.903,28.036 C53.305,28.156 53.77,28.216 54.298,28.216 Z M65.188,28.216 C66.688,28.216 67.783,27.646 68.473,26.506 C69.163,25.366 69.508,23.77 69.508,21.718 C69.508,19.666 69.163,18.07 68.473,16.93 C67.783,15.79 66.688,15.22 65.188,15.22 C63.688,15.22 62.593,15.79 61.903,16.93 C61.213,18.07 60.868,19.666 60.868,21.718 C60.868,23.77 61.213,25.366 61.903,26.506 C62.593,27.646 63.688,28.216 65.188,28.216 Z M65.188,26.902 C64.696,26.902 64.276,26.8 63.928,26.596 C63.58,26.392 63.298,26.104 63.082,25.732 C62.866,25.36 62.707,24.922 62.605,24.418 C62.503,23.914 62.452,23.356 62.452,22.744 L62.452,22.744 L62.452,20.692 C62.452,20.08 62.503,19.522 62.605,19.018 C62.707,18.514 62.866,18.076 63.082,17.704 C63.298,17.332 63.58,17.044 63.928,16.84 C64.276,16.636 64.696,16.534 65.188,16.534 C65.68,16.534 66.1,16.636 66.448,16.84 C66.796,17.044 67.078,17.332 67.294,17.704 C67.51,18.076 67.669,18.514 67.771,19.018 C67.873,19.522 67.924,20.08 67.924,20.692 L67.924,20.692 L67.924,22.744 C67.924,23.356 67.873,23.914 67.771,24.418 C67.669,24.922 67.51,25.36 67.294,25.732 C67.078,26.104 66.796,26.392 66.448,26.596 C66.1,26.8 65.68,26.902 65.188,26.902 Z M75.988,28.216 C77.488,28.216 78.583,27.646 79.273,26.506 C79.963,25.366 80.308,23.77 80.308,21.718 C80.308,19.666 79.963,18.07 79.273,16.93 C78.583,15.79 77.488,15.22 75.988,15.22 C74.488,15.22 73.393,15.79 72.703,16.93 C72.013,18.07 71.668,19.666 71.668,21.718 C71.668,23.77 72.013,25.366 72.703,26.506 C73.393,27.646 74.488,28.216 75.988,28.216 Z M75.988,26.902 C75.496,26.902 75.076,26.8 74.728,26.596 C74.38,26.392 74.098,26.104 73.882,25.732 C73.666,25.36 73.507,24.922 73.405,24.418 C73.303,23.914 73.252,23.356 73.252,22.744 L73.252,22.744 L73.252,20.692 C73.252,20.08 73.303,19.522 73.405,19.018 C73.507,18.514 73.666,18.076 73.882,17.704 C74.098,17.332 74.38,17.044 74.728,16.84 C75.076,16.636 75.496,16.534 75.988,16.534 C76.48,16.534 76.9,16.636 77.248,16.84 C77.596,17.044 77.878,17.332 78.094,17.704 C78.31,18.076 78.469,18.514 78.571,19.018 C78.673,19.522 78.724,20.08 78.724,20.692 L78.724,20.692 L78.724,22.744 C78.724,23.356 78.673,23.914 78.571,24.418 C78.469,24.922 78.31,25.36 78.094,25.732 C77.878,26.104 77.596,26.392 77.248,26.596 C76.9,26.8 76.48,26.902 75.988,26.902 Z M83.296,30.394 C83.812,29.95 84.214,29.431 84.502,28.837 C84.79,28.243 84.934,27.7 84.934,27.208 L84.934,27.208 L84.934,26.956 C84.934,26.644 84.847,26.389 84.673,26.191 C84.499,25.993 84.22,25.894 83.836,25.894 C83.452,25.894 83.173,25.993 82.999,26.191 C82.825,26.389 82.738,26.644 82.738,26.956 L82.738,26.956 L82.738,27.208 C82.738,27.448 82.795,27.652 82.909,27.82 C83.023,27.988 83.2,28.102 83.44,28.162 C83.344,28.582 83.185,28.963 82.963,29.305 C82.741,29.647 82.45,30.01 82.09,30.394 L82.09,30.394 L83.296,30.394 Z M91.684,28.216 C93.184,28.216 94.279,27.646 94.969,26.506 C95.659,25.366 96.004,23.77 96.004,21.718 C96.004,19.666 95.659,18.07 94.969,16.93 C94.279,15.79 93.184,15.22 91.684,15.22 C90.184,15.22 89.089,15.79 88.399,16.93 C87.709,18.07 87.364,19.666 87.364,21.718 C87.364,23.77 87.709,25.366 88.399,26.506 C89.089,27.646 90.184,28.216 91.684,28.216 Z M91.684,26.902 C91.192,26.902 90.772,26.8 90.424,26.596 C90.076,26.392 89.794,26.104 89.578,25.732 C89.362,25.36 89.203,24.922 89.101,24.418 C88.999,23.914 88.948,23.356 88.948,22.744 L88.948,22.744 L88.948,20.692 C88.948,20.08 88.999,19.522 89.101,19.018 C89.203,18.514 89.362,18.076 89.578,17.704 C89.794,17.332 90.076,17.044 90.424,16.84 C90.772,16.636 91.192,16.534 91.684,16.534 C92.176,16.534 92.596,16.636 92.944,16.84 C93.292,17.044 93.574,17.332 93.79,17.704 C94.006,18.076 94.165,18.514 94.267,19.018 C94.369,19.522 94.42,20.08 94.42,20.692 L94.42,20.692 L94.42,22.744 C94.42,23.356 94.369,23.914 94.267,24.418 C94.165,24.922 94.006,25.36 93.79,25.732 C93.574,26.104 93.292,26.392 92.944,26.596 C92.596,26.8 92.176,26.902 91.684,26.902 Z M102.484,28.216 C103.984,28.216 105.079,27.646 105.769,26.506 C106.459,25.366 106.804,23.77 106.804,21.718 C106.804,19.666 106.459,18.07 105.769,16.93 C105.079,15.79 103.984,15.22 102.484,15.22 C100.984,15.22 99.889,15.79 99.199,16.93 C98.509,18.07 98.164,19.666 98.164,21.718 C98.164,23.77 98.509,25.366 99.199,26.506 C99.889,27.646 100.984,28.216 102.484,28.216 Z M102.484,26.902 C101.992,26.902 101.572,26.8 101.224,26.596 C100.876,26.392 100.594,26.104 100.378,25.732 C100.162,25.36 100.003,24.922 99.901,24.418 C99.799,23.914 99.748,23.356 99.748,22.744 L99.748,22.744 L99.748,20.692 C99.748,20.08 99.799,19.522 99.901,19.018 C100.003,18.514 100.162,18.076 100.378,17.704 C100.594,17.332 100.876,17.044 101.224,16.84 C101.572,16.636 101.992,16.534 102.484,16.534 C102.976,16.534 103.396,16.636 103.744,16.84 C104.092,17.044 104.374,17.332 104.59,17.704 C104.806,18.076 104.965,18.514 105.067,19.018 C105.169,19.522 105.22,20.08 105.22,20.692 L105.22,20.692 L105.22,22.744 C105.22,23.356 105.169,23.914 105.067,24.418 C104.965,24.922 104.806,25.36 104.59,25.732 C104.374,26.104 104.092,26.392 103.744,26.596 C103.396,26.8 102.976,26.902 102.484,26.902 Z M113.284,28.216 C114.784,28.216 115.879,27.646 116.569,26.506 C117.259,25.366 117.604,23.77 117.604,21.718 C117.604,19.666 117.259,18.07 116.569,16.93 C115.879,15.79 114.784,15.22 113.284,15.22 C111.784,15.22 110.689,15.79 109.999,16.93 C109.309,18.07 108.964,19.666 108.964,21.718 C108.964,23.77 109.309,25.366 109.999,26.506 C110.689,27.646 111.784,28.216 113.284,28.216 Z M113.284,26.902 C112.792,26.902 112.372,26.8 112.024,26.596 C111.676,26.392 111.394,26.104 111.178,25.732 C110.962,25.36 110.803,24.922 110.701,24.418 C110.599,23.914 110.548,23.356 110.548,22.744 L110.548,22.744 L110.548,20.692 C110.548,20.08 110.599,19.522 110.701,19.018 C110.803,18.514 110.962,18.076 111.178,17.704 C111.394,17.332 111.676,17.044 112.024,16.84 C112.372,16.636 112.792,16.534 113.284,16.534 C113.776,16.534 114.196,16.636 114.544,16.84 C114.892,17.044 115.174,17.332 115.39,17.704 C115.606,18.076 115.765,18.514 115.867,19.018 C115.969,19.522 116.02,20.08 116.02,20.692 L116.02,20.692 L116.02,22.744 C116.02,23.356 115.969,23.914 115.867,24.418 C115.765,24.922 115.606,25.36 115.39,25.732 C115.174,26.104 114.892,26.392 114.544,26.596 C114.196,26.8 113.776,26.902 113.284,26.902 Z" id="USD500,000" fill="#2A3052" fill-rule="nonzero"></path>
        </g>
        <g id="note" transform="translate(418.000000, 33.000000)">
            <path d="M3.6365,63.156 C4.12183333,63.156 4.55733333,63.091 4.943,62.961 C5.32866667,62.831 5.65583333,62.649 5.9245,62.415 C6.19316667,62.181 6.399,61.895 6.542,61.557 C6.685,61.219 6.7565,60.842 6.7565,60.426 C6.7565,59.75 6.55716667,59.2083333 6.1585,58.801 C5.75983333,58.3936667 5.11416667,58.0903333 4.2215,57.891 L4.2215,57.891 L3.4805,57.722 C2.9085,57.592 2.48166667,57.4165 2.2,57.1955 C1.91833333,56.9745 1.7775,56.6473333 1.7775,56.214 C1.7775,55.72 1.94433333,55.3495 2.278,55.1025 C2.61166667,54.8555 3.06883333,54.732 3.6495,54.732 C4.17816667,54.732 4.62016667,54.8316667 4.9755,55.031 C5.33083333,55.2303333 5.63416667,55.5033333 5.8855,55.85 L5.8855,55.85 L6.7045,55.252 C6.3665,54.7666667 5.95266667,54.3983333 5.463,54.147 C4.97333333,53.8956667 4.38616667,53.77 3.7015,53.77 C3.2595,53.77 2.85433333,53.8241667 2.486,53.9325 C2.11766667,54.0408333 1.80133333,54.199 1.537,54.407 C1.27266667,54.615 1.06683333,54.875 0.9195,55.187 C0.772166667,55.499 0.6985,55.8543333 0.6985,56.253 C0.6985,56.955 0.917333333,57.4988333 1.355,57.8845 C1.79266667,58.2701667 2.4275,58.5583333 3.2595,58.749 L3.2595,58.749 L4.0005,58.918 C4.5985,59.0566667 5.0275,59.243 5.2875,59.477 C5.5475,59.711 5.6775,60.0446667 5.6775,60.478 C5.6775,60.998 5.50633333,61.414 5.164,61.726 C4.82166667,62.038 4.3255,62.194 3.6755,62.194 C3.14683333,62.194 2.6875,62.0835 2.2975,61.8625 C1.9075,61.6415 1.55216667,61.3186667 1.2315,60.894 L1.2315,60.894 L0.4255,61.57 C0.7895,62.064 1.2315,62.4518333 1.7515,62.7335 C2.2715,63.0151667 2.89983333,63.156 3.6365,63.156 Z M9.5775,65.6 L9.5775,61.908 L9.6295,61.908 C10.0281667,62.74 10.6825,63.156 11.5925,63.156 C12.0085,63.156 12.3855,63.0736667 12.7235,62.909 C13.0615,62.7443333 13.3496667,62.5103333 13.588,62.207 C13.8263333,61.9036667 14.0083333,61.5353333 14.134,61.102 C14.2596667,60.6686667 14.3225,60.1833333 14.3225,59.646 C14.3225,59.1086667 14.2596667,58.6233333 14.134,58.19 C14.0083333,57.7566667 13.8263333,57.3883333 13.588,57.085 C13.3496667,56.7816667 13.0615,56.5476667 12.7235,56.383 C12.3855,56.2183333 12.0085,56.136 11.5925,56.136 C11.1245,56.136 10.7236667,56.2378333 10.39,56.4415 C10.0563333,56.6451667 9.80283333,56.9593333 9.6295,57.384 L9.6295,57.384 L9.5775,57.384 L9.5775,56.292 L8.5375,56.292 L8.5375,65.6 L9.5775,65.6 Z M11.3065,62.22 C11.0725,62.22 10.8493333,62.1896667 10.637,62.129 C10.4246667,62.0683333 10.2405,61.9795 10.0845,61.8625 C9.9285,61.7455 9.805,61.6025 9.714,61.4335 C9.623,61.2645 9.5775,61.0716667 9.5775,60.855 L9.5775,60.855 L9.5775,58.359 C9.5775,58.177 9.623,58.0058333 9.714,57.8455 C9.805,57.6851667 9.9285,57.5486667 10.0845,57.436 C10.2405,57.3233333 10.4246667,57.2345 10.637,57.1695 C10.8493333,57.1045 11.0725,57.072 11.3065,57.072 C11.8958333,57.072 12.3595,57.2561667 12.6975,57.6245 C13.0355,57.9928333 13.2045,58.476 13.2045,59.074 L13.2045,59.074 L13.2045,60.218 C13.2045,60.816 13.0355,61.2991667 12.6975,61.6675 C12.3595,62.0358333 11.8958333,62.22 11.3065,62.22 Z M18.6125,63.156 C19.0631667,63.156 19.4726667,63.0736667 19.841,62.909 C20.2093333,62.7443333 20.5278333,62.5081667 20.7965,62.2005 C21.0651667,61.8928333 21.2731667,61.5245 21.4205,61.0955 C21.5678333,60.6665 21.6415,60.1833333 21.6415,59.646 C21.6415,59.1173333 21.5678333,58.6363333 21.4205,58.203 C21.2731667,57.7696667 21.0651667,57.3991667 20.7965,57.0915 C20.5278333,56.7838333 20.2093333,56.5476667 19.841,56.383 C19.4726667,56.2183333 19.0631667,56.136 18.6125,56.136 C18.1618333,56.136 17.7501667,56.2183333 17.3775,56.383 C17.0048333,56.5476667 16.6863333,56.7838333 16.422,57.0915 C16.1576667,57.3991667 15.9518333,57.7696667 15.8045,58.203 C15.6571667,58.6363333 15.5835,59.1173333 15.5835,59.646 C15.5835,60.1833333 15.6571667,60.6665 15.8045,61.0955 C15.9518333,61.5245 16.1576667,61.8928333 16.422,62.2005 C16.6863333,62.5081667 17.0048333,62.7443333 17.3775,62.909 C17.7501667,63.0736667 18.1618333,63.156 18.6125,63.156 Z M18.6125,62.233 C18.0491667,62.233 17.5898333,62.0596667 17.2345,61.713 C16.8791667,61.3663333 16.7015,60.8376667 16.7015,60.127 L16.7015,60.127 L16.7015,59.165 C16.7015,58.4543333 16.8791667,57.9256667 17.2345,57.579 C17.5898333,57.2323333 18.0491667,57.059 18.6125,57.059 C19.1758333,57.059 19.6351667,57.2323333 19.9905,57.579 C20.3458333,57.9256667 20.5235,58.4543333 20.5235,59.165 L20.5235,59.165 L20.5235,60.127 C20.5235,60.8376667 20.3458333,61.3663333 19.9905,61.713 C19.6351667,62.0596667 19.1758333,62.233 18.6125,62.233 Z M26.1395,63 L26.1395,62.09 L24.7745,62.09 L24.7745,57.202 L26.2435,57.202 L26.2435,56.292 L24.7745,56.292 L24.7745,54.433 L23.8385,54.433 L23.8385,55.681 C23.8385,55.9063333 23.7973333,56.0645 23.715,56.1555 C23.6326667,56.2465 23.4788333,56.292 23.2535,56.292 L23.2535,56.292 L22.6295,56.292 L22.6295,57.202 L23.7345,57.202 L23.7345,61.895 C23.7345,62.2243333 23.8276667,62.4908333 24.014,62.6945 C24.2003333,62.8981667 24.4755,63 24.8395,63 L24.8395,63 L26.1395,63 Z M32.0285,65.6 L32.0285,61.908 L32.0805,61.908 C32.4791667,62.74 33.1335,63.156 34.0435,63.156 C34.4595,63.156 34.8365,63.0736667 35.1745,62.909 C35.5125,62.7443333 35.8006667,62.5103333 36.039,62.207 C36.2773333,61.9036667 36.4593333,61.5353333 36.585,61.102 C36.7106667,60.6686667 36.7735,60.1833333 36.7735,59.646 C36.7735,59.1086667 36.7106667,58.6233333 36.585,58.19 C36.4593333,57.7566667 36.2773333,57.3883333 36.039,57.085 C35.8006667,56.7816667 35.5125,56.5476667 35.1745,56.383 C34.8365,56.2183333 34.4595,56.136 34.0435,56.136 C33.5755,56.136 33.1746667,56.2378333 32.841,56.4415 C32.5073333,56.6451667 32.2538333,56.9593333 32.0805,57.384 L32.0805,57.384 L32.0285,57.384 L32.0285,56.292 L30.9885,56.292 L30.9885,65.6 L32.0285,65.6 Z M33.7575,62.22 C33.5235,62.22 33.3003333,62.1896667 33.088,62.129 C32.8756667,62.0683333 32.6915,61.9795 32.5355,61.8625 C32.3795,61.7455 32.256,61.6025 32.165,61.4335 C32.074,61.2645 32.0285,61.0716667 32.0285,60.855 L32.0285,60.855 L32.0285,58.359 C32.0285,58.177 32.074,58.0058333 32.165,57.8455 C32.256,57.6851667 32.3795,57.5486667 32.5355,57.436 C32.6915,57.3233333 32.8756667,57.2345 33.088,57.1695 C33.3003333,57.1045 33.5235,57.072 33.7575,57.072 C34.3468333,57.072 34.8105,57.2561667 35.1485,57.6245 C35.4865,57.9928333 35.6555,58.476 35.6555,59.074 L35.6555,59.074 L35.6555,60.218 C35.6555,60.816 35.4865,61.2991667 35.1485,61.6675 C34.8105,62.0358333 34.3468333,62.22 33.7575,62.22 Z M39.5685,63 L39.5685,58.45 C39.5685,58.1293333 39.7266667,57.8628333 40.043,57.6505 C40.3593333,57.4381667 40.7991667,57.332 41.3625,57.332 L41.3625,57.332 L41.9735,57.332 L41.9735,56.292 L41.5705,56.292 C41.0245,56.292 40.5955,56.4176667 40.2835,56.669 C39.9715,56.9203333 39.7548333,57.2063333 39.6335,57.527 L39.6335,57.527 L39.5685,57.527 L39.5685,56.292 L38.5285,56.292 L38.5285,63 L39.5685,63 Z M43.8195,54.719 C44.0448333,54.719 44.2073333,54.6648333 44.307,54.5565 C44.4066667,54.4481667 44.4565,54.3073333 44.4565,54.134 L44.4565,54.134 L44.4565,53.965 C44.4565,53.7916667 44.4066667,53.6508333 44.307,53.5425 C44.2073333,53.4341667 44.0448333,53.38 43.8195,53.38 C43.5941667,53.38 43.4316667,53.4341667 43.332,53.5425 C43.2323333,53.6508333 43.1825,53.7916667 43.1825,53.965 L43.1825,53.965 L43.1825,54.134 C43.1825,54.3073333 43.2323333,54.4481667 43.332,54.5565 C43.4316667,54.6648333 43.5941667,54.719 43.8195,54.719 Z M44.3395,63 L44.3395,56.292 L43.2995,56.292 L43.2995,63 L44.3395,63 Z M49.0455,63.156 C49.6868333,63.156 50.222,63.013 50.651,62.727 C51.08,62.441 51.4028333,62.0553333 51.6195,61.57 L51.6195,61.57 L50.8655,61.063 C50.4928333,61.843 49.8861667,62.233 49.0455,62.233 C48.4301667,62.233 47.9643333,62.0445 47.648,61.6675 C47.3316667,61.2905 47.1735,60.8073333 47.1735,60.218 L47.1735,60.218 L47.1735,59.074 C47.1735,58.7793333 47.2125,58.5085 47.2905,58.2615 C47.3685,58.0145 47.4855,57.8021667 47.6415,57.6245 C47.7975,57.4468333 47.9925,57.3081667 48.2265,57.2085 C48.4605,57.1088333 48.7335,57.059 49.0455,57.059 C49.4615,57.059 49.8081667,57.1543333 50.0855,57.345 C50.3628333,57.5356667 50.5621667,57.8043333 50.6835,58.151 L50.6835,58.151 L51.5545,57.709 C51.3551667,57.241 51.054,56.8618333 50.651,56.5715 C50.248,56.2811667 49.7128333,56.136 49.0455,56.136 C48.5775,56.136 48.1571667,56.2183333 47.7845,56.383 C47.4118333,56.5476667 47.0976667,56.7816667 46.842,57.085 C46.5863333,57.3883333 46.3913333,57.7566667 46.257,58.19 C46.1226667,58.6233333 46.0555,59.1086667 46.0555,59.646 C46.0555,60.1833333 46.1226667,60.6686667 46.257,61.102 C46.3913333,61.5353333 46.5863333,61.9036667 46.842,62.207 C47.0976667,62.5103333 47.4118333,62.7443333 47.7845,62.909 C48.1571667,63.0736667 48.5775,63.156 49.0455,63.156 Z M55.6105,63.156 C56.2431667,63.156 56.7891667,63.0151667 57.2485,62.7335 C57.7078333,62.4518333 58.0458333,62.0813333 58.2625,61.622 L58.2625,61.622 L57.5215,61.089 C57.3481667,61.4616667 57.1033333,61.7476667 56.787,61.947 C56.4706667,62.1463333 56.1001667,62.246 55.6755,62.246 C55.3635,62.246 55.084,62.194 54.837,62.09 C54.59,61.986 54.382,61.843 54.213,61.661 C54.044,61.479 53.914,61.2645 53.823,61.0175 C53.732,60.7705 53.6865,60.504 53.6865,60.218 L53.6865,60.218 L53.6865,59.906 L58.5095,59.906 L58.5095,59.412 C58.5095,58.9353333 58.4423333,58.4976667 58.308,58.099 C58.1736667,57.7003333 57.9808333,57.3558333 57.7295,57.0655 C57.4781667,56.7751667 57.1748333,56.5476667 56.8195,56.383 C56.4641667,56.2183333 56.0611667,56.136 55.6105,56.136 C55.1511667,56.136 54.7373333,56.2183333 54.369,56.383 C54.0006667,56.5476667 53.6843333,56.7838333 53.42,57.0915 C53.1556667,57.3991667 52.952,57.7696667 52.809,58.203 C52.666,58.6363333 52.5945,59.1173333 52.5945,59.646 C52.5945,60.1833333 52.666,60.6665 52.809,61.0955 C52.952,61.5245 53.1556667,61.8928333 53.42,62.2005 C53.6843333,62.5081667 54.0006667,62.7443333 54.369,62.909 C54.7373333,63.0736667 55.1511667,63.156 55.6105,63.156 Z M57.3915,59.126 L53.6865,59.126 L53.6865,59.035 C53.6865,58.7403333 53.7341667,58.4695 53.8295,58.2225 C53.9248333,57.9755 54.057,57.761 54.226,57.579 C54.395,57.397 54.5965,57.2561667 54.8305,57.1565 C55.0645,57.0568333 55.3245,57.007 55.6105,57.007 C56.1478333,57.007 56.579,57.1868333 56.904,57.5465 C57.229,57.9061667 57.3915,58.385 57.3915,58.983 L57.3915,58.983 L57.3915,59.126 Z" id="Spotprice" fill="#2A3052" fill-rule="nonzero"></path>
            <path d="M29.5,0 C30.8807119,0 32,1.11928813 32,2.5 C32,3.70932545 31.1413382,4.71809967 30.0004345,4.94990271 L30,50 L29,50 L29.000574,4.9501074 C27.8591679,4.7186941 27,3.70968176 27,2.5 C27,1.11928813 28.1192881,0 29.5,0 Z" id="Combined-Shape" fill="#E98024"></path>
        </g>
        <polygon id="x" fill="#E98024" fill-rule="nonzero" points="363.128 30 365.456 25.896 365.552 25.896 367.976 30 372.008 30 367.808 23.712 371.984 17.4 368.24 17.4 365.96 21.36 365.864 21.36 363.512 17.4 359.48 17.4 363.584 23.592 359.432 30"></polygon>
        <g id="box-2" transform="translate(292.000000, 0.000000)">
            <rect id="leg-2" stroke="#DEDEDE" stroke-width="2" fill="#F2F2F2" x="39" y="41" width="7" height="13"></rect>
            <rect id="leg-1" stroke="#DEDEDE" stroke-width="2" fill="#F2F2F2" x="11" y="41" width="7" height="13"></rect>
            <rect id="back" stroke="#DEDEDE" stroke-width="2" fill="#F2F2F2" x="1" y="1" width="55" height="41"></rect>
            <path d="M19.846,28 L19.846,26.668 L16.606,26.668 L16.606,15.436 L14.248,15.436 L10.918,18.55 L11.8,19.504 L14.968,16.552 L15.094,16.552 L15.094,26.668 L11.584,26.668 L11.584,28 L19.846,28 Z M29.386,28 L29.386,26.74 L28.018,26.74 L28.018,14.68 L26.578,14.68 L26.578,26.506 C26.578,26.938 26.707,27.295 26.965,27.577 C27.223,27.859 27.604,28 28.108,28 L28.108,28 L29.386,28 Z M34.984,28.216 C35.608,28.216 36.175,28.102 36.685,27.874 C37.195,27.646 37.636,27.319 38.008,26.893 C38.38,26.467 38.668,25.957 38.872,25.363 C39.076,24.769 39.178,24.1 39.178,23.356 C39.178,22.624 39.076,21.958 38.872,21.358 C38.668,20.758 38.38,20.245 38.008,19.819 C37.636,19.393 37.195,19.066 36.685,18.838 C36.175,18.61 35.608,18.496 34.984,18.496 C34.36,18.496 33.79,18.61 33.274,18.838 C32.758,19.066 32.317,19.393 31.951,19.819 C31.585,20.245 31.3,20.758 31.096,21.358 C30.892,21.958 30.79,22.624 30.79,23.356 C30.79,24.1 30.892,24.769 31.096,25.363 C31.3,25.957 31.585,26.467 31.951,26.893 C32.317,27.319 32.758,27.646 33.274,27.874 C33.79,28.102 34.36,28.216 34.984,28.216 Z M34.984,26.938 C34.204,26.938 33.568,26.698 33.076,26.218 C32.584,25.738 32.338,25.006 32.338,24.022 L32.338,24.022 L32.338,22.69 C32.338,21.706 32.584,20.974 33.076,20.494 C33.568,20.014 34.204,19.774 34.984,19.774 C35.764,19.774 36.4,20.014 36.892,20.494 C37.384,20.974 37.63,21.706 37.63,22.69 L37.63,22.69 L37.63,24.022 C37.63,25.006 37.384,25.738 36.892,26.218 C36.4,26.698 35.764,26.938 34.984,26.938 Z M45.406,28 L45.406,26.74 L43.516,26.74 L43.516,19.972 L45.55,19.972 L45.55,18.712 L43.516,18.712 L43.516,16.138 L42.22,16.138 L42.22,17.866 C42.22,18.178 42.163,18.397 42.049,18.523 C41.935,18.649 41.722,18.712 41.41,18.712 L41.41,18.712 L40.546,18.712 L40.546,19.972 L42.076,19.972 L42.076,26.47 C42.076,26.926 42.205,27.295 42.463,27.577 C42.721,27.859 43.102,28 43.606,28 L43.606,28 L45.406,28 Z" id="1lot" fill="#2A3052" fill-rule="nonzero"></path>
        </g>
        <g id="note" transform="translate(298.000000, 33.000000)">
            <path d="M4.8005,63 L7.8555,53.926 L6.7245,53.926 L5.2165,58.502 L4.1895,61.908 L4.1245,61.908 L3.1235,58.502 L1.6285,53.926 L0.4585,53.926 L3.4745,63 L4.8005,63 Z M11.7555,63.156 C12.2061667,63.156 12.6156667,63.0736667 12.984,62.909 C13.3523333,62.7443333 13.6708333,62.5081667 13.9395,62.2005 C14.2081667,61.8928333 14.4161667,61.5245 14.5635,61.0955 C14.7108333,60.6665 14.7845,60.1833333 14.7845,59.646 C14.7845,59.1173333 14.7108333,58.6363333 14.5635,58.203 C14.4161667,57.7696667 14.2081667,57.3991667 13.9395,57.0915 C13.6708333,56.7838333 13.3523333,56.5476667 12.984,56.383 C12.6156667,56.2183333 12.2061667,56.136 11.7555,56.136 C11.3048333,56.136 10.8931667,56.2183333 10.5205,56.383 C10.1478333,56.5476667 9.82933333,56.7838333 9.565,57.0915 C9.30066667,57.3991667 9.09483333,57.7696667 8.9475,58.203 C8.80016667,58.6363333 8.7265,59.1173333 8.7265,59.646 C8.7265,60.1833333 8.80016667,60.6665 8.9475,61.0955 C9.09483333,61.5245 9.30066667,61.8928333 9.565,62.2005 C9.82933333,62.5081667 10.1478333,62.7443333 10.5205,62.909 C10.8931667,63.0736667 11.3048333,63.156 11.7555,63.156 Z M11.7555,62.233 C11.1921667,62.233 10.7328333,62.0596667 10.3775,61.713 C10.0221667,61.3663333 9.8445,60.8376667 9.8445,60.127 L9.8445,60.127 L9.8445,59.165 C9.8445,58.4543333 10.0221667,57.9256667 10.3775,57.579 C10.7328333,57.2323333 11.1921667,57.059 11.7555,57.059 C12.3188333,57.059 12.7781667,57.2323333 13.1335,57.579 C13.4888333,57.9256667 13.6665,58.4543333 13.6665,59.165 L13.6665,59.165 L13.6665,60.127 C13.6665,60.8376667 13.4888333,61.3663333 13.1335,61.713 C12.7781667,62.0596667 12.3188333,62.233 11.7555,62.233 Z M18.5285,63 L18.5285,62.09 L17.5405,62.09 L17.5405,53.38 L16.5005,53.38 L16.5005,61.921 C16.5005,62.233 16.5936667,62.4908333 16.78,62.6945 C16.9663333,62.8981667 17.2415,63 17.6055,63 L17.6055,63 L18.5285,63 Z M22.2335,63.156 C22.5108333,63.156 22.7535,63.1213333 22.9615,63.052 C23.1695,62.9826667 23.3471667,62.8895 23.4945,62.7725 C23.6418333,62.6555 23.7653333,62.5211667 23.865,62.3695 C23.9646667,62.2178333 24.0491667,62.064 24.1185,61.908 L24.1185,61.908 L24.1705,61.908 L24.1705,63 L25.2105,63 L25.2105,56.292 L24.1705,56.292 L24.1705,60.933 C24.1705,61.1583333 24.125,61.3511667 24.034,61.5115 C23.943,61.6718333 23.8216667,61.804 23.67,61.908 C23.5183333,62.012 23.345,62.09 23.15,62.142 C22.955,62.194 22.7535,62.22 22.5455,62.22 C21.5228333,62.22 21.0115,61.6176667 21.0115,60.413 L21.0115,60.413 L21.0115,56.292 L19.9715,56.292 L19.9715,60.595 C19.9715,61.4096667 20.1751667,62.0401667 20.5825,62.4865 C20.9898333,62.9328333 21.5401667,63.156 22.2335,63.156 Z M28.4605,63 L28.4605,58.346 C28.4605,58.1293333 28.506,57.9408333 28.597,57.7805 C28.688,57.6201667 28.8071667,57.488 28.9545,57.384 C29.1018333,57.28 29.2708333,57.202 29.4615,57.15 C29.6521667,57.098 29.8515,57.072 30.0595,57.072 C30.5535,57.072 30.9175,57.2236667 31.1515,57.527 C31.3855,57.8303333 31.5025,58.281 31.5025,58.879 L31.5025,58.879 L31.5025,63 L32.5425,63 L32.5425,58.346 C32.5425,58.1293333 32.5858333,57.9408333 32.6725,57.7805 C32.7591667,57.6201667 32.8761667,57.488 33.0235,57.384 C33.1708333,57.28 33.3376667,57.202 33.524,57.15 C33.7103333,57.098 33.9075,57.072 34.1155,57.072 C34.6268333,57.072 34.9995,57.2236667 35.2335,57.527 C35.4675,57.8303333 35.5845,58.281 35.5845,58.879 L35.5845,58.879 L35.5845,63 L36.6245,63 L36.6245,58.697 C36.6245,57.8823333 36.4316667,57.2518333 36.046,56.8055 C35.6603333,56.3591667 35.1251667,56.136 34.4405,56.136 C33.8685,56.136 33.4156667,56.2725 33.082,56.5455 C32.7483333,56.8185 32.5208333,57.137 32.3995,57.501 L32.3995,57.501 L32.3735,57.501 C32.1915,57.0156667 31.9141667,56.6668333 31.5415,56.4545 C31.1688333,56.2421667 30.7615,56.136 30.3195,56.136 C30.0595,56.136 29.8341667,56.1685 29.6435,56.2335 C29.4528333,56.2985 29.286,56.3873333 29.143,56.5 C29,56.6126667 28.8786667,56.7448333 28.779,56.8965 C28.6793333,57.0481667 28.5905,57.2106667 28.5125,57.384 L28.5125,57.384 L28.4605,57.384 L28.4605,56.292 L27.4205,56.292 L27.4205,63 L28.4605,63 Z M41.2915,63.156 C41.9241667,63.156 42.4701667,63.0151667 42.9295,62.7335 C43.3888333,62.4518333 43.7268333,62.0813333 43.9435,61.622 L43.9435,61.622 L43.2025,61.089 C43.0291667,61.4616667 42.7843333,61.7476667 42.468,61.947 C42.1516667,62.1463333 41.7811667,62.246 41.3565,62.246 C41.0445,62.246 40.765,62.194 40.518,62.09 C40.271,61.986 40.063,61.843 39.894,61.661 C39.725,61.479 39.595,61.2645 39.504,61.0175 C39.413,60.7705 39.3675,60.504 39.3675,60.218 L39.3675,60.218 L39.3675,59.906 L44.1905,59.906 L44.1905,59.412 C44.1905,58.9353333 44.1233333,58.4976667 43.989,58.099 C43.8546667,57.7003333 43.6618333,57.3558333 43.4105,57.0655 C43.1591667,56.7751667 42.8558333,56.5476667 42.5005,56.383 C42.1451667,56.2183333 41.7421667,56.136 41.2915,56.136 C40.8321667,56.136 40.4183333,56.2183333 40.05,56.383 C39.6816667,56.5476667 39.3653333,56.7838333 39.101,57.0915 C38.8366667,57.3991667 38.633,57.7696667 38.49,58.203 C38.347,58.6363333 38.2755,59.1173333 38.2755,59.646 C38.2755,60.1833333 38.347,60.6665 38.49,61.0955 C38.633,61.5245 38.8366667,61.8928333 39.101,62.2005 C39.3653333,62.5081667 39.6816667,62.7443333 40.05,62.909 C40.4183333,63.0736667 40.8321667,63.156 41.2915,63.156 Z M43.0725,59.126 L39.3675,59.126 L39.3675,59.035 C39.3675,58.7403333 39.4151667,58.4695 39.5105,58.2225 C39.6058333,57.9755 39.738,57.761 39.907,57.579 C40.076,57.397 40.2775,57.2561667 40.5115,57.1565 C40.7455,57.0568333 41.0055,57.007 41.2915,57.007 C41.8288333,57.007 42.26,57.1868333 42.585,57.5465 C42.91,57.9061667 43.0725,58.385 43.0725,58.983 L43.0725,58.983 L43.0725,59.126 Z" id="Volume" fill="#2A3052" fill-rule="nonzero"></path>
            <path d="M22.5,0 C23.8807119,0 25,1.11928813 25,2.5 C25,3.70932545 24.1413382,4.71809967 23.0004345,4.94990271 L23,50 L22,50 L22.000574,4.9501074 C20.8591679,4.7186941 20,3.70968176 20,2.5 C20,1.11928813 21.1192881,0 22.5,0 Z" id="Combined-Shape" fill="#E98024"></path>
        </g>
        <polygon id="x" fill="#E98024" fill-rule="nonzero" points="272.128 30 274.456 25.896 274.552 25.896 276.976 30 281.008 30 276.808 23.712 280.984 17.4 277.24 17.4 274.96 21.36 274.864 21.36 272.512 17.4 268.48 17.4 272.584 23.592 268.432 30"></polygon>
        <g id="box-1" transform="translate(48.000000, 0.000000)">
            <rect id="leg-2" stroke="#DEDEDE" stroke-width="2" fill="#F2F2F2" x="172" y="41" width="7" height="13"></rect>
            <rect id="leg-1" stroke="#DEDEDE" stroke-width="2" fill="#F2F2F2" x="31" y="41" width="7" height="13"></rect>
            <rect id="back" stroke="#DEDEDE" stroke-width="2" fill="#F2F2F2" x="1" y="1" width="208" height="41"></rect>
            <path d="M16.12,30.466 C15.628,30.034 15.181,29.53 14.779,28.954 C14.377,28.378 14.032,27.766 13.744,27.118 C13.456,26.47 13.234,25.81 13.078,25.138 C12.922,24.466 12.844,23.812 12.844,23.176 L12.844,23.176 L12.844,21.628 C12.844,21.004 12.922,20.356 13.078,19.684 C13.234,19.012 13.453,18.352 13.735,17.704 C14.017,17.056 14.359,16.444 14.761,15.868 C15.163,15.292 15.616,14.776 16.12,14.32 L16.12,14.32 L14.752,14.32 C14.296,14.716 13.87,15.196 13.474,15.76 C13.078,16.324 12.733,16.951 12.439,17.641 C12.145,18.331 11.914,19.078 11.746,19.882 C11.578,20.686 11.494,21.52 11.494,22.384 C11.494,23.26 11.581,24.103 11.755,24.913 C11.929,25.723 12.163,26.476 12.457,27.172 C12.751,27.868 13.096,28.498 13.492,29.062 C13.888,29.626 14.308,30.094 14.752,30.466 L14.752,30.466 L16.12,30.466 Z M22.078,28.216 C22.918,28.216 23.629,28.108 24.211,27.892 C24.793,27.676 25.264,27.346 25.624,26.902 C25.984,26.458 26.245,25.9 26.407,25.228 C26.569,24.556 26.65,23.764 26.65,22.852 L26.65,22.852 L26.65,15.436 L25.138,15.436 L25.138,23.212 C25.138,24.412 24.916,25.321 24.472,25.939 C24.028,26.557 23.248,26.866 22.132,26.866 C21.016,26.866 20.236,26.557 19.792,25.939 C19.348,25.321 19.126,24.412 19.126,23.212 L19.126,23.212 L19.126,15.436 L17.614,15.436 L17.614,22.852 C17.614,23.764 17.689,24.556 17.839,25.228 C17.989,25.9 18.238,26.458 18.586,26.902 C18.934,27.346 19.393,27.676 19.963,27.892 C20.533,28.108 21.238,28.216 22.078,28.216 Z M33.436,28.216 C34.108,28.216 34.711,28.126 35.245,27.946 C35.779,27.766 36.232,27.514 36.604,27.19 C36.976,26.866 37.261,26.47 37.459,26.002 C37.657,25.534 37.756,25.012 37.756,24.436 C37.756,23.5 37.48,22.75 36.928,22.186 C36.376,21.622 35.482,21.202 34.246,20.926 L34.246,20.926 L33.22,20.692 C32.428,20.512 31.837,20.269 31.447,19.963 C31.057,19.657 30.862,19.204 30.862,18.604 C30.862,17.92 31.093,17.407 31.555,17.065 C32.017,16.723 32.65,16.552 33.454,16.552 C34.186,16.552 34.798,16.69 35.29,16.966 C35.782,17.242 36.202,17.62 36.55,18.1 L36.55,18.1 L37.684,17.272 C37.216,16.6 36.643,16.09 35.965,15.742 C35.287,15.394 34.474,15.22 33.526,15.22 C32.914,15.22 32.353,15.295 31.843,15.445 C31.333,15.595 30.895,15.814 30.529,16.102 C30.163,16.39 29.878,16.75 29.674,17.182 C29.47,17.614 29.368,18.106 29.368,18.658 C29.368,19.63 29.671,20.383 30.277,20.917 C30.883,21.451 31.762,21.85 32.914,22.114 L32.914,22.114 L33.94,22.348 C34.768,22.54 35.362,22.798 35.722,23.122 C36.082,23.446 36.262,23.908 36.262,24.508 C36.262,25.228 36.025,25.804 35.551,26.236 C35.077,26.668 34.39,26.884 33.49,26.884 C32.758,26.884 32.122,26.731 31.582,26.425 C31.042,26.119 30.55,25.672 30.106,25.084 L30.106,25.084 L28.99,26.02 C29.494,26.704 30.106,27.241 30.826,27.631 C31.546,28.021 32.416,28.216 33.436,28.216 Z M44.578,28 C45.358,28 46.066,27.868 46.702,27.604 C47.338,27.34 47.881,26.947 48.331,26.425 C48.781,25.903 49.126,25.249 49.366,24.463 C49.606,23.677 49.726,22.762 49.726,21.718 C49.726,20.674 49.606,19.759 49.366,18.973 C49.126,18.187 48.781,17.533 48.331,17.011 C47.881,16.489 47.338,16.096 46.702,15.832 C46.066,15.568 45.358,15.436 44.578,15.436 L44.578,15.436 L40.366,15.436 L40.366,28 L44.578,28 Z M44.578,26.668 L41.878,26.668 L41.878,16.768 L44.578,16.768 C45.094,16.768 45.568,16.855 46,17.029 C46.432,17.203 46.804,17.458 47.116,17.794 C47.428,18.13 47.671,18.541 47.845,19.027 C48.019,19.513 48.106,20.068 48.106,20.692 L48.106,20.692 L48.106,22.744 C48.106,23.368 48.019,23.923 47.845,24.409 C47.671,24.895 47.428,25.306 47.116,25.642 C46.804,25.978 46.432,26.233 46,26.407 C45.568,26.581 45.094,26.668 44.578,26.668 L44.578,26.668 Z M60.328,28.216 C60.988,28.216 61.579,28.114 62.101,27.91 C62.623,27.706 63.067,27.421 63.433,27.055 C63.799,26.689 64.078,26.251 64.27,25.741 C64.462,25.231 64.558,24.67 64.558,24.058 C64.558,23.446 64.465,22.9 64.279,22.42 C64.093,21.94 63.832,21.535 63.496,21.205 C63.16,20.875 62.764,20.62 62.308,20.44 C61.852,20.26 61.354,20.17 60.814,20.17 C60.154,20.17 59.635,20.296 59.257,20.548 C58.879,20.8 58.54,21.136 58.24,21.556 L58.24,21.556 L58.114,21.556 L58.474,16.768 L63.982,16.768 L63.982,15.436 L57.25,15.436 L56.8,22.348 L58.078,22.528 C58.342,22.24 58.639,21.991 58.969,21.781 C59.299,21.571 59.752,21.466 60.328,21.466 C61.192,21.466 61.846,21.694 62.29,22.15 C62.734,22.606 62.956,23.248 62.956,24.076 L62.956,24.076 L62.956,24.256 C62.956,25.084 62.734,25.726 62.29,26.182 C61.846,26.638 61.192,26.866 60.328,26.866 C59.944,26.866 59.614,26.827 59.338,26.749 C59.062,26.671 58.819,26.56 58.609,26.416 C58.399,26.272 58.207,26.098 58.033,25.894 C57.859,25.69 57.694,25.462 57.538,25.21 L57.538,25.21 L56.404,26.074 C56.596,26.35 56.809,26.614 57.043,26.866 C57.277,27.118 57.55,27.346 57.862,27.55 C58.174,27.754 58.531,27.916 58.933,28.036 C59.335,28.156 59.8,28.216 60.328,28.216 Z M75.466,20.08 C75.886,20.08 76.177,19.996 76.339,19.828 C76.501,19.66 76.582,19.456 76.582,19.216 L76.582,19.216 L76.582,18.82 C76.582,18.58 76.501,18.376 76.339,18.208 C76.177,18.04 75.886,17.956 75.466,17.956 C75.046,17.956 74.755,18.04 74.593,18.208 C74.431,18.376 74.35,18.58 74.35,18.82 L74.35,18.82 L74.35,19.216 C74.35,19.456 74.431,19.66 74.593,19.828 C74.755,19.996 75.046,20.08 75.466,20.08 Z M79.66,23.122 L79.66,21.898 L71.272,21.898 L71.272,23.122 L79.66,23.122 Z M75.466,27.064 C75.886,27.064 76.177,26.98 76.339,26.812 C76.501,26.644 76.582,26.44 76.582,26.2 L76.582,26.2 L76.582,25.804 C76.582,25.564 76.501,25.36 76.339,25.192 C76.177,25.024 75.886,24.94 75.466,24.94 C75.046,24.94 74.755,25.024 74.593,25.192 C74.431,25.36 74.35,25.564 74.35,25.804 L74.35,25.804 L74.35,26.2 C74.35,26.44 74.431,26.644 74.593,26.812 C74.755,26.98 75.046,27.064 75.466,27.064 Z M91.162,28.216 C92.002,28.216 92.713,28.108 93.295,27.892 C93.877,27.676 94.348,27.346 94.708,26.902 C95.068,26.458 95.329,25.9 95.491,25.228 C95.653,24.556 95.734,23.764 95.734,22.852 L95.734,22.852 L95.734,15.436 L94.222,15.436 L94.222,23.212 C94.222,24.412 94,25.321 93.556,25.939 C93.112,26.557 92.332,26.866 91.216,26.866 C90.1,26.866 89.32,26.557 88.876,25.939 C88.432,25.321 88.21,24.412 88.21,23.212 L88.21,23.212 L88.21,15.436 L86.698,15.436 L86.698,22.852 C86.698,23.764 86.773,24.556 86.923,25.228 C87.073,25.9 87.322,26.458 87.67,26.902 C88.018,27.346 88.477,27.676 89.047,27.892 C89.617,28.108 90.322,28.216 91.162,28.216 Z M102.52,28.216 C103.192,28.216 103.795,28.126 104.329,27.946 C104.863,27.766 105.316,27.514 105.688,27.19 C106.06,26.866 106.345,26.47 106.543,26.002 C106.741,25.534 106.84,25.012 106.84,24.436 C106.84,23.5 106.564,22.75 106.012,22.186 C105.46,21.622 104.566,21.202 103.33,20.926 L103.33,20.926 L102.304,20.692 C101.512,20.512 100.921,20.269 100.531,19.963 C100.141,19.657 99.946,19.204 99.946,18.604 C99.946,17.92 100.177,17.407 100.639,17.065 C101.101,16.723 101.734,16.552 102.538,16.552 C103.27,16.552 103.882,16.69 104.374,16.966 C104.866,17.242 105.286,17.62 105.634,18.1 L105.634,18.1 L106.768,17.272 C106.3,16.6 105.727,16.09 105.049,15.742 C104.371,15.394 103.558,15.22 102.61,15.22 C101.998,15.22 101.437,15.295 100.927,15.445 C100.417,15.595 99.979,15.814 99.613,16.102 C99.247,16.39 98.962,16.75 98.758,17.182 C98.554,17.614 98.452,18.106 98.452,18.658 C98.452,19.63 98.755,20.383 99.361,20.917 C99.967,21.451 100.846,21.85 101.998,22.114 L101.998,22.114 L103.024,22.348 C103.852,22.54 104.446,22.798 104.806,23.122 C105.166,23.446 105.346,23.908 105.346,24.508 C105.346,25.228 105.109,25.804 104.635,26.236 C104.161,26.668 103.474,26.884 102.574,26.884 C101.842,26.884 101.206,26.731 100.666,26.425 C100.126,26.119 99.634,25.672 99.19,25.084 L99.19,25.084 L98.074,26.02 C98.578,26.704 99.19,27.241 99.91,27.631 C100.63,28.021 101.5,28.216 102.52,28.216 Z M113.662,28 C114.442,28 115.15,27.868 115.786,27.604 C116.422,27.34 116.965,26.947 117.415,26.425 C117.865,25.903 118.21,25.249 118.45,24.463 C118.69,23.677 118.81,22.762 118.81,21.718 C118.81,20.674 118.69,19.759 118.45,18.973 C118.21,18.187 117.865,17.533 117.415,17.011 C116.965,16.489 116.422,16.096 115.786,15.832 C115.15,15.568 114.442,15.436 113.662,15.436 L113.662,15.436 L109.45,15.436 L109.45,28 L113.662,28 Z M113.662,26.668 L110.962,26.668 L110.962,16.768 L113.662,16.768 C114.178,16.768 114.652,16.855 115.084,17.029 C115.516,17.203 115.888,17.458 116.2,17.794 C116.512,18.13 116.755,18.541 116.929,19.027 C117.103,19.513 117.19,20.068 117.19,20.692 L117.19,20.692 L117.19,22.744 C117.19,23.368 117.103,23.923 116.929,24.409 C116.755,24.895 116.512,25.306 116.2,25.642 C115.888,25.978 115.516,26.233 115.084,26.407 C114.652,26.581 114.178,26.668 113.662,26.668 L113.662,26.668 Z M133.948,28 L133.948,26.668 L130.708,26.668 L130.708,15.436 L128.35,15.436 L125.02,18.55 L125.902,19.504 L129.07,16.552 L129.196,16.552 L129.196,26.668 L125.686,26.668 L125.686,28 L133.948,28 Z M140.302,28.216 C141.802,28.216 142.897,27.646 143.587,26.506 C144.277,25.366 144.622,23.77 144.622,21.718 C144.622,19.666 144.277,18.07 143.587,16.93 C142.897,15.79 141.802,15.22 140.302,15.22 C138.802,15.22 137.707,15.79 137.017,16.93 C136.327,18.07 135.982,19.666 135.982,21.718 C135.982,23.77 136.327,25.366 137.017,26.506 C137.707,27.646 138.802,28.216 140.302,28.216 Z M140.302,26.902 C139.81,26.902 139.39,26.8 139.042,26.596 C138.694,26.392 138.412,26.104 138.196,25.732 C137.98,25.36 137.821,24.922 137.719,24.418 C137.617,23.914 137.566,23.356 137.566,22.744 L137.566,22.744 L137.566,20.692 C137.566,20.08 137.617,19.522 137.719,19.018 C137.821,18.514 137.98,18.076 138.196,17.704 C138.412,17.332 138.694,17.044 139.042,16.84 C139.39,16.636 139.81,16.534 140.302,16.534 C140.794,16.534 141.214,16.636 141.562,16.84 C141.91,17.044 142.192,17.332 142.408,17.704 C142.624,18.076 142.783,18.514 142.885,19.018 C142.987,19.522 143.038,20.08 143.038,20.692 L143.038,20.692 L143.038,22.744 C143.038,23.356 142.987,23.914 142.885,24.418 C142.783,24.922 142.624,25.36 142.408,25.732 C142.192,26.104 141.91,26.392 141.562,26.596 C141.214,26.8 140.794,26.902 140.302,26.902 Z M151.102,28.216 C152.602,28.216 153.697,27.646 154.387,26.506 C155.077,25.366 155.422,23.77 155.422,21.718 C155.422,19.666 155.077,18.07 154.387,16.93 C153.697,15.79 152.602,15.22 151.102,15.22 C149.602,15.22 148.507,15.79 147.817,16.93 C147.127,18.07 146.782,19.666 146.782,21.718 C146.782,23.77 147.127,25.366 147.817,26.506 C148.507,27.646 149.602,28.216 151.102,28.216 Z M151.102,26.902 C150.61,26.902 150.19,26.8 149.842,26.596 C149.494,26.392 149.212,26.104 148.996,25.732 C148.78,25.36 148.621,24.922 148.519,24.418 C148.417,23.914 148.366,23.356 148.366,22.744 L148.366,22.744 L148.366,20.692 C148.366,20.08 148.417,19.522 148.519,19.018 C148.621,18.514 148.78,18.076 148.996,17.704 C149.212,17.332 149.494,17.044 149.842,16.84 C150.19,16.636 150.61,16.534 151.102,16.534 C151.594,16.534 152.014,16.636 152.362,16.84 C152.71,17.044 152.992,17.332 153.208,17.704 C153.424,18.076 153.583,18.514 153.685,19.018 C153.787,19.522 153.838,20.08 153.838,20.692 L153.838,20.692 L153.838,22.744 C153.838,23.356 153.787,23.914 153.685,24.418 C153.583,24.922 153.424,25.36 153.208,25.732 C152.992,26.104 152.71,26.392 152.362,26.596 C152.014,26.8 151.594,26.902 151.102,26.902 Z M158.41,30.394 C158.926,29.95 159.328,29.431 159.616,28.837 C159.904,28.243 160.048,27.7 160.048,27.208 L160.048,27.208 L160.048,26.956 C160.048,26.644 159.961,26.389 159.787,26.191 C159.613,25.993 159.334,25.894 158.95,25.894 C158.566,25.894 158.287,25.993 158.113,26.191 C157.939,26.389 157.852,26.644 157.852,26.956 L157.852,26.956 L157.852,27.208 C157.852,27.448 157.909,27.652 158.023,27.82 C158.137,27.988 158.314,28.102 158.554,28.162 C158.458,28.582 158.299,28.963 158.077,29.305 C157.855,29.647 157.564,30.01 157.204,30.394 L157.204,30.394 L158.41,30.394 Z M166.798,28.216 C168.298,28.216 169.393,27.646 170.083,26.506 C170.773,25.366 171.118,23.77 171.118,21.718 C171.118,19.666 170.773,18.07 170.083,16.93 C169.393,15.79 168.298,15.22 166.798,15.22 C165.298,15.22 164.203,15.79 163.513,16.93 C162.823,18.07 162.478,19.666 162.478,21.718 C162.478,23.77 162.823,25.366 163.513,26.506 C164.203,27.646 165.298,28.216 166.798,28.216 Z M166.798,26.902 C166.306,26.902 165.886,26.8 165.538,26.596 C165.19,26.392 164.908,26.104 164.692,25.732 C164.476,25.36 164.317,24.922 164.215,24.418 C164.113,23.914 164.062,23.356 164.062,22.744 L164.062,22.744 L164.062,20.692 C164.062,20.08 164.113,19.522 164.215,19.018 C164.317,18.514 164.476,18.076 164.692,17.704 C164.908,17.332 165.19,17.044 165.538,16.84 C165.886,16.636 166.306,16.534 166.798,16.534 C167.29,16.534 167.71,16.636 168.058,16.84 C168.406,17.044 168.688,17.332 168.904,17.704 C169.12,18.076 169.279,18.514 169.381,19.018 C169.483,19.522 169.534,20.08 169.534,20.692 L169.534,20.692 L169.534,22.744 C169.534,23.356 169.483,23.914 169.381,24.418 C169.279,24.922 169.12,25.36 168.904,25.732 C168.688,26.104 168.406,26.392 168.058,26.596 C167.71,26.8 167.29,26.902 166.798,26.902 Z M177.598,28.216 C179.098,28.216 180.193,27.646 180.883,26.506 C181.573,25.366 181.918,23.77 181.918,21.718 C181.918,19.666 181.573,18.07 180.883,16.93 C180.193,15.79 179.098,15.22 177.598,15.22 C176.098,15.22 175.003,15.79 174.313,16.93 C173.623,18.07 173.278,19.666 173.278,21.718 C173.278,23.77 173.623,25.366 174.313,26.506 C175.003,27.646 176.098,28.216 177.598,28.216 Z M177.598,26.902 C177.106,26.902 176.686,26.8 176.338,26.596 C175.99,26.392 175.708,26.104 175.492,25.732 C175.276,25.36 175.117,24.922 175.015,24.418 C174.913,23.914 174.862,23.356 174.862,22.744 L174.862,22.744 L174.862,20.692 C174.862,20.08 174.913,19.522 175.015,19.018 C175.117,18.514 175.276,18.076 175.492,17.704 C175.708,17.332 175.99,17.044 176.338,16.84 C176.686,16.636 177.106,16.534 177.598,16.534 C178.09,16.534 178.51,16.636 178.858,16.84 C179.206,17.044 179.488,17.332 179.704,17.704 C179.92,18.076 180.079,18.514 180.181,19.018 C180.283,19.522 180.334,20.08 180.334,20.692 L180.334,20.692 L180.334,22.744 C180.334,23.356 180.283,23.914 180.181,24.418 C180.079,24.922 179.92,25.36 179.704,25.732 C179.488,26.104 179.206,26.392 178.858,26.596 C178.51,26.8 178.09,26.902 177.598,26.902 Z M188.398,28.216 C189.898,28.216 190.993,27.646 191.683,26.506 C192.373,25.366 192.718,23.77 192.718,21.718 C192.718,19.666 192.373,18.07 191.683,16.93 C190.993,15.79 189.898,15.22 188.398,15.22 C186.898,15.22 185.803,15.79 185.113,16.93 C184.423,18.07 184.078,19.666 184.078,21.718 C184.078,23.77 184.423,25.366 185.113,26.506 C185.803,27.646 186.898,28.216 188.398,28.216 Z M188.398,26.902 C187.906,26.902 187.486,26.8 187.138,26.596 C186.79,26.392 186.508,26.104 186.292,25.732 C186.076,25.36 185.917,24.922 185.815,24.418 C185.713,23.914 185.662,23.356 185.662,22.744 L185.662,22.744 L185.662,20.692 C185.662,20.08 185.713,19.522 185.815,19.018 C185.917,18.514 186.076,18.076 186.292,17.704 C186.508,17.332 186.79,17.044 187.138,16.84 C187.486,16.636 187.906,16.534 188.398,16.534 C188.89,16.534 189.31,16.636 189.658,16.84 C190.006,17.044 190.288,17.332 190.504,17.704 C190.72,18.076 190.879,18.514 190.981,19.018 C191.083,19.522 191.134,20.08 191.134,20.692 L191.134,20.692 L191.134,22.744 C191.134,23.356 191.083,23.914 190.981,24.418 C190.879,24.922 190.72,25.36 190.504,25.732 C190.288,26.104 190.006,26.392 189.658,26.596 C189.31,26.8 188.89,26.902 188.398,26.902 Z M195.076,30.466 C195.52,30.094 195.94,29.626 196.336,29.062 C196.732,28.498 197.077,27.868 197.371,27.172 C197.665,26.476 197.899,25.723 198.073,24.913 C198.247,24.103 198.334,23.26 198.334,22.384 C198.334,21.52 198.25,20.686 198.082,19.882 C197.914,19.078 197.683,18.331 197.389,17.641 C197.095,16.951 196.75,16.324 196.354,15.76 C195.958,15.196 195.532,14.716 195.076,14.32 L195.076,14.32 L193.708,14.32 C194.212,14.776 194.665,15.292 195.067,15.868 C195.469,16.444 195.811,17.056 196.093,17.704 C196.375,18.352 196.594,19.012 196.75,19.684 C196.906,20.356 196.984,21.004 196.984,21.628 L196.984,21.628 L196.984,23.176 C196.984,23.812 196.906,24.466 196.75,25.138 C196.594,25.81 196.372,26.47 196.084,27.118 C195.796,27.766 195.451,28.378 195.049,28.954 C194.647,29.53 194.2,30.034 193.708,30.466 L193.708,30.466 L195.076,30.466 Z" id="(USD5USD100,000)" fill="#2A3052" fill-rule="nonzero"></path>
        </g>
        <g id="note" transform="translate(41.000000, 33.000000)">
            <path d="M4.236,64.781 C3.88066667,64.469 3.55783333,64.105 3.2675,63.689 C2.97716667,63.273 2.728,62.831 2.52,62.363 C2.312,61.895 2.15166667,61.4183333 2.039,60.933 C1.92633333,60.4476667 1.87,59.9753333 1.87,59.516 L1.87,59.516 L1.87,58.398 C1.87,57.9473333 1.92633333,57.4793333 2.039,56.994 C2.15166667,56.5086667 2.30983333,56.032 2.5135,55.564 C2.71716667,55.096 2.96416667,54.654 3.2545,54.238 C3.54483333,53.822 3.872,53.4493333 4.236,53.12 L4.236,53.12 L3.248,53.12 C2.91866667,53.406 2.611,53.7526667 2.325,54.16 C2.039,54.5673333 1.78983333,55.0201667 1.5775,55.5185 C1.36516667,56.0168333 1.19833333,56.5563333 1.077,57.137 C0.955666667,57.7176667 0.895,58.32 0.895,58.944 C0.895,59.5766667 0.957833333,60.1855 1.0835,60.7705 C1.20916667,61.3555 1.37816667,61.8993333 1.5905,62.402 C1.80283333,62.9046667 2.052,63.3596667 2.338,63.767 C2.624,64.1743333 2.92733333,64.5123333 3.248,64.781 L3.248,64.781 L4.236,64.781 Z M8.578,63.156 C9.34066667,63.156 9.99066667,62.9718333 10.528,62.6035 C11.0653333,62.2351667 11.477,61.7303333 11.763,61.089 L11.763,61.089 L10.892,60.543 C10.71,61.037 10.424,61.4335 10.034,61.7325 C9.644,62.0315 9.15866667,62.181 8.578,62.181 C7.78933333,62.181 7.17833333,61.9166667 6.745,61.388 C6.31166667,60.8593333 6.095,60.127 6.095,59.191 L6.095,59.191 L6.095,57.839 C6.095,57.371 6.15133333,56.9485 6.264,56.5715 C6.37666667,56.1945 6.53916667,55.8695 6.7515,55.5965 C6.96383333,55.3235 7.22383333,55.1133333 7.5315,54.966 C7.83916667,54.8186667 8.188,54.745 8.578,54.745 C9.14133333,54.745 9.60933333,54.8858333 9.982,55.1675 C10.3546667,55.4491667 10.632,55.824 10.814,56.292 L10.814,56.292 L11.698,55.759 C11.412,55.1263333 11.0111667,54.6366667 10.4955,54.29 C9.97983333,53.9433333 9.34066667,53.77 8.578,53.77 C7.42533333,53.77 6.52833333,54.1795 5.887,54.9985 C5.24566667,55.8175 4.925,56.9896667 4.925,58.515 C4.925,60.0403333 5.24566667,61.1951667 5.887,61.9795 C6.52833333,62.7638333 7.42533333,63.156 8.578,63.156 Z M15.884,63.156 C16.3346667,63.156 16.7441667,63.0736667 17.1125,62.909 C17.4808333,62.7443333 17.7993333,62.5081667 18.068,62.2005 C18.3366667,61.8928333 18.5446667,61.5245 18.692,61.0955 C18.8393333,60.6665 18.913,60.1833333 18.913,59.646 C18.913,59.1173333 18.8393333,58.6363333 18.692,58.203 C18.5446667,57.7696667 18.3366667,57.3991667 18.068,57.0915 C17.7993333,56.7838333 17.4808333,56.5476667 17.1125,56.383 C16.7441667,56.2183333 16.3346667,56.136 15.884,56.136 C15.4333333,56.136 15.0216667,56.2183333 14.649,56.383 C14.2763333,56.5476667 13.9578333,56.7838333 13.6935,57.0915 C13.4291667,57.3991667 13.2233333,57.7696667 13.076,58.203 C12.9286667,58.6363333 12.855,59.1173333 12.855,59.646 C12.855,60.1833333 12.9286667,60.6665 13.076,61.0955 C13.2233333,61.5245 13.4291667,61.8928333 13.6935,62.2005 C13.9578333,62.5081667 14.2763333,62.7443333 14.649,62.909 C15.0216667,63.0736667 15.4333333,63.156 15.884,63.156 Z M15.884,62.233 C15.3206667,62.233 14.8613333,62.0596667 14.506,61.713 C14.1506667,61.3663333 13.973,60.8376667 13.973,60.127 L13.973,60.127 L13.973,59.165 C13.973,58.4543333 14.1506667,57.9256667 14.506,57.579 C14.8613333,57.2323333 15.3206667,57.059 15.884,57.059 C16.4473333,57.059 16.9066667,57.2323333 17.262,57.579 C17.6173333,57.9256667 17.795,58.4543333 17.795,59.165 L17.795,59.165 L17.795,60.127 C17.795,60.8376667 17.6173333,61.3663333 17.262,61.713 C16.9066667,62.0596667 16.4473333,62.233 15.884,62.233 Z M21.669,63 L21.669,58.346 C21.669,58.1293333 21.7145,57.9408333 21.8055,57.7805 C21.8965,57.6201667 22.0156667,57.488 22.163,57.384 C22.3103333,57.28 22.4793333,57.202 22.67,57.15 C22.8606667,57.098 23.06,57.072 23.268,57.072 C23.762,57.072 24.126,57.2236667 24.36,57.527 C24.594,57.8303333 24.711,58.281 24.711,58.879 L24.711,58.879 L24.711,63 L25.751,63 L25.751,58.346 C25.751,58.1293333 25.7943333,57.9408333 25.881,57.7805 C25.9676667,57.6201667 26.0846667,57.488 26.232,57.384 C26.3793333,57.28 26.5461667,57.202 26.7325,57.15 C26.9188333,57.098 27.116,57.072 27.324,57.072 C27.8353333,57.072 28.208,57.2236667 28.442,57.527 C28.676,57.8303333 28.793,58.281 28.793,58.879 L28.793,58.879 L28.793,63 L29.833,63 L29.833,58.697 C29.833,57.8823333 29.6401667,57.2518333 29.2545,56.8055 C28.8688333,56.3591667 28.3336667,56.136 27.649,56.136 C27.077,56.136 26.6241667,56.2725 26.2905,56.5455 C25.9568333,56.8185 25.7293333,57.137 25.608,57.501 L25.608,57.501 L25.582,57.501 C25.4,57.0156667 25.1226667,56.6668333 24.75,56.4545 C24.3773333,56.2421667 23.97,56.136 23.528,56.136 C23.268,56.136 23.0426667,56.1685 22.852,56.2335 C22.6613333,56.2985 22.4945,56.3873333 22.3515,56.5 C22.2085,56.6126667 22.0871667,56.7448333 21.9875,56.8965 C21.8878333,57.0481667 21.799,57.2106667 21.721,57.384 L21.721,57.384 L21.669,57.384 L21.669,56.292 L20.629,56.292 L20.629,63 L21.669,63 Z M33.018,63 L33.018,58.346 C33.018,58.1293333 33.0635,57.9408333 33.1545,57.7805 C33.2455,57.6201667 33.3646667,57.488 33.512,57.384 C33.6593333,57.28 33.8283333,57.202 34.019,57.15 C34.2096667,57.098 34.409,57.072 34.617,57.072 C35.111,57.072 35.475,57.2236667 35.709,57.527 C35.943,57.8303333 36.06,58.281 36.06,58.879 L36.06,58.879 L36.06,63 L37.1,63 L37.1,58.346 C37.1,58.1293333 37.1433333,57.9408333 37.23,57.7805 C37.3166667,57.6201667 37.4336667,57.488 37.581,57.384 C37.7283333,57.28 37.8951667,57.202 38.0815,57.15 C38.2678333,57.098 38.465,57.072 38.673,57.072 C39.1843333,57.072 39.557,57.2236667 39.791,57.527 C40.025,57.8303333 40.142,58.281 40.142,58.879 L40.142,58.879 L40.142,63 L41.182,63 L41.182,58.697 C41.182,57.8823333 40.9891667,57.2518333 40.6035,56.8055 C40.2178333,56.3591667 39.6826667,56.136 38.998,56.136 C38.426,56.136 37.9731667,56.2725 37.6395,56.5455 C37.3058333,56.8185 37.0783333,57.137 36.957,57.501 L36.957,57.501 L36.931,57.501 C36.749,57.0156667 36.4716667,56.6668333 36.099,56.4545 C35.7263333,56.2421667 35.319,56.136 34.877,56.136 C34.617,56.136 34.3916667,56.1685 34.201,56.2335 C34.0103333,56.2985 33.8435,56.3873333 33.7005,56.5 C33.5575,56.6126667 33.4361667,56.7448333 33.3365,56.8965 C33.2368333,57.0481667 33.148,57.2106667 33.07,57.384 L33.07,57.384 L33.018,57.384 L33.018,56.292 L31.978,56.292 L31.978,63 L33.018,63 Z M43.847,54.719 C44.0723333,54.719 44.2348333,54.6648333 44.3345,54.5565 C44.4341667,54.4481667 44.484,54.3073333 44.484,54.134 L44.484,54.134 L44.484,53.965 C44.484,53.7916667 44.4341667,53.6508333 44.3345,53.5425 C44.2348333,53.4341667 44.0723333,53.38 43.847,53.38 C43.6216667,53.38 43.4591667,53.4341667 43.3595,53.5425 C43.2598333,53.6508333 43.21,53.7916667 43.21,53.965 L43.21,53.965 L43.21,54.134 C43.21,54.3073333 43.2598333,54.4481667 43.3595,54.5565 C43.4591667,54.6648333 43.6216667,54.719 43.847,54.719 Z M44.367,63 L44.367,56.292 L43.327,56.292 L43.327,63 L44.367,63 Z M48.592,63.156 C49.3633333,63.156 49.97,62.9696667 50.412,62.597 C50.854,62.2243333 51.075,61.713 51.075,61.063 C51.075,60.5516667 50.919,60.1378333 50.607,59.8215 C50.295,59.5051667 49.7663333,59.2906667 49.021,59.178 L49.021,59.178 L48.501,59.1 C48.085,59.0306667 47.7665,58.9223333 47.5455,58.775 C47.3245,58.6276667 47.214,58.3893333 47.214,58.06 C47.214,57.7393333 47.3245,57.4858333 47.5455,57.2995 C47.7665,57.1131667 48.0936667,57.02 48.527,57.02 C48.9603333,57.02 49.32,57.1045 49.606,57.2735 C49.892,57.4425 50.1086667,57.631 50.256,57.839 L50.256,57.839 L50.945,57.215 C50.6676667,56.877 50.3448333,56.6126667 49.9765,56.422 C49.6081667,56.2313333 49.151,56.136 48.605,56.136 C48.267,56.136 47.9506667,56.1771667 47.656,56.2595 C47.3613333,56.3418333 47.1078333,56.4653333 46.8955,56.63 C46.6831667,56.7946667 46.5163333,57.0005 46.395,57.2475 C46.2736667,57.4945 46.213,57.7826667 46.213,58.112 C46.213,58.424 46.2671667,58.6926667 46.3755,58.918 C46.4838333,59.1433333 46.6355,59.3318333 46.8305,59.4835 C47.0255,59.6351667 47.253,59.7565 47.513,59.8475 C47.773,59.9385 48.059,60.0056667 48.371,60.049 L48.371,60.049 L48.904,60.127 C49.346,60.1963333 49.6515,60.3241667 49.8205,60.5105 C49.9895,60.6968333 50.074,60.92 50.074,61.18 C50.074,61.5266667 49.9505,61.7953333 49.7035,61.986 C49.4565,62.1766667 49.112,62.272 48.67,62.272 C48.2453333,62.272 47.8726667,62.1831667 47.552,62.0055 C47.2313333,61.8278333 46.941,61.5743333 46.681,61.245 L46.681,61.245 L45.94,61.843 C46.2433333,62.2416667 46.6051667,62.5601667 47.0255,62.7985 C47.4458333,63.0368333 47.968,63.156 48.592,63.156 Z M54.923,63.156 C55.6943333,63.156 56.301,62.9696667 56.743,62.597 C57.185,62.2243333 57.406,61.713 57.406,61.063 C57.406,60.5516667 57.25,60.1378333 56.938,59.8215 C56.626,59.5051667 56.0973333,59.2906667 55.352,59.178 L55.352,59.178 L54.832,59.1 C54.416,59.0306667 54.0975,58.9223333 53.8765,58.775 C53.6555,58.6276667 53.545,58.3893333 53.545,58.06 C53.545,57.7393333 53.6555,57.4858333 53.8765,57.2995 C54.0975,57.1131667 54.4246667,57.02 54.858,57.02 C55.2913333,57.02 55.651,57.1045 55.937,57.2735 C56.223,57.4425 56.4396667,57.631 56.587,57.839 L56.587,57.839 L57.276,57.215 C56.9986667,56.877 56.6758333,56.6126667 56.3075,56.422 C55.9391667,56.2313333 55.482,56.136 54.936,56.136 C54.598,56.136 54.2816667,56.1771667 53.987,56.2595 C53.6923333,56.3418333 53.4388333,56.4653333 53.2265,56.63 C53.0141667,56.7946667 52.8473333,57.0005 52.726,57.2475 C52.6046667,57.4945 52.544,57.7826667 52.544,58.112 C52.544,58.424 52.5981667,58.6926667 52.7065,58.918 C52.8148333,59.1433333 52.9665,59.3318333 53.1615,59.4835 C53.3565,59.6351667 53.584,59.7565 53.844,59.8475 C54.104,59.9385 54.39,60.0056667 54.702,60.049 L54.702,60.049 L55.235,60.127 C55.677,60.1963333 55.9825,60.3241667 56.1515,60.5105 C56.3205,60.6968333 56.405,60.92 56.405,61.18 C56.405,61.5266667 56.2815,61.7953333 56.0345,61.986 C55.7875,62.1766667 55.443,62.272 55.001,62.272 C54.5763333,62.272 54.2036667,62.1831667 53.883,62.0055 C53.5623333,61.8278333 53.272,61.5743333 53.012,61.245 L53.012,61.245 L52.271,61.843 C52.5743333,62.2416667 52.9361667,62.5601667 53.3565,62.7985 C53.7768333,63.0368333 54.299,63.156 54.923,63.156 Z M59.759,54.719 C59.9843333,54.719 60.1468333,54.6648333 60.2465,54.5565 C60.3461667,54.4481667 60.396,54.3073333 60.396,54.134 L60.396,54.134 L60.396,53.965 C60.396,53.7916667 60.3461667,53.6508333 60.2465,53.5425 C60.1468333,53.4341667 59.9843333,53.38 59.759,53.38 C59.5336667,53.38 59.3711667,53.4341667 59.2715,53.5425 C59.1718333,53.6508333 59.122,53.7916667 59.122,53.965 L59.122,53.965 L59.122,54.134 C59.122,54.3073333 59.1718333,54.4481667 59.2715,54.5565 C59.3711667,54.6648333 59.5336667,54.719 59.759,54.719 Z M60.279,63 L60.279,56.292 L59.239,56.292 L59.239,63 L60.279,63 Z M65.024,63.156 C65.4746667,63.156 65.8841667,63.0736667 66.2525,62.909 C66.6208333,62.7443333 66.9393333,62.5081667 67.208,62.2005 C67.4766667,61.8928333 67.6846667,61.5245 67.832,61.0955 C67.9793333,60.6665 68.053,60.1833333 68.053,59.646 C68.053,59.1173333 67.9793333,58.6363333 67.832,58.203 C67.6846667,57.7696667 67.4766667,57.3991667 67.208,57.0915 C66.9393333,56.7838333 66.6208333,56.5476667 66.2525,56.383 C65.8841667,56.2183333 65.4746667,56.136 65.024,56.136 C64.5733333,56.136 64.1616667,56.2183333 63.789,56.383 C63.4163333,56.5476667 63.0978333,56.7838333 62.8335,57.0915 C62.5691667,57.3991667 62.3633333,57.7696667 62.216,58.203 C62.0686667,58.6363333 61.995,59.1173333 61.995,59.646 C61.995,60.1833333 62.0686667,60.6665 62.216,61.0955 C62.3633333,61.5245 62.5691667,61.8928333 62.8335,62.2005 C63.0978333,62.5081667 63.4163333,62.7443333 63.789,62.909 C64.1616667,63.0736667 64.5733333,63.156 65.024,63.156 Z M65.024,62.233 C64.4606667,62.233 64.0013333,62.0596667 63.646,61.713 C63.2906667,61.3663333 63.113,60.8376667 63.113,60.127 L63.113,60.127 L63.113,59.165 C63.113,58.4543333 63.2906667,57.9256667 63.646,57.579 C64.0013333,57.2323333 64.4606667,57.059 65.024,57.059 C65.5873333,57.059 66.0466667,57.2323333 66.402,57.579 C66.7573333,57.9256667 66.935,58.4543333 66.935,59.165 L66.935,59.165 L66.935,60.127 C66.935,60.8376667 66.7573333,61.3663333 66.402,61.713 C66.0466667,62.0596667 65.5873333,62.233 65.024,62.233 Z M70.809,63 L70.809,58.346 C70.809,58.1293333 70.8545,57.9408333 70.9455,57.7805 C71.0365,57.6201667 71.16,57.488 71.316,57.384 C71.472,57.28 71.6475,57.202 71.8425,57.15 C72.0375,57.098 72.239,57.072 72.447,57.072 C73.461,57.072 73.968,57.6743333 73.968,58.879 L73.968,58.879 L73.968,63 L75.008,63 L75.008,58.697 C75.008,57.8823333 74.8065,57.2518333 74.4035,56.8055 C74.0005,56.3591667 73.4523333,56.136 72.759,56.136 C72.2563333,56.136 71.8555,56.2486667 71.5565,56.474 C71.2575,56.6993333 71.0256667,57.0026667 70.861,57.384 L70.861,57.384 L70.809,57.384 L70.809,56.292 L69.769,56.292 L69.769,63 L70.809,63 Z M81.261,63 L81.261,58.45 C81.261,58.1293333 81.4191667,57.8628333 81.7355,57.6505 C82.0518333,57.4381667 82.4916667,57.332 83.055,57.332 L83.055,57.332 L83.666,57.332 L83.666,56.292 L83.263,56.292 C82.717,56.292 82.288,56.4176667 81.976,56.669 C81.664,56.9203333 81.4473333,57.2063333 81.326,57.527 L81.326,57.527 L81.261,57.527 L81.261,56.292 L80.221,56.292 L80.221,63 L81.261,63 Z M86.708,63.156 C87.176,63.156 87.579,63.052 87.917,62.844 C88.255,62.636 88.4976667,62.324 88.645,61.908 L88.645,61.908 L88.71,61.908 C88.7533333,62.22 88.8595,62.48 89.0285,62.688 C89.1975,62.896 89.477,63 89.867,63 L89.867,63 L90.452,63 L90.452,62.09 L89.685,62.09 L89.685,58.398 C89.685,57.6873333 89.4596667,57.1326667 89.009,56.734 C88.5583333,56.3353333 87.9256667,56.136 87.111,56.136 C86.5043333,56.136 86.0016667,56.2638333 85.603,56.5195 C85.2043333,56.7751667 84.914,57.085 84.732,57.449 L84.732,57.449 L85.356,58.034 C85.538,57.7306667 85.7655,57.488 86.0385,57.306 C86.3115,57.124 86.6516667,57.033 87.059,57.033 C87.5963333,57.033 87.995,57.1586667 88.255,57.41 C88.515,57.6613333 88.645,58.0253333 88.645,58.502 L88.645,58.502 L88.645,59.165 L87.319,59.165 C86.3396667,59.165 85.6181667,59.334 85.1545,59.672 C84.6908333,60.01 84.459,60.4953333 84.459,61.128 C84.459,61.752 84.6561667,62.246 85.0505,62.61 C85.4448333,62.974 85.9973333,63.156 86.708,63.156 Z M86.877,62.272 C86.4696667,62.272 86.1468333,62.181 85.9085,61.999 C85.6701667,61.817 85.551,61.5613333 85.551,61.232 L85.551,61.232 L85.551,60.959 C85.551,60.6296667 85.6875,60.3783333 85.9605,60.205 C86.2335,60.0316667 86.669,59.945 87.267,59.945 L87.267,59.945 L88.645,59.945 L88.645,61.05 C88.645,61.2233333 88.6016667,61.3836667 88.515,61.531 C88.4283333,61.6783333 88.307,61.8083333 88.151,61.921 C87.995,62.0336667 87.8086667,62.1203333 87.592,62.181 C87.3753333,62.2416667 87.137,62.272 86.877,62.272 Z M94.716,63 L94.716,62.09 L93.351,62.09 L93.351,57.202 L94.82,57.202 L94.82,56.292 L93.351,56.292 L93.351,54.433 L92.415,54.433 L92.415,55.681 C92.415,55.9063333 92.3738333,56.0645 92.2915,56.1555 C92.2091667,56.2465 92.0553333,56.292 91.83,56.292 L91.83,56.292 L91.206,56.292 L91.206,57.202 L92.311,57.202 L92.311,61.895 C92.311,62.2243333 92.4041667,62.4908333 92.5905,62.6945 C92.7768333,62.8981667 93.052,63 93.416,63 L93.416,63 L94.716,63 Z M99.019,63.156 C99.6516667,63.156 100.197667,63.0151667 100.657,62.7335 C101.116333,62.4518333 101.454333,62.0813333 101.671,61.622 L101.671,61.622 L100.93,61.089 C100.756667,61.4616667 100.511833,61.7476667 100.1955,61.947 C99.8791667,62.1463333 99.5086667,62.246 99.084,62.246 C98.772,62.246 98.4925,62.194 98.2455,62.09 C97.9985,61.986 97.7905,61.843 97.6215,61.661 C97.4525,61.479 97.3225,61.2645 97.2315,61.0175 C97.1405,60.7705 97.095,60.504 97.095,60.218 L97.095,60.218 L97.095,59.906 L101.918,59.906 L101.918,59.412 C101.918,58.9353333 101.850833,58.4976667 101.7165,58.099 C101.582167,57.7003333 101.389333,57.3558333 101.138,57.0655 C100.886667,56.7751667 100.583333,56.5476667 100.228,56.383 C99.8726667,56.2183333 99.4696667,56.136 99.019,56.136 C98.5596667,56.136 98.1458333,56.2183333 97.7775,56.383 C97.4091667,56.5476667 97.0928333,56.7838333 96.8285,57.0915 C96.5641667,57.3991667 96.3605,57.7696667 96.2175,58.203 C96.0745,58.6363333 96.003,59.1173333 96.003,59.646 C96.003,60.1833333 96.0745,60.6665 96.2175,61.0955 C96.3605,61.5245 96.5641667,61.8928333 96.8285,62.2005 C97.0928333,62.5081667 97.4091667,62.7443333 97.7775,62.909 C98.1458333,63.0736667 98.5596667,63.156 99.019,63.156 Z M100.8,59.126 L97.095,59.126 L97.095,59.035 C97.095,58.7403333 97.1426667,58.4695 97.238,58.2225 C97.3333333,57.9755 97.4655,57.761 97.6345,57.579 C97.8035,57.397 98.005,57.2561667 98.239,57.1565 C98.473,57.0568333 98.733,57.007 99.019,57.007 C99.5563333,57.007 99.9875,57.1868333 100.3125,57.5465 C100.6375,57.9061667 100.8,58.385 100.8,58.983 L100.8,58.983 L100.8,59.126 Z M112.565,57.28 C112.868333,57.28 113.0785,57.2193333 113.1955,57.098 C113.3125,56.9766667 113.371,56.8293333 113.371,56.656 L113.371,56.656 L113.371,56.37 C113.371,56.1966667 113.3125,56.0493333 113.1955,55.928 C113.0785,55.8066667 112.868333,55.746 112.565,55.746 C112.261667,55.746 112.0515,55.8066667 111.9345,55.928 C111.8175,56.0493333 111.759,56.1966667 111.759,56.37 L111.759,56.37 L111.759,56.656 C111.759,56.8293333 111.8175,56.9766667 111.9345,57.098 C112.0515,57.2193333 112.261667,57.28 112.565,57.28 Z M115.594,59.477 L115.594,58.593 L109.536,58.593 L109.536,59.477 L115.594,59.477 Z M112.565,62.324 C112.868333,62.324 113.0785,62.2633333 113.1955,62.142 C113.3125,62.0206667 113.371,61.8733333 113.371,61.7 L113.371,61.7 L113.371,61.414 C113.371,61.2406667 113.3125,61.0933333 113.1955,60.972 C113.0785,60.8506667 112.868333,60.79 112.565,60.79 C112.261667,60.79 112.0515,60.8506667 111.9345,60.972 C111.8175,61.0933333 111.759,61.2406667 111.759,61.414 L111.759,61.414 L111.759,61.7 C111.759,61.8733333 111.8175,62.0206667 111.9345,62.142 C112.0515,62.2633333 112.261667,62.324 112.565,62.324 Z M124.005,63 L124.915,60.322 L128.581,60.322 L129.491,63 L130.635,63 L127.463,53.926 L126.072,53.926 L122.9,63 L124.005,63 Z M128.308,59.36 L125.175,59.36 L126.709,54.94 L126.774,54.94 L128.308,59.36 Z M134.314,63.156 C135.215333,63.156 135.869667,62.74 136.277,61.908 L136.277,61.908 L136.329,61.908 L136.329,63 L137.369,63 L137.369,53.38 L136.329,53.38 L136.329,57.384 L136.277,57.384 C136.103667,56.9593333 135.850167,56.6451667 135.5165,56.4415 C135.182833,56.2378333 134.782,56.136 134.314,56.136 C133.898,56.136 133.521,56.2183333 133.183,56.383 C132.845,56.5476667 132.556833,56.7816667 132.3185,57.085 C132.080167,57.3883333 131.898167,57.7566667 131.7725,58.19 C131.646833,58.6233333 131.584,59.1086667 131.584,59.646 C131.584,60.1833333 131.646833,60.6686667 131.7725,61.102 C131.898167,61.5353333 132.080167,61.9036667 132.3185,62.207 C132.556833,62.5103333 132.845,62.7443333 133.183,62.909 C133.521,63.0736667 133.898,63.156 134.314,63.156 Z M134.6,62.22 C134.010667,62.22 133.547,62.0358333 133.209,61.6675 C132.871,61.2991667 132.702,60.816 132.702,60.218 L132.702,60.218 L132.702,59.074 C132.702,58.476 132.871,57.9928333 133.209,57.6245 C133.547,57.2561667 134.010667,57.072 134.6,57.072 C134.834,57.072 135.057167,57.1045 135.2695,57.1695 C135.481833,57.2345 135.666,57.3233333 135.822,57.436 C135.978,57.5486667 136.1015,57.6851667 136.1925,57.8455 C136.2835,58.0058333 136.329,58.177 136.329,58.359 L136.329,58.359 L136.329,60.855 C136.329,61.0716667 136.2835,61.2645 136.1925,61.4335 C136.1015,61.6025 135.978,61.7455 135.822,61.8625 C135.666,61.9795 135.481833,62.0683333 135.2695,62.129 C135.057167,62.1896667 134.834,62.22 134.6,62.22 Z M140.099,54.719 C140.324333,54.719 140.486833,54.6648333 140.5865,54.5565 C140.686167,54.4481667 140.736,54.3073333 140.736,54.134 L140.736,54.134 L140.736,53.965 C140.736,53.7916667 140.686167,53.6508333 140.5865,53.5425 C140.486833,53.4341667 140.324333,53.38 140.099,53.38 C139.873667,53.38 139.711167,53.4341667 139.6115,53.5425 C139.511833,53.6508333 139.462,53.7916667 139.462,53.965 L139.462,53.965 L139.462,54.134 C139.462,54.3073333 139.511833,54.4481667 139.6115,54.5565 C139.711167,54.6648333 139.873667,54.719 140.099,54.719 Z M139.163,65.6 C139.665667,65.6 140.034,65.457 140.268,65.171 C140.502,64.885 140.619,64.508 140.619,64.04 L140.619,64.04 L140.619,56.292 L139.579,56.292 L139.579,64.69 L138.487,64.69 L138.487,65.6 L139.163,65.6 Z M145.026,63.156 C145.303333,63.156 145.546,63.1213333 145.754,63.052 C145.962,62.9826667 146.139667,62.8895 146.287,62.7725 C146.434333,62.6555 146.557833,62.5211667 146.6575,62.3695 C146.757167,62.2178333 146.841667,62.064 146.911,61.908 L146.911,61.908 L146.963,61.908 L146.963,63 L148.003,63 L148.003,56.292 L146.963,56.292 L146.963,60.933 C146.963,61.1583333 146.9175,61.3511667 146.8265,61.5115 C146.7355,61.6718333 146.614167,61.804 146.4625,61.908 C146.310833,62.012 146.1375,62.09 145.9425,62.142 C145.7475,62.194 145.546,62.22 145.338,62.22 C144.315333,62.22 143.804,61.6176667 143.804,60.413 L143.804,60.413 L143.804,56.292 L142.764,56.292 L142.764,60.595 C142.764,61.4096667 142.967667,62.0401667 143.375,62.4865 C143.782333,62.9328333 144.332667,63.156 145.026,63.156 Z M152.228,63.156 C152.999333,63.156 153.606,62.9696667 154.048,62.597 C154.49,62.2243333 154.711,61.713 154.711,61.063 C154.711,60.5516667 154.555,60.1378333 154.243,59.8215 C153.931,59.5051667 153.402333,59.2906667 152.657,59.178 L152.657,59.178 L152.137,59.1 C151.721,59.0306667 151.4025,58.9223333 151.1815,58.775 C150.9605,58.6276667 150.85,58.3893333 150.85,58.06 C150.85,57.7393333 150.9605,57.4858333 151.1815,57.2995 C151.4025,57.1131667 151.729667,57.02 152.163,57.02 C152.596333,57.02 152.956,57.1045 153.242,57.2735 C153.528,57.4425 153.744667,57.631 153.892,57.839 L153.892,57.839 L154.581,57.215 C154.303667,56.877 153.980833,56.6126667 153.6125,56.422 C153.244167,56.2313333 152.787,56.136 152.241,56.136 C151.903,56.136 151.586667,56.1771667 151.292,56.2595 C150.997333,56.3418333 150.743833,56.4653333 150.5315,56.63 C150.319167,56.7946667 150.152333,57.0005 150.031,57.2475 C149.909667,57.4945 149.849,57.7826667 149.849,58.112 C149.849,58.424 149.903167,58.6926667 150.0115,58.918 C150.119833,59.1433333 150.2715,59.3318333 150.4665,59.4835 C150.6615,59.6351667 150.889,59.7565 151.149,59.8475 C151.409,59.9385 151.695,60.0056667 152.007,60.049 L152.007,60.049 L152.54,60.127 C152.982,60.1963333 153.2875,60.3241667 153.4565,60.5105 C153.6255,60.6968333 153.71,60.92 153.71,61.18 C153.71,61.5266667 153.5865,61.7953333 153.3395,61.986 C153.0925,62.1766667 152.748,62.272 152.306,62.272 C151.881333,62.272 151.508667,62.1831667 151.188,62.0055 C150.867333,61.8278333 150.577,61.5743333 150.317,61.245 L150.317,61.245 L149.576,61.843 C149.879333,62.2416667 150.241167,62.5601667 150.6615,62.7985 C151.081833,63.0368333 151.604,63.156 152.228,63.156 Z M159.326,63 L159.326,62.09 L157.961,62.09 L157.961,57.202 L159.43,57.202 L159.43,56.292 L157.961,56.292 L157.961,54.433 L157.025,54.433 L157.025,55.681 C157.025,55.9063333 156.983833,56.0645 156.9015,56.1555 C156.819167,56.2465 156.665333,56.292 156.44,56.292 L156.44,56.292 L155.816,56.292 L155.816,57.202 L156.921,57.202 L156.921,61.895 C156.921,62.2243333 157.014167,62.4908333 157.2005,62.6945 C157.386833,62.8981667 157.662,63 158.026,63 L158.026,63 L159.326,63 Z M163.629,63.156 C164.261667,63.156 164.807667,63.0151667 165.267,62.7335 C165.726333,62.4518333 166.064333,62.0813333 166.281,61.622 L166.281,61.622 L165.54,61.089 C165.366667,61.4616667 165.121833,61.7476667 164.8055,61.947 C164.489167,62.1463333 164.118667,62.246 163.694,62.246 C163.382,62.246 163.1025,62.194 162.8555,62.09 C162.6085,61.986 162.4005,61.843 162.2315,61.661 C162.0625,61.479 161.9325,61.2645 161.8415,61.0175 C161.7505,60.7705 161.705,60.504 161.705,60.218 L161.705,60.218 L161.705,59.906 L166.528,59.906 L166.528,59.412 C166.528,58.9353333 166.460833,58.4976667 166.3265,58.099 C166.192167,57.7003333 165.999333,57.3558333 165.748,57.0655 C165.496667,56.7751667 165.193333,56.5476667 164.838,56.383 C164.482667,56.2183333 164.079667,56.136 163.629,56.136 C163.169667,56.136 162.755833,56.2183333 162.3875,56.383 C162.019167,56.5476667 161.702833,56.7838333 161.4385,57.0915 C161.174167,57.3991667 160.9705,57.7696667 160.8275,58.203 C160.6845,58.6363333 160.613,59.1173333 160.613,59.646 C160.613,60.1833333 160.6845,60.6665 160.8275,61.0955 C160.9705,61.5245 161.174167,61.8928333 161.4385,62.2005 C161.702833,62.5081667 162.019167,62.7443333 162.3875,62.909 C162.755833,63.0736667 163.169667,63.156 163.629,63.156 Z M165.41,59.126 L161.705,59.126 L161.705,59.035 C161.705,58.7403333 161.752667,58.4695 161.848,58.2225 C161.943333,57.9755 162.0755,57.761 162.2445,57.579 C162.4135,57.397 162.615,57.2561667 162.849,57.1565 C163.083,57.0568333 163.343,57.007 163.629,57.007 C164.166333,57.007 164.5975,57.1868333 164.9225,57.5465 C165.2475,57.9061667 165.41,58.385 165.41,58.983 L165.41,58.983 L165.41,59.126 Z M170.519,63.156 C171.420333,63.156 172.074667,62.74 172.482,61.908 L172.482,61.908 L172.534,61.908 L172.534,63 L173.574,63 L173.574,53.38 L172.534,53.38 L172.534,57.384 L172.482,57.384 C172.308667,56.9593333 172.055167,56.6451667 171.7215,56.4415 C171.387833,56.2378333 170.987,56.136 170.519,56.136 C170.103,56.136 169.726,56.2183333 169.388,56.383 C169.05,56.5476667 168.761833,56.7816667 168.5235,57.085 C168.285167,57.3883333 168.103167,57.7566667 167.9775,58.19 C167.851833,58.6233333 167.789,59.1086667 167.789,59.646 C167.789,60.1833333 167.851833,60.6686667 167.9775,61.102 C168.103167,61.5353333 168.285167,61.9036667 168.5235,62.207 C168.761833,62.5103333 169.05,62.7443333 169.388,62.909 C169.726,63.0736667 170.103,63.156 170.519,63.156 Z M170.805,62.22 C170.215667,62.22 169.752,62.0358333 169.414,61.6675 C169.076,61.2991667 168.907,60.816 168.907,60.218 L168.907,60.218 L168.907,59.074 C168.907,58.476 169.076,57.9928333 169.414,57.6245 C169.752,57.2561667 170.215667,57.072 170.805,57.072 C171.039,57.072 171.262167,57.1045 171.4745,57.1695 C171.686833,57.2345 171.871,57.3233333 172.027,57.436 C172.183,57.5486667 172.3065,57.6851667 172.3975,57.8455 C172.4885,58.0058333 172.534,58.177 172.534,58.359 L172.534,58.359 L172.534,60.855 C172.534,61.0716667 172.4885,61.2645 172.3975,61.4335 C172.3065,61.6025 172.183,61.7455 172.027,61.8625 C171.871,61.9795 171.686833,62.0683333 171.4745,62.129 C171.262167,62.1896667 171.039,62.22 170.805,62.22 Z M181.543,63 L183.909,56.292 L182.908,56.292 L181.712,59.62 L180.984,61.908 L180.919,61.908 L180.191,59.62 L179.021,56.292 L177.981,56.292 L180.334,63 L181.543,63 Z M187.783,63.156 C188.233667,63.156 188.643167,63.0736667 189.0115,62.909 C189.379833,62.7443333 189.698333,62.5081667 189.967,62.2005 C190.235667,61.8928333 190.443667,61.5245 190.591,61.0955 C190.738333,60.6665 190.812,60.1833333 190.812,59.646 C190.812,59.1173333 190.738333,58.6363333 190.591,58.203 C190.443667,57.7696667 190.235667,57.3991667 189.967,57.0915 C189.698333,56.7838333 189.379833,56.5476667 189.0115,56.383 C188.643167,56.2183333 188.233667,56.136 187.783,56.136 C187.332333,56.136 186.920667,56.2183333 186.548,56.383 C186.175333,56.5476667 185.856833,56.7838333 185.5925,57.0915 C185.328167,57.3991667 185.122333,57.7696667 184.975,58.203 C184.827667,58.6363333 184.754,59.1173333 184.754,59.646 C184.754,60.1833333 184.827667,60.6665 184.975,61.0955 C185.122333,61.5245 185.328167,61.8928333 185.5925,62.2005 C185.856833,62.5081667 186.175333,62.7443333 186.548,62.909 C186.920667,63.0736667 187.332333,63.156 187.783,63.156 Z M187.783,62.233 C187.219667,62.233 186.760333,62.0596667 186.405,61.713 C186.049667,61.3663333 185.872,60.8376667 185.872,60.127 L185.872,60.127 L185.872,59.165 C185.872,58.4543333 186.049667,57.9256667 186.405,57.579 C186.760333,57.2323333 187.219667,57.059 187.783,57.059 C188.346333,57.059 188.805667,57.2323333 189.161,57.579 C189.516333,57.9256667 189.694,58.4543333 189.694,59.165 L189.694,59.165 L189.694,60.127 C189.694,60.8376667 189.516333,61.3663333 189.161,61.713 C188.805667,62.0596667 188.346333,62.233 187.783,62.233 Z M194.556,63 L194.556,62.09 L193.568,62.09 L193.568,53.38 L192.528,53.38 L192.528,61.921 C192.528,62.233 192.621167,62.4908333 192.8075,62.6945 C192.993833,62.8981667 193.269,63 193.633,63 L193.633,63 L194.556,63 Z M198.261,63.156 C198.538333,63.156 198.781,63.1213333 198.989,63.052 C199.197,62.9826667 199.374667,62.8895 199.522,62.7725 C199.669333,62.6555 199.792833,62.5211667 199.8925,62.3695 C199.992167,62.2178333 200.076667,62.064 200.146,61.908 L200.146,61.908 L200.198,61.908 L200.198,63 L201.238,63 L201.238,56.292 L200.198,56.292 L200.198,60.933 C200.198,61.1583333 200.1525,61.3511667 200.0615,61.5115 C199.9705,61.6718333 199.849167,61.804 199.6975,61.908 C199.545833,62.012 199.3725,62.09 199.1775,62.142 C198.9825,62.194 198.781,62.22 198.573,62.22 C197.550333,62.22 197.039,61.6176667 197.039,60.413 L197.039,60.413 L197.039,56.292 L195.999,56.292 L195.999,60.595 C195.999,61.4096667 196.202667,62.0401667 196.61,62.4865 C197.017333,62.9328333 197.567667,63.156 198.261,63.156 Z M204.488,63 L204.488,58.346 C204.488,58.1293333 204.5335,57.9408333 204.6245,57.7805 C204.7155,57.6201667 204.834667,57.488 204.982,57.384 C205.129333,57.28 205.298333,57.202 205.489,57.15 C205.679667,57.098 205.879,57.072 206.087,57.072 C206.581,57.072 206.945,57.2236667 207.179,57.527 C207.413,57.8303333 207.53,58.281 207.53,58.879 L207.53,58.879 L207.53,63 L208.57,63 L208.57,58.346 C208.57,58.1293333 208.613333,57.9408333 208.7,57.7805 C208.786667,57.6201667 208.903667,57.488 209.051,57.384 C209.198333,57.28 209.365167,57.202 209.5515,57.15 C209.737833,57.098 209.935,57.072 210.143,57.072 C210.654333,57.072 211.027,57.2236667 211.261,57.527 C211.495,57.8303333 211.612,58.281 211.612,58.879 L211.612,58.879 L211.612,63 L212.652,63 L212.652,58.697 C212.652,57.8823333 212.459167,57.2518333 212.0735,56.8055 C211.687833,56.3591667 211.152667,56.136 210.468,56.136 C209.896,56.136 209.443167,56.2725 209.1095,56.5455 C208.775833,56.8185 208.548333,57.137 208.427,57.501 L208.427,57.501 L208.401,57.501 C208.219,57.0156667 207.941667,56.6668333 207.569,56.4545 C207.196333,56.2421667 206.789,56.136 206.347,56.136 C206.087,56.136 205.861667,56.1685 205.671,56.2335 C205.480333,56.2985 205.3135,56.3873333 205.1705,56.5 C205.0275,56.6126667 204.906167,56.7448333 204.8065,56.8965 C204.706833,57.0481667 204.618,57.2106667 204.54,57.384 L204.54,57.384 L204.488,57.384 L204.488,56.292 L203.448,56.292 L203.448,63 L204.488,63 Z M217.319,63.156 C217.951667,63.156 218.497667,63.0151667 218.957,62.7335 C219.416333,62.4518333 219.754333,62.0813333 219.971,61.622 L219.971,61.622 L219.23,61.089 C219.056667,61.4616667 218.811833,61.7476667 218.4955,61.947 C218.179167,62.1463333 217.808667,62.246 217.384,62.246 C217.072,62.246 216.7925,62.194 216.5455,62.09 C216.2985,61.986 216.0905,61.843 215.9215,61.661 C215.7525,61.479 215.6225,61.2645 215.5315,61.0175 C215.4405,60.7705 215.395,60.504 215.395,60.218 L215.395,60.218 L215.395,59.906 L220.218,59.906 L220.218,59.412 C220.218,58.9353333 220.150833,58.4976667 220.0165,58.099 C219.882167,57.7003333 219.689333,57.3558333 219.438,57.0655 C219.186667,56.7751667 218.883333,56.5476667 218.528,56.383 C218.172667,56.2183333 217.769667,56.136 217.319,56.136 C216.859667,56.136 216.445833,56.2183333 216.0775,56.383 C215.709167,56.5476667 215.392833,56.7838333 215.1285,57.0915 C214.864167,57.3991667 214.6605,57.7696667 214.5175,58.203 C214.3745,58.6363333 214.303,59.1173333 214.303,59.646 C214.303,60.1833333 214.3745,60.6665 214.5175,61.0955 C214.6605,61.5245 214.864167,61.8928333 215.1285,62.2005 C215.392833,62.5081667 215.709167,62.7443333 216.0775,62.909 C216.445833,63.0736667 216.859667,63.156 217.319,63.156 Z M219.1,59.126 L215.395,59.126 L215.395,59.035 C215.395,58.7403333 215.442667,58.4695 215.538,58.2225 C215.633333,57.9755 215.7655,57.761 215.9345,57.579 C216.1035,57.397 216.305,57.2561667 216.539,57.1565 C216.773,57.0568333 217.033,57.007 217.319,57.007 C217.856333,57.007 218.2875,57.1868333 218.6125,57.5465 C218.9375,57.9061667 219.1,58.385 219.1,58.983 L219.1,58.983 L219.1,59.126 Z M221.752,64.781 C222.072667,64.5123333 222.376,64.1743333 222.662,63.767 C222.948,63.3596667 223.197167,62.9046667 223.4095,62.402 C223.621833,61.8993333 223.790833,61.3555 223.9165,60.7705 C224.042167,60.1855 224.105,59.5766667 224.105,58.944 C224.105,58.32 224.044333,57.7176667 223.923,57.137 C223.801667,56.5563333 223.634833,56.0168333 223.4225,55.5185 C223.210167,55.0201667 222.961,54.5673333 222.675,54.16 C222.389,53.7526667 222.081333,53.406 221.752,53.12 L221.752,53.12 L220.764,53.12 C221.128,53.4493333 221.455167,53.822 221.7455,54.238 C222.035833,54.654 222.282833,55.096 222.4865,55.564 C222.690167,56.032 222.848333,56.5086667 222.961,56.994 C223.073667,57.4793333 223.13,57.9473333 223.13,58.398 L223.13,58.398 L223.13,59.516 C223.13,59.9753333 223.073667,60.4476667 222.961,60.933 C222.848333,61.4183333 222.688,61.895 222.48,62.363 C222.272,62.831 222.022833,63.273 221.7325,63.689 C221.442167,64.105 221.119333,64.469 220.764,64.781 L220.764,64.781 L221.752,64.781 Z" id="(CommissionrateAdjustedvolume)" fill="#2A3052" fill-rule="nonzero"></path>
            <path d="M112.5,0 C113.880712,0 115,1.11928813 115,2.5 C115,3.70932545 114.141338,4.71809967 113.000434,4.94990271 L113,50 L112,50 L112.000574,4.9501074 C110.859168,4.7186941 110,3.70968176 110,2.5 C110,1.11928813 111.119288,0 112.5,0 Z" id="Combined-Shape" fill="#E98024"></path>
        </g>
    </g>
</svg>