<?xml version="1.0" encoding="UTF-8"?>
<svg width="680px" height="97px" viewBox="0 0 680 97" version="1.1" xmlns="http://www.w3.org/2000/svg" xmlns:xlink="http://www.w3.org/1999/xlink">
    <title>Deriv MT5 Financial - Forex</title>
    <g id="Deriv-MT5-Financial---Forex" stroke="none" stroke-width="1" fill="none" fill-rule="evenodd">
        <rect id="bottom" fill="#E5E5E5" x="0" y="55" width="680" height="2"></rect>
        <g id="box-4" transform="translate(443.000000, 0.000000)">
            <rect id="leg-2" stroke="#DEDEDE" stroke-width="2" fill="#F2F2F2" x="52" y="41" width="7" height="13"></rect>
            <rect id="leg-1" stroke="#DEDEDE" stroke-width="2" fill="#F2F2F2" x="11" y="41" width="7" height="13"></rect>
            <rect id="back" fill="#2A3052" x="0" y="0" width="70" height="43"></rect>
            <path d="M19.342,28 L19.342,26.668 L13.186,26.668 L13.186,22.312 L18.982,22.312 L18.982,20.98 L13.186,20.98 L13.186,16.768 L19.342,16.768 L19.342,15.436 L11.674,15.436 L11.674,28 L19.342,28 Z M26.542,28.216 C27.382,28.216 28.093,28.108 28.675,27.892 C29.257,27.676 29.728,27.346 30.088,26.902 C30.448,26.458 30.709,25.9 30.871,25.228 C31.033,24.556 31.114,23.764 31.114,22.852 L31.114,22.852 L31.114,15.436 L29.602,15.436 L29.602,23.212 C29.602,24.412 29.38,25.321 28.936,25.939 C28.492,26.557 27.712,26.866 26.596,26.866 C25.48,26.866 24.7,26.557 24.256,25.939 C23.812,25.321 23.59,24.412 23.59,23.212 L23.59,23.212 L23.59,15.436 L22.078,15.436 L22.078,22.852 C22.078,23.764 22.153,24.556 22.303,25.228 C22.453,25.9 22.702,26.458 23.05,26.902 C23.398,27.346 23.857,27.676 24.427,27.892 C24.997,28.108 25.702,28.216 26.542,28.216 Z M35.884,28 L35.884,22.6 L38.818,22.6 L41.536,28 L43.246,28 L40.366,22.456 C41.194,22.264 41.821,21.871 42.247,21.277 C42.673,20.683 42.886,19.924 42.886,19 C42.886,17.848 42.577,16.966 41.959,16.354 C41.341,15.742 40.48,15.436 39.376,15.436 L39.376,15.436 L34.372,15.436 L34.372,28 L35.884,28 Z M39.376,21.304 L35.884,21.304 L35.884,16.768 L39.376,16.768 C39.976,16.768 40.441,16.924 40.771,17.236 C41.101,17.548 41.266,17.992 41.266,18.568 L41.266,18.568 L41.266,19.504 C41.266,20.08 41.101,20.524 40.771,20.836 C40.441,21.148 39.976,21.304 39.376,21.304 L39.376,21.304 Z M53.776,28.216 C54.436,28.216 55.027,28.114 55.549,27.91 C56.071,27.706 56.515,27.421 56.881,27.055 C57.247,26.689 57.526,26.251 57.718,25.741 C57.91,25.231 58.006,24.67 58.006,24.058 C58.006,23.446 57.913,22.9 57.727,22.42 C57.541,21.94 57.28,21.535 56.944,21.205 C56.608,20.875 56.212,20.62 55.756,20.44 C55.3,20.26 54.802,20.17 54.262,20.17 C53.602,20.17 53.083,20.296 52.705,20.548 C52.327,20.8 51.988,21.136 51.688,21.556 L51.688,21.556 L51.562,21.556 L51.922,16.768 L57.43,16.768 L57.43,15.436 L50.698,15.436 L50.248,22.348 L51.526,22.528 C51.79,22.24 52.087,21.991 52.417,21.781 C52.747,21.571 53.2,21.466 53.776,21.466 C54.64,21.466 55.294,21.694 55.738,22.15 C56.182,22.606 56.404,23.248 56.404,24.076 L56.404,24.076 L56.404,24.256 C56.404,25.084 56.182,25.726 55.738,26.182 C55.294,26.638 54.64,26.866 53.776,26.866 C53.392,26.866 53.062,26.827 52.786,26.749 C52.51,26.671 52.267,26.56 52.057,26.416 C51.847,26.272 51.655,26.098 51.481,25.894 C51.307,25.69 51.142,25.462 50.986,25.21 L50.986,25.21 L49.852,26.074 C50.044,26.35 50.257,26.614 50.491,26.866 C50.725,27.118 50.998,27.346 51.31,27.55 C51.622,27.754 51.979,27.916 52.381,28.036 C52.783,28.156 53.248,28.216 53.776,28.216 Z" id="EUR5" fill="#FFFFFF" fill-rule="nonzero"></path>
        </g>
        <g id="note" transform="translate(441.000000, 33.000000)">
            <path d="M4.9685,63.156 C5.73116667,63.156 6.38116667,62.9718333 6.9185,62.6035 C7.45583333,62.2351667 7.8675,61.7303333 8.1535,61.089 L8.1535,61.089 L7.2825,60.543 C7.1005,61.037 6.8145,61.4335 6.4245,61.7325 C6.0345,62.0315 5.54916667,62.181 4.9685,62.181 C4.17983333,62.181 3.56883333,61.9166667 3.1355,61.388 C2.70216667,60.8593333 2.4855,60.127 2.4855,59.191 L2.4855,59.191 L2.4855,57.839 C2.4855,57.371 2.54183333,56.9485 2.6545,56.5715 C2.76716667,56.1945 2.92966667,55.8695 3.142,55.5965 C3.35433333,55.3235 3.61433333,55.1133333 3.922,54.966 C4.22966667,54.8186667 4.5785,54.745 4.9685,54.745 C5.53183333,54.745 5.99983333,54.8858333 6.3725,55.1675 C6.74516667,55.4491667 7.0225,55.824 7.2045,56.292 L7.2045,56.292 L8.0885,55.759 C7.8025,55.1263333 7.40166667,54.6366667 6.886,54.29 C6.37033333,53.9433333 5.73116667,53.77 4.9685,53.77 C3.81583333,53.77 2.91883333,54.1795 2.2775,54.9985 C1.63616667,55.8175 1.3155,56.9896667 1.3155,58.515 C1.3155,60.0403333 1.63616667,61.1951667 2.2775,61.9795 C2.91883333,62.7638333 3.81583333,63.156 4.9685,63.156 Z M12.2745,63.156 C12.7251667,63.156 13.1346667,63.0736667 13.503,62.909 C13.8713333,62.7443333 14.1898333,62.5081667 14.4585,62.2005 C14.7271667,61.8928333 14.9351667,61.5245 15.0825,61.0955 C15.2298333,60.6665 15.3035,60.1833333 15.3035,59.646 C15.3035,59.1173333 15.2298333,58.6363333 15.0825,58.203 C14.9351667,57.7696667 14.7271667,57.3991667 14.4585,57.0915 C14.1898333,56.7838333 13.8713333,56.5476667 13.503,56.383 C13.1346667,56.2183333 12.7251667,56.136 12.2745,56.136 C11.8238333,56.136 11.4121667,56.2183333 11.0395,56.383 C10.6668333,56.5476667 10.3483333,56.7838333 10.084,57.0915 C9.81966667,57.3991667 9.61383333,57.7696667 9.4665,58.203 C9.31916667,58.6363333 9.2455,59.1173333 9.2455,59.646 C9.2455,60.1833333 9.31916667,60.6665 9.4665,61.0955 C9.61383333,61.5245 9.81966667,61.8928333 10.084,62.2005 C10.3483333,62.5081667 10.6668333,62.7443333 11.0395,62.909 C11.4121667,63.0736667 11.8238333,63.156 12.2745,63.156 Z M12.2745,62.233 C11.7111667,62.233 11.2518333,62.0596667 10.8965,61.713 C10.5411667,61.3663333 10.3635,60.8376667 10.3635,60.127 L10.3635,60.127 L10.3635,59.165 C10.3635,58.4543333 10.5411667,57.9256667 10.8965,57.579 C11.2518333,57.2323333 11.7111667,57.059 12.2745,57.059 C12.8378333,57.059 13.2971667,57.2323333 13.6525,57.579 C14.0078333,57.9256667 14.1855,58.4543333 14.1855,59.165 L14.1855,59.165 L14.1855,60.127 C14.1855,60.8376667 14.0078333,61.3663333 13.6525,61.713 C13.2971667,62.0596667 12.8378333,62.233 12.2745,62.233 Z M18.0595,63 L18.0595,58.346 C18.0595,58.1293333 18.105,57.9408333 18.196,57.7805 C18.287,57.6201667 18.4061667,57.488 18.5535,57.384 C18.7008333,57.28 18.8698333,57.202 19.0605,57.15 C19.2511667,57.098 19.4505,57.072 19.6585,57.072 C20.1525,57.072 20.5165,57.2236667 20.7505,57.527 C20.9845,57.8303333 21.1015,58.281 21.1015,58.879 L21.1015,58.879 L21.1015,63 L22.1415,63 L22.1415,58.346 C22.1415,58.1293333 22.1848333,57.9408333 22.2715,57.7805 C22.3581667,57.6201667 22.4751667,57.488 22.6225,57.384 C22.7698333,57.28 22.9366667,57.202 23.123,57.15 C23.3093333,57.098 23.5065,57.072 23.7145,57.072 C24.2258333,57.072 24.5985,57.2236667 24.8325,57.527 C25.0665,57.8303333 25.1835,58.281 25.1835,58.879 L25.1835,58.879 L25.1835,63 L26.2235,63 L26.2235,58.697 C26.2235,57.8823333 26.0306667,57.2518333 25.645,56.8055 C25.2593333,56.3591667 24.7241667,56.136 24.0395,56.136 C23.4675,56.136 23.0146667,56.2725 22.681,56.5455 C22.3473333,56.8185 22.1198333,57.137 21.9985,57.501 L21.9985,57.501 L21.9725,57.501 C21.7905,57.0156667 21.5131667,56.6668333 21.1405,56.4545 C20.7678333,56.2421667 20.3605,56.136 19.9185,56.136 C19.6585,56.136 19.4331667,56.1685 19.2425,56.2335 C19.0518333,56.2985 18.885,56.3873333 18.742,56.5 C18.599,56.6126667 18.4776667,56.7448333 18.378,56.8965 C18.2783333,57.0481667 18.1895,57.2106667 18.1115,57.384 L18.1115,57.384 L18.0595,57.384 L18.0595,56.292 L17.0195,56.292 L17.0195,63 L18.0595,63 Z M29.4085,63 L29.4085,58.346 C29.4085,58.1293333 29.454,57.9408333 29.545,57.7805 C29.636,57.6201667 29.7551667,57.488 29.9025,57.384 C30.0498333,57.28 30.2188333,57.202 30.4095,57.15 C30.6001667,57.098 30.7995,57.072 31.0075,57.072 C31.5015,57.072 31.8655,57.2236667 32.0995,57.527 C32.3335,57.8303333 32.4505,58.281 32.4505,58.879 L32.4505,58.879 L32.4505,63 L33.4905,63 L33.4905,58.346 C33.4905,58.1293333 33.5338333,57.9408333 33.6205,57.7805 C33.7071667,57.6201667 33.8241667,57.488 33.9715,57.384 C34.1188333,57.28 34.2856667,57.202 34.472,57.15 C34.6583333,57.098 34.8555,57.072 35.0635,57.072 C35.5748333,57.072 35.9475,57.2236667 36.1815,57.527 C36.4155,57.8303333 36.5325,58.281 36.5325,58.879 L36.5325,58.879 L36.5325,63 L37.5725,63 L37.5725,58.697 C37.5725,57.8823333 37.3796667,57.2518333 36.994,56.8055 C36.6083333,56.3591667 36.0731667,56.136 35.3885,56.136 C34.8165,56.136 34.3636667,56.2725 34.03,56.5455 C33.6963333,56.8185 33.4688333,57.137 33.3475,57.501 L33.3475,57.501 L33.3215,57.501 C33.1395,57.0156667 32.8621667,56.6668333 32.4895,56.4545 C32.1168333,56.2421667 31.7095,56.136 31.2675,56.136 C31.0075,56.136 30.7821667,56.1685 30.5915,56.2335 C30.4008333,56.2985 30.234,56.3873333 30.091,56.5 C29.948,56.6126667 29.8266667,56.7448333 29.727,56.8965 C29.6273333,57.0481667 29.5385,57.2106667 29.4605,57.384 L29.4605,57.384 L29.4085,57.384 L29.4085,56.292 L28.3685,56.292 L28.3685,63 L29.4085,63 Z M40.2375,54.719 C40.4628333,54.719 40.6253333,54.6648333 40.725,54.5565 C40.8246667,54.4481667 40.8745,54.3073333 40.8745,54.134 L40.8745,54.134 L40.8745,53.965 C40.8745,53.7916667 40.8246667,53.6508333 40.725,53.5425 C40.6253333,53.4341667 40.4628333,53.38 40.2375,53.38 C40.0121667,53.38 39.8496667,53.4341667 39.75,53.5425 C39.6503333,53.6508333 39.6005,53.7916667 39.6005,53.965 L39.6005,53.965 L39.6005,54.134 C39.6005,54.3073333 39.6503333,54.4481667 39.75,54.5565 C39.8496667,54.6648333 40.0121667,54.719 40.2375,54.719 Z M40.7575,63 L40.7575,56.292 L39.7175,56.292 L39.7175,63 L40.7575,63 Z M44.9825,63.156 C45.7538333,63.156 46.3605,62.9696667 46.8025,62.597 C47.2445,62.2243333 47.4655,61.713 47.4655,61.063 C47.4655,60.5516667 47.3095,60.1378333 46.9975,59.8215 C46.6855,59.5051667 46.1568333,59.2906667 45.4115,59.178 L45.4115,59.178 L44.8915,59.1 C44.4755,59.0306667 44.157,58.9223333 43.936,58.775 C43.715,58.6276667 43.6045,58.3893333 43.6045,58.06 C43.6045,57.7393333 43.715,57.4858333 43.936,57.2995 C44.157,57.1131667 44.4841667,57.02 44.9175,57.02 C45.3508333,57.02 45.7105,57.1045 45.9965,57.2735 C46.2825,57.4425 46.4991667,57.631 46.6465,57.839 L46.6465,57.839 L47.3355,57.215 C47.0581667,56.877 46.7353333,56.6126667 46.367,56.422 C45.9986667,56.2313333 45.5415,56.136 44.9955,56.136 C44.6575,56.136 44.3411667,56.1771667 44.0465,56.2595 C43.7518333,56.3418333 43.4983333,56.4653333 43.286,56.63 C43.0736667,56.7946667 42.9068333,57.0005 42.7855,57.2475 C42.6641667,57.4945 42.6035,57.7826667 42.6035,58.112 C42.6035,58.424 42.6576667,58.6926667 42.766,58.918 C42.8743333,59.1433333 43.026,59.3318333 43.221,59.4835 C43.416,59.6351667 43.6435,59.7565 43.9035,59.8475 C44.1635,59.9385 44.4495,60.0056667 44.7615,60.049 L44.7615,60.049 L45.2945,60.127 C45.7365,60.1963333 46.042,60.3241667 46.211,60.5105 C46.38,60.6968333 46.4645,60.92 46.4645,61.18 C46.4645,61.5266667 46.341,61.7953333 46.094,61.986 C45.847,62.1766667 45.5025,62.272 45.0605,62.272 C44.6358333,62.272 44.2631667,62.1831667 43.9425,62.0055 C43.6218333,61.8278333 43.3315,61.5743333 43.0715,61.245 L43.0715,61.245 L42.3305,61.843 C42.6338333,62.2416667 42.9956667,62.5601667 43.416,62.7985 C43.8363333,63.0368333 44.3585,63.156 44.9825,63.156 Z M51.3135,63.156 C52.0848333,63.156 52.6915,62.9696667 53.1335,62.597 C53.5755,62.2243333 53.7965,61.713 53.7965,61.063 C53.7965,60.5516667 53.6405,60.1378333 53.3285,59.8215 C53.0165,59.5051667 52.4878333,59.2906667 51.7425,59.178 L51.7425,59.178 L51.2225,59.1 C50.8065,59.0306667 50.488,58.9223333 50.267,58.775 C50.046,58.6276667 49.9355,58.3893333 49.9355,58.06 C49.9355,57.7393333 50.046,57.4858333 50.267,57.2995 C50.488,57.1131667 50.8151667,57.02 51.2485,57.02 C51.6818333,57.02 52.0415,57.1045 52.3275,57.2735 C52.6135,57.4425 52.8301667,57.631 52.9775,57.839 L52.9775,57.839 L53.6665,57.215 C53.3891667,56.877 53.0663333,56.6126667 52.698,56.422 C52.3296667,56.2313333 51.8725,56.136 51.3265,56.136 C50.9885,56.136 50.6721667,56.1771667 50.3775,56.2595 C50.0828333,56.3418333 49.8293333,56.4653333 49.617,56.63 C49.4046667,56.7946667 49.2378333,57.0005 49.1165,57.2475 C48.9951667,57.4945 48.9345,57.7826667 48.9345,58.112 C48.9345,58.424 48.9886667,58.6926667 49.097,58.918 C49.2053333,59.1433333 49.357,59.3318333 49.552,59.4835 C49.747,59.6351667 49.9745,59.7565 50.2345,59.8475 C50.4945,59.9385 50.7805,60.0056667 51.0925,60.049 L51.0925,60.049 L51.6255,60.127 C52.0675,60.1963333 52.373,60.3241667 52.542,60.5105 C52.711,60.6968333 52.7955,60.92 52.7955,61.18 C52.7955,61.5266667 52.672,61.7953333 52.425,61.986 C52.178,62.1766667 51.8335,62.272 51.3915,62.272 C50.9668333,62.272 50.5941667,62.1831667 50.2735,62.0055 C49.9528333,61.8278333 49.6625,61.5743333 49.4025,61.245 L49.4025,61.245 L48.6615,61.843 C48.9648333,62.2416667 49.3266667,62.5601667 49.747,62.7985 C50.1673333,63.0368333 50.6895,63.156 51.3135,63.156 Z M56.1495,54.719 C56.3748333,54.719 56.5373333,54.6648333 56.637,54.5565 C56.7366667,54.4481667 56.7865,54.3073333 56.7865,54.134 L56.7865,54.134 L56.7865,53.965 C56.7865,53.7916667 56.7366667,53.6508333 56.637,53.5425 C56.5373333,53.4341667 56.3748333,53.38 56.1495,53.38 C55.9241667,53.38 55.7616667,53.4341667 55.662,53.5425 C55.5623333,53.6508333 55.5125,53.7916667 55.5125,53.965 L55.5125,53.965 L55.5125,54.134 C55.5125,54.3073333 55.5623333,54.4481667 55.662,54.5565 C55.7616667,54.6648333 55.9241667,54.719 56.1495,54.719 Z M56.6695,63 L56.6695,56.292 L55.6295,56.292 L55.6295,63 L56.6695,63 Z M61.4145,63.156 C61.8651667,63.156 62.2746667,63.0736667 62.643,62.909 C63.0113333,62.7443333 63.3298333,62.5081667 63.5985,62.2005 C63.8671667,61.8928333 64.0751667,61.5245 64.2225,61.0955 C64.3698333,60.6665 64.4435,60.1833333 64.4435,59.646 C64.4435,59.1173333 64.3698333,58.6363333 64.2225,58.203 C64.0751667,57.7696667 63.8671667,57.3991667 63.5985,57.0915 C63.3298333,56.7838333 63.0113333,56.5476667 62.643,56.383 C62.2746667,56.2183333 61.8651667,56.136 61.4145,56.136 C60.9638333,56.136 60.5521667,56.2183333 60.1795,56.383 C59.8068333,56.5476667 59.4883333,56.7838333 59.224,57.0915 C58.9596667,57.3991667 58.7538333,57.7696667 58.6065,58.203 C58.4591667,58.6363333 58.3855,59.1173333 58.3855,59.646 C58.3855,60.1833333 58.4591667,60.6665 58.6065,61.0955 C58.7538333,61.5245 58.9596667,61.8928333 59.224,62.2005 C59.4883333,62.5081667 59.8068333,62.7443333 60.1795,62.909 C60.5521667,63.0736667 60.9638333,63.156 61.4145,63.156 Z M61.4145,62.233 C60.8511667,62.233 60.3918333,62.0596667 60.0365,61.713 C59.6811667,61.3663333 59.5035,60.8376667 59.5035,60.127 L59.5035,60.127 L59.5035,59.165 C59.5035,58.4543333 59.6811667,57.9256667 60.0365,57.579 C60.3918333,57.2323333 60.8511667,57.059 61.4145,57.059 C61.9778333,57.059 62.4371667,57.2323333 62.7925,57.579 C63.1478333,57.9256667 63.3255,58.4543333 63.3255,59.165 L63.3255,59.165 L63.3255,60.127 C63.3255,60.8376667 63.1478333,61.3663333 62.7925,61.713 C62.4371667,62.0596667 61.9778333,62.233 61.4145,62.233 Z M67.1995,63 L67.1995,58.346 C67.1995,58.1293333 67.245,57.9408333 67.336,57.7805 C67.427,57.6201667 67.5505,57.488 67.7065,57.384 C67.8625,57.28 68.038,57.202 68.233,57.15 C68.428,57.098 68.6295,57.072 68.8375,57.072 C69.8515,57.072 70.3585,57.6743333 70.3585,58.879 L70.3585,58.879 L70.3585,63 L71.3985,63 L71.3985,58.697 C71.3985,57.8823333 71.197,57.2518333 70.794,56.8055 C70.391,56.3591667 69.8428333,56.136 69.1495,56.136 C68.6468333,56.136 68.246,56.2486667 67.947,56.474 C67.648,56.6993333 67.4161667,57.0026667 67.2515,57.384 L67.2515,57.384 L67.1995,57.384 L67.1995,56.292 L66.1595,56.292 L66.1595,63 L67.1995,63 Z" id="Commission" fill="#2A3052" fill-rule="nonzero"></path>
            <path d="M36.5,0 C37.8807119,0 39,1.11928813 39,2.5 C39,3.70932545 38.1413382,4.71809967 37.0004345,4.94990271 L37,50 L36,50 L36.000574,4.9501074 C34.8591679,4.7186941 34,3.70968176 34,2.5 C34,1.11928813 35.1192881,0 36.5,0 Z" id="Combined-Shape" fill="#E98024"></path>
        </g>
        <path d="M410.792,21.312 L410.792,18.48 L399.608,18.48 L399.608,21.312 L410.792,21.312 Z M410.792,26.88 L410.792,24.048 L399.608,24.048 L399.608,26.88 L410.792,26.88 Z" id="=" fill="#E98024" fill-rule="nonzero"></path>
        <g id="box-2" transform="translate(311.000000, 0.000000)">
            <rect id="leg-2" stroke="#DEDEDE" stroke-width="2" fill="#F2F2F2" x="39" y="41" width="7" height="13"></rect>
            <rect id="leg-1" stroke="#DEDEDE" stroke-width="2" fill="#F2F2F2" x="11" y="41" width="7" height="13"></rect>
            <rect id="back" stroke="#DEDEDE" stroke-width="2" fill="#F2F2F2" x="1" y="1" width="55" height="41"></rect>
            <path d="M19.846,28 L19.846,26.668 L16.606,26.668 L16.606,15.436 L14.248,15.436 L10.918,18.55 L11.8,19.504 L14.968,16.552 L15.094,16.552 L15.094,26.668 L11.584,26.668 L11.584,28 L19.846,28 Z M29.386,28 L29.386,26.74 L28.018,26.74 L28.018,14.68 L26.578,14.68 L26.578,26.506 C26.578,26.938 26.707,27.295 26.965,27.577 C27.223,27.859 27.604,28 28.108,28 L28.108,28 L29.386,28 Z M34.984,28.216 C35.608,28.216 36.175,28.102 36.685,27.874 C37.195,27.646 37.636,27.319 38.008,26.893 C38.38,26.467 38.668,25.957 38.872,25.363 C39.076,24.769 39.178,24.1 39.178,23.356 C39.178,22.624 39.076,21.958 38.872,21.358 C38.668,20.758 38.38,20.245 38.008,19.819 C37.636,19.393 37.195,19.066 36.685,18.838 C36.175,18.61 35.608,18.496 34.984,18.496 C34.36,18.496 33.79,18.61 33.274,18.838 C32.758,19.066 32.317,19.393 31.951,19.819 C31.585,20.245 31.3,20.758 31.096,21.358 C30.892,21.958 30.79,22.624 30.79,23.356 C30.79,24.1 30.892,24.769 31.096,25.363 C31.3,25.957 31.585,26.467 31.951,26.893 C32.317,27.319 32.758,27.646 33.274,27.874 C33.79,28.102 34.36,28.216 34.984,28.216 Z M34.984,26.938 C34.204,26.938 33.568,26.698 33.076,26.218 C32.584,25.738 32.338,25.006 32.338,24.022 L32.338,24.022 L32.338,22.69 C32.338,21.706 32.584,20.974 33.076,20.494 C33.568,20.014 34.204,19.774 34.984,19.774 C35.764,19.774 36.4,20.014 36.892,20.494 C37.384,20.974 37.63,21.706 37.63,22.69 L37.63,22.69 L37.63,24.022 C37.63,25.006 37.384,25.738 36.892,26.218 C36.4,26.698 35.764,26.938 34.984,26.938 Z M45.406,28 L45.406,26.74 L43.516,26.74 L43.516,19.972 L45.55,19.972 L45.55,18.712 L43.516,18.712 L43.516,16.138 L42.22,16.138 L42.22,17.866 C42.22,18.178 42.163,18.397 42.049,18.523 C41.935,18.649 41.722,18.712 41.41,18.712 L41.41,18.712 L40.546,18.712 L40.546,19.972 L42.076,19.972 L42.076,26.47 C42.076,26.926 42.205,27.295 42.463,27.577 C42.721,27.859 43.102,28 43.606,28 L43.606,28 L45.406,28 Z" id="1lot" fill="#2A3052" fill-rule="nonzero"></path>
        </g>
        <g id="note" transform="translate(317.000000, 33.000000)">
            <path d="M4.8005,63 L7.8555,53.926 L6.7245,53.926 L5.2165,58.502 L4.1895,61.908 L4.1245,61.908 L3.1235,58.502 L1.6285,53.926 L0.4585,53.926 L3.4745,63 L4.8005,63 Z M11.7555,63.156 C12.2061667,63.156 12.6156667,63.0736667 12.984,62.909 C13.3523333,62.7443333 13.6708333,62.5081667 13.9395,62.2005 C14.2081667,61.8928333 14.4161667,61.5245 14.5635,61.0955 C14.7108333,60.6665 14.7845,60.1833333 14.7845,59.646 C14.7845,59.1173333 14.7108333,58.6363333 14.5635,58.203 C14.4161667,57.7696667 14.2081667,57.3991667 13.9395,57.0915 C13.6708333,56.7838333 13.3523333,56.5476667 12.984,56.383 C12.6156667,56.2183333 12.2061667,56.136 11.7555,56.136 C11.3048333,56.136 10.8931667,56.2183333 10.5205,56.383 C10.1478333,56.5476667 9.82933333,56.7838333 9.565,57.0915 C9.30066667,57.3991667 9.09483333,57.7696667 8.9475,58.203 C8.80016667,58.6363333 8.7265,59.1173333 8.7265,59.646 C8.7265,60.1833333 8.80016667,60.6665 8.9475,61.0955 C9.09483333,61.5245 9.30066667,61.8928333 9.565,62.2005 C9.82933333,62.5081667 10.1478333,62.7443333 10.5205,62.909 C10.8931667,63.0736667 11.3048333,63.156 11.7555,63.156 Z M11.7555,62.233 C11.1921667,62.233 10.7328333,62.0596667 10.3775,61.713 C10.0221667,61.3663333 9.8445,60.8376667 9.8445,60.127 L9.8445,60.127 L9.8445,59.165 C9.8445,58.4543333 10.0221667,57.9256667 10.3775,57.579 C10.7328333,57.2323333 11.1921667,57.059 11.7555,57.059 C12.3188333,57.059 12.7781667,57.2323333 13.1335,57.579 C13.4888333,57.9256667 13.6665,58.4543333 13.6665,59.165 L13.6665,59.165 L13.6665,60.127 C13.6665,60.8376667 13.4888333,61.3663333 13.1335,61.713 C12.7781667,62.0596667 12.3188333,62.233 11.7555,62.233 Z M18.5285,63 L18.5285,62.09 L17.5405,62.09 L17.5405,53.38 L16.5005,53.38 L16.5005,61.921 C16.5005,62.233 16.5936667,62.4908333 16.78,62.6945 C16.9663333,62.8981667 17.2415,63 17.6055,63 L17.6055,63 L18.5285,63 Z M22.2335,63.156 C22.5108333,63.156 22.7535,63.1213333 22.9615,63.052 C23.1695,62.9826667 23.3471667,62.8895 23.4945,62.7725 C23.6418333,62.6555 23.7653333,62.5211667 23.865,62.3695 C23.9646667,62.2178333 24.0491667,62.064 24.1185,61.908 L24.1185,61.908 L24.1705,61.908 L24.1705,63 L25.2105,63 L25.2105,56.292 L24.1705,56.292 L24.1705,60.933 C24.1705,61.1583333 24.125,61.3511667 24.034,61.5115 C23.943,61.6718333 23.8216667,61.804 23.67,61.908 C23.5183333,62.012 23.345,62.09 23.15,62.142 C22.955,62.194 22.7535,62.22 22.5455,62.22 C21.5228333,62.22 21.0115,61.6176667 21.0115,60.413 L21.0115,60.413 L21.0115,56.292 L19.9715,56.292 L19.9715,60.595 C19.9715,61.4096667 20.1751667,62.0401667 20.5825,62.4865 C20.9898333,62.9328333 21.5401667,63.156 22.2335,63.156 Z M28.4605,63 L28.4605,58.346 C28.4605,58.1293333 28.506,57.9408333 28.597,57.7805 C28.688,57.6201667 28.8071667,57.488 28.9545,57.384 C29.1018333,57.28 29.2708333,57.202 29.4615,57.15 C29.6521667,57.098 29.8515,57.072 30.0595,57.072 C30.5535,57.072 30.9175,57.2236667 31.1515,57.527 C31.3855,57.8303333 31.5025,58.281 31.5025,58.879 L31.5025,58.879 L31.5025,63 L32.5425,63 L32.5425,58.346 C32.5425,58.1293333 32.5858333,57.9408333 32.6725,57.7805 C32.7591667,57.6201667 32.8761667,57.488 33.0235,57.384 C33.1708333,57.28 33.3376667,57.202 33.524,57.15 C33.7103333,57.098 33.9075,57.072 34.1155,57.072 C34.6268333,57.072 34.9995,57.2236667 35.2335,57.527 C35.4675,57.8303333 35.5845,58.281 35.5845,58.879 L35.5845,58.879 L35.5845,63 L36.6245,63 L36.6245,58.697 C36.6245,57.8823333 36.4316667,57.2518333 36.046,56.8055 C35.6603333,56.3591667 35.1251667,56.136 34.4405,56.136 C33.8685,56.136 33.4156667,56.2725 33.082,56.5455 C32.7483333,56.8185 32.5208333,57.137 32.3995,57.501 L32.3995,57.501 L32.3735,57.501 C32.1915,57.0156667 31.9141667,56.6668333 31.5415,56.4545 C31.1688333,56.2421667 30.7615,56.136 30.3195,56.136 C30.0595,56.136 29.8341667,56.1685 29.6435,56.2335 C29.4528333,56.2985 29.286,56.3873333 29.143,56.5 C29,56.6126667 28.8786667,56.7448333 28.779,56.8965 C28.6793333,57.0481667 28.5905,57.2106667 28.5125,57.384 L28.5125,57.384 L28.4605,57.384 L28.4605,56.292 L27.4205,56.292 L27.4205,63 L28.4605,63 Z M41.2915,63.156 C41.9241667,63.156 42.4701667,63.0151667 42.9295,62.7335 C43.3888333,62.4518333 43.7268333,62.0813333 43.9435,61.622 L43.9435,61.622 L43.2025,61.089 C43.0291667,61.4616667 42.7843333,61.7476667 42.468,61.947 C42.1516667,62.1463333 41.7811667,62.246 41.3565,62.246 C41.0445,62.246 40.765,62.194 40.518,62.09 C40.271,61.986 40.063,61.843 39.894,61.661 C39.725,61.479 39.595,61.2645 39.504,61.0175 C39.413,60.7705 39.3675,60.504 39.3675,60.218 L39.3675,60.218 L39.3675,59.906 L44.1905,59.906 L44.1905,59.412 C44.1905,58.9353333 44.1233333,58.4976667 43.989,58.099 C43.8546667,57.7003333 43.6618333,57.3558333 43.4105,57.0655 C43.1591667,56.7751667 42.8558333,56.5476667 42.5005,56.383 C42.1451667,56.2183333 41.7421667,56.136 41.2915,56.136 C40.8321667,56.136 40.4183333,56.2183333 40.05,56.383 C39.6816667,56.5476667 39.3653333,56.7838333 39.101,57.0915 C38.8366667,57.3991667 38.633,57.7696667 38.49,58.203 C38.347,58.6363333 38.2755,59.1173333 38.2755,59.646 C38.2755,60.1833333 38.347,60.6665 38.49,61.0955 C38.633,61.5245 38.8366667,61.8928333 39.101,62.2005 C39.3653333,62.5081667 39.6816667,62.7443333 40.05,62.909 C40.4183333,63.0736667 40.8321667,63.156 41.2915,63.156 Z M43.0725,59.126 L39.3675,59.126 L39.3675,59.035 C39.3675,58.7403333 39.4151667,58.4695 39.5105,58.2225 C39.6058333,57.9755 39.738,57.761 39.907,57.579 C40.076,57.397 40.2775,57.2561667 40.5115,57.1565 C40.7455,57.0568333 41.0055,57.007 41.2915,57.007 C41.8288333,57.007 42.26,57.1868333 42.585,57.5465 C42.91,57.9061667 43.0725,58.385 43.0725,58.983 L43.0725,58.983 L43.0725,59.126 Z" id="Volume" fill="#2A3052" fill-rule="nonzero"></path>
            <path d="M22.5,0 C23.8807119,0 25,1.11928813 25,2.5 C25,3.70932545 24.1413382,4.71809967 23.0004345,4.94990271 L23,50 L22,50 L22.000574,4.9501074 C20.8591679,4.7186941 20,3.70968176 20,2.5 C20,1.11928813 21.1192881,0 22.5,0 Z" id="Combined-Shape" fill="#E98024"></path>
        </g>
        <polygon id="x" fill="#E98024" fill-rule="nonzero" points="271.128 30 273.456 25.896 273.552 25.896 275.976 30 280.008 30 275.808 23.712 279.984 17.4 276.24 17.4 273.96 21.36 273.864 21.36 271.512 17.4 267.48 17.4 271.584 23.592 267.432 30"></polygon>
        <g id="box-1" transform="translate(167.000000, 0.000000)">
            <rect id="leg-2" stroke="#DEDEDE" stroke-width="2" fill="#F2F2F2" x="52" y="41" width="7" height="13"></rect>
            <rect id="leg-1" stroke="#DEDEDE" stroke-width="2" fill="#F2F2F2" x="11" y="41" width="7" height="13"></rect>
            <rect id="back" stroke="#DEDEDE" stroke-width="2" fill="#F2F2F2" x="1" y="1" width="68" height="41"></rect>
            <path d="M19.342,28 L19.342,26.668 L13.186,26.668 L13.186,22.312 L18.982,22.312 L18.982,20.98 L13.186,20.98 L13.186,16.768 L19.342,16.768 L19.342,15.436 L11.674,15.436 L11.674,28 L19.342,28 Z M26.542,28.216 C27.382,28.216 28.093,28.108 28.675,27.892 C29.257,27.676 29.728,27.346 30.088,26.902 C30.448,26.458 30.709,25.9 30.871,25.228 C31.033,24.556 31.114,23.764 31.114,22.852 L31.114,22.852 L31.114,15.436 L29.602,15.436 L29.602,23.212 C29.602,24.412 29.38,25.321 28.936,25.939 C28.492,26.557 27.712,26.866 26.596,26.866 C25.48,26.866 24.7,26.557 24.256,25.939 C23.812,25.321 23.59,24.412 23.59,23.212 L23.59,23.212 L23.59,15.436 L22.078,15.436 L22.078,22.852 C22.078,23.764 22.153,24.556 22.303,25.228 C22.453,25.9 22.702,26.458 23.05,26.902 C23.398,27.346 23.857,27.676 24.427,27.892 C24.997,28.108 25.702,28.216 26.542,28.216 Z M35.884,28 L35.884,22.6 L38.818,22.6 L41.536,28 L43.246,28 L40.366,22.456 C41.194,22.264 41.821,21.871 42.247,21.277 C42.673,20.683 42.886,19.924 42.886,19 C42.886,17.848 42.577,16.966 41.959,16.354 C41.341,15.742 40.48,15.436 39.376,15.436 L39.376,15.436 L34.372,15.436 L34.372,28 L35.884,28 Z M39.376,21.304 L35.884,21.304 L35.884,16.768 L39.376,16.768 C39.976,16.768 40.441,16.924 40.771,17.236 C41.101,17.548 41.266,17.992 41.266,18.568 L41.266,18.568 L41.266,19.504 C41.266,20.08 41.101,20.524 40.771,20.836 C40.441,21.148 39.976,21.304 39.376,21.304 L39.376,21.304 Z M53.776,28.216 C54.436,28.216 55.027,28.114 55.549,27.91 C56.071,27.706 56.515,27.421 56.881,27.055 C57.247,26.689 57.526,26.251 57.718,25.741 C57.91,25.231 58.006,24.67 58.006,24.058 C58.006,23.446 57.913,22.9 57.727,22.42 C57.541,21.94 57.28,21.535 56.944,21.205 C56.608,20.875 56.212,20.62 55.756,20.44 C55.3,20.26 54.802,20.17 54.262,20.17 C53.602,20.17 53.083,20.296 52.705,20.548 C52.327,20.8 51.988,21.136 51.688,21.556 L51.688,21.556 L51.562,21.556 L51.922,16.768 L57.43,16.768 L57.43,15.436 L50.698,15.436 L50.248,22.348 L51.526,22.528 C51.79,22.24 52.087,21.991 52.417,21.781 C52.747,21.571 53.2,21.466 53.776,21.466 C54.64,21.466 55.294,21.694 55.738,22.15 C56.182,22.606 56.404,23.248 56.404,24.076 L56.404,24.076 L56.404,24.256 C56.404,25.084 56.182,25.726 55.738,26.182 C55.294,26.638 54.64,26.866 53.776,26.866 C53.392,26.866 53.062,26.827 52.786,26.749 C52.51,26.671 52.267,26.56 52.057,26.416 C51.847,26.272 51.655,26.098 51.481,25.894 C51.307,25.69 51.142,25.462 50.986,25.21 L50.986,25.21 L49.852,26.074 C50.044,26.35 50.257,26.614 50.491,26.866 C50.725,27.118 50.998,27.346 51.31,27.55 C51.622,27.754 51.979,27.916 52.381,28.036 C52.783,28.156 53.248,28.216 53.776,28.216 Z" id="EUR5" fill="#2A3052" fill-rule="nonzero"></path>
        </g>
        <g id="note" transform="translate(152.000000, 33.000000)">
            <path d="M4.728,63.156 C5.49066667,63.156 6.14066667,62.9718333 6.678,62.6035 C7.21533333,62.2351667 7.627,61.7303333 7.913,61.089 L7.913,61.089 L7.042,60.543 C6.86,61.037 6.574,61.4335 6.184,61.7325 C5.794,62.0315 5.30866667,62.181 4.728,62.181 C3.93933333,62.181 3.32833333,61.9166667 2.895,61.388 C2.46166667,60.8593333 2.245,60.127 2.245,59.191 L2.245,59.191 L2.245,57.839 C2.245,57.371 2.30133333,56.9485 2.414,56.5715 C2.52666667,56.1945 2.68916667,55.8695 2.9015,55.5965 C3.11383333,55.3235 3.37383333,55.1133333 3.6815,54.966 C3.98916667,54.8186667 4.338,54.745 4.728,54.745 C5.29133333,54.745 5.75933333,54.8858333 6.132,55.1675 C6.50466667,55.4491667 6.782,55.824 6.964,56.292 L6.964,56.292 L7.848,55.759 C7.562,55.1263333 7.16116667,54.6366667 6.6455,54.29 C6.12983333,53.9433333 5.49066667,53.77 4.728,53.77 C3.57533333,53.77 2.67833333,54.1795 2.037,54.9985 C1.39566667,55.8175 1.075,56.9896667 1.075,58.515 C1.075,60.0403333 1.39566667,61.1951667 2.037,61.9795 C2.67833333,62.7638333 3.57533333,63.156 4.728,63.156 Z M12.034,63.156 C12.4846667,63.156 12.8941667,63.0736667 13.2625,62.909 C13.6308333,62.7443333 13.9493333,62.5081667 14.218,62.2005 C14.4866667,61.8928333 14.6946667,61.5245 14.842,61.0955 C14.9893333,60.6665 15.063,60.1833333 15.063,59.646 C15.063,59.1173333 14.9893333,58.6363333 14.842,58.203 C14.6946667,57.7696667 14.4866667,57.3991667 14.218,57.0915 C13.9493333,56.7838333 13.6308333,56.5476667 13.2625,56.383 C12.8941667,56.2183333 12.4846667,56.136 12.034,56.136 C11.5833333,56.136 11.1716667,56.2183333 10.799,56.383 C10.4263333,56.5476667 10.1078333,56.7838333 9.8435,57.0915 C9.57916667,57.3991667 9.37333333,57.7696667 9.226,58.203 C9.07866667,58.6363333 9.005,59.1173333 9.005,59.646 C9.005,60.1833333 9.07866667,60.6665 9.226,61.0955 C9.37333333,61.5245 9.57916667,61.8928333 9.8435,62.2005 C10.1078333,62.5081667 10.4263333,62.7443333 10.799,62.909 C11.1716667,63.0736667 11.5833333,63.156 12.034,63.156 Z M12.034,62.233 C11.4706667,62.233 11.0113333,62.0596667 10.656,61.713 C10.3006667,61.3663333 10.123,60.8376667 10.123,60.127 L10.123,60.127 L10.123,59.165 C10.123,58.4543333 10.3006667,57.9256667 10.656,57.579 C11.0113333,57.2323333 11.4706667,57.059 12.034,57.059 C12.5973333,57.059 13.0566667,57.2323333 13.412,57.579 C13.7673333,57.9256667 13.945,58.4543333 13.945,59.165 L13.945,59.165 L13.945,60.127 C13.945,60.8376667 13.7673333,61.3663333 13.412,61.713 C13.0566667,62.0596667 12.5973333,62.233 12.034,62.233 Z M17.819,63 L17.819,58.346 C17.819,58.1293333 17.8645,57.9408333 17.9555,57.7805 C18.0465,57.6201667 18.1656667,57.488 18.313,57.384 C18.4603333,57.28 18.6293333,57.202 18.82,57.15 C19.0106667,57.098 19.21,57.072 19.418,57.072 C19.912,57.072 20.276,57.2236667 20.51,57.527 C20.744,57.8303333 20.861,58.281 20.861,58.879 L20.861,58.879 L20.861,63 L21.901,63 L21.901,58.346 C21.901,58.1293333 21.9443333,57.9408333 22.031,57.7805 C22.1176667,57.6201667 22.2346667,57.488 22.382,57.384 C22.5293333,57.28 22.6961667,57.202 22.8825,57.15 C23.0688333,57.098 23.266,57.072 23.474,57.072 C23.9853333,57.072 24.358,57.2236667 24.592,57.527 C24.826,57.8303333 24.943,58.281 24.943,58.879 L24.943,58.879 L24.943,63 L25.983,63 L25.983,58.697 C25.983,57.8823333 25.7901667,57.2518333 25.4045,56.8055 C25.0188333,56.3591667 24.4836667,56.136 23.799,56.136 C23.227,56.136 22.7741667,56.2725 22.4405,56.5455 C22.1068333,56.8185 21.8793333,57.137 21.758,57.501 L21.758,57.501 L21.732,57.501 C21.55,57.0156667 21.2726667,56.6668333 20.9,56.4545 C20.5273333,56.2421667 20.12,56.136 19.678,56.136 C19.418,56.136 19.1926667,56.1685 19.002,56.2335 C18.8113333,56.2985 18.6445,56.3873333 18.5015,56.5 C18.3585,56.6126667 18.2371667,56.7448333 18.1375,56.8965 C18.0378333,57.0481667 17.949,57.2106667 17.871,57.384 L17.871,57.384 L17.819,57.384 L17.819,56.292 L16.779,56.292 L16.779,63 L17.819,63 Z M29.168,63 L29.168,58.346 C29.168,58.1293333 29.2135,57.9408333 29.3045,57.7805 C29.3955,57.6201667 29.5146667,57.488 29.662,57.384 C29.8093333,57.28 29.9783333,57.202 30.169,57.15 C30.3596667,57.098 30.559,57.072 30.767,57.072 C31.261,57.072 31.625,57.2236667 31.859,57.527 C32.093,57.8303333 32.21,58.281 32.21,58.879 L32.21,58.879 L32.21,63 L33.25,63 L33.25,58.346 C33.25,58.1293333 33.2933333,57.9408333 33.38,57.7805 C33.4666667,57.6201667 33.5836667,57.488 33.731,57.384 C33.8783333,57.28 34.0451667,57.202 34.2315,57.15 C34.4178333,57.098 34.615,57.072 34.823,57.072 C35.3343333,57.072 35.707,57.2236667 35.941,57.527 C36.175,57.8303333 36.292,58.281 36.292,58.879 L36.292,58.879 L36.292,63 L37.332,63 L37.332,58.697 C37.332,57.8823333 37.1391667,57.2518333 36.7535,56.8055 C36.3678333,56.3591667 35.8326667,56.136 35.148,56.136 C34.576,56.136 34.1231667,56.2725 33.7895,56.5455 C33.4558333,56.8185 33.2283333,57.137 33.107,57.501 L33.107,57.501 L33.081,57.501 C32.899,57.0156667 32.6216667,56.6668333 32.249,56.4545 C31.8763333,56.2421667 31.469,56.136 31.027,56.136 C30.767,56.136 30.5416667,56.1685 30.351,56.2335 C30.1603333,56.2985 29.9935,56.3873333 29.8505,56.5 C29.7075,56.6126667 29.5861667,56.7448333 29.4865,56.8965 C29.3868333,57.0481667 29.298,57.2106667 29.22,57.384 L29.22,57.384 L29.168,57.384 L29.168,56.292 L28.128,56.292 L28.128,63 L29.168,63 Z M39.997,54.719 C40.2223333,54.719 40.3848333,54.6648333 40.4845,54.5565 C40.5841667,54.4481667 40.634,54.3073333 40.634,54.134 L40.634,54.134 L40.634,53.965 C40.634,53.7916667 40.5841667,53.6508333 40.4845,53.5425 C40.3848333,53.4341667 40.2223333,53.38 39.997,53.38 C39.7716667,53.38 39.6091667,53.4341667 39.5095,53.5425 C39.4098333,53.6508333 39.36,53.7916667 39.36,53.965 L39.36,53.965 L39.36,54.134 C39.36,54.3073333 39.4098333,54.4481667 39.5095,54.5565 C39.6091667,54.6648333 39.7716667,54.719 39.997,54.719 Z M40.517,63 L40.517,56.292 L39.477,56.292 L39.477,63 L40.517,63 Z M44.742,63.156 C45.5133333,63.156 46.12,62.9696667 46.562,62.597 C47.004,62.2243333 47.225,61.713 47.225,61.063 C47.225,60.5516667 47.069,60.1378333 46.757,59.8215 C46.445,59.5051667 45.9163333,59.2906667 45.171,59.178 L45.171,59.178 L44.651,59.1 C44.235,59.0306667 43.9165,58.9223333 43.6955,58.775 C43.4745,58.6276667 43.364,58.3893333 43.364,58.06 C43.364,57.7393333 43.4745,57.4858333 43.6955,57.2995 C43.9165,57.1131667 44.2436667,57.02 44.677,57.02 C45.1103333,57.02 45.47,57.1045 45.756,57.2735 C46.042,57.4425 46.2586667,57.631 46.406,57.839 L46.406,57.839 L47.095,57.215 C46.8176667,56.877 46.4948333,56.6126667 46.1265,56.422 C45.7581667,56.2313333 45.301,56.136 44.755,56.136 C44.417,56.136 44.1006667,56.1771667 43.806,56.2595 C43.5113333,56.3418333 43.2578333,56.4653333 43.0455,56.63 C42.8331667,56.7946667 42.6663333,57.0005 42.545,57.2475 C42.4236667,57.4945 42.363,57.7826667 42.363,58.112 C42.363,58.424 42.4171667,58.6926667 42.5255,58.918 C42.6338333,59.1433333 42.7855,59.3318333 42.9805,59.4835 C43.1755,59.6351667 43.403,59.7565 43.663,59.8475 C43.923,59.9385 44.209,60.0056667 44.521,60.049 L44.521,60.049 L45.054,60.127 C45.496,60.1963333 45.8015,60.3241667 45.9705,60.5105 C46.1395,60.6968333 46.224,60.92 46.224,61.18 C46.224,61.5266667 46.1005,61.7953333 45.8535,61.986 C45.6065,62.1766667 45.262,62.272 44.82,62.272 C44.3953333,62.272 44.0226667,62.1831667 43.702,62.0055 C43.3813333,61.8278333 43.091,61.5743333 42.831,61.245 L42.831,61.245 L42.09,61.843 C42.3933333,62.2416667 42.7551667,62.5601667 43.1755,62.7985 C43.5958333,63.0368333 44.118,63.156 44.742,63.156 Z M51.073,63.156 C51.8443333,63.156 52.451,62.9696667 52.893,62.597 C53.335,62.2243333 53.556,61.713 53.556,61.063 C53.556,60.5516667 53.4,60.1378333 53.088,59.8215 C52.776,59.5051667 52.2473333,59.2906667 51.502,59.178 L51.502,59.178 L50.982,59.1 C50.566,59.0306667 50.2475,58.9223333 50.0265,58.775 C49.8055,58.6276667 49.695,58.3893333 49.695,58.06 C49.695,57.7393333 49.8055,57.4858333 50.0265,57.2995 C50.2475,57.1131667 50.5746667,57.02 51.008,57.02 C51.4413333,57.02 51.801,57.1045 52.087,57.2735 C52.373,57.4425 52.5896667,57.631 52.737,57.839 L52.737,57.839 L53.426,57.215 C53.1486667,56.877 52.8258333,56.6126667 52.4575,56.422 C52.0891667,56.2313333 51.632,56.136 51.086,56.136 C50.748,56.136 50.4316667,56.1771667 50.137,56.2595 C49.8423333,56.3418333 49.5888333,56.4653333 49.3765,56.63 C49.1641667,56.7946667 48.9973333,57.0005 48.876,57.2475 C48.7546667,57.4945 48.694,57.7826667 48.694,58.112 C48.694,58.424 48.7481667,58.6926667 48.8565,58.918 C48.9648333,59.1433333 49.1165,59.3318333 49.3115,59.4835 C49.5065,59.6351667 49.734,59.7565 49.994,59.8475 C50.254,59.9385 50.54,60.0056667 50.852,60.049 L50.852,60.049 L51.385,60.127 C51.827,60.1963333 52.1325,60.3241667 52.3015,60.5105 C52.4705,60.6968333 52.555,60.92 52.555,61.18 C52.555,61.5266667 52.4315,61.7953333 52.1845,61.986 C51.9375,62.1766667 51.593,62.272 51.151,62.272 C50.7263333,62.272 50.3536667,62.1831667 50.033,62.0055 C49.7123333,61.8278333 49.422,61.5743333 49.162,61.245 L49.162,61.245 L48.421,61.843 C48.7243333,62.2416667 49.0861667,62.5601667 49.5065,62.7985 C49.9268333,63.0368333 50.449,63.156 51.073,63.156 Z M55.909,54.719 C56.1343333,54.719 56.2968333,54.6648333 56.3965,54.5565 C56.4961667,54.4481667 56.546,54.3073333 56.546,54.134 L56.546,54.134 L56.546,53.965 C56.546,53.7916667 56.4961667,53.6508333 56.3965,53.5425 C56.2968333,53.4341667 56.1343333,53.38 55.909,53.38 C55.6836667,53.38 55.5211667,53.4341667 55.4215,53.5425 C55.3218333,53.6508333 55.272,53.7916667 55.272,53.965 L55.272,53.965 L55.272,54.134 C55.272,54.3073333 55.3218333,54.4481667 55.4215,54.5565 C55.5211667,54.6648333 55.6836667,54.719 55.909,54.719 Z M56.429,63 L56.429,56.292 L55.389,56.292 L55.389,63 L56.429,63 Z M61.174,63.156 C61.6246667,63.156 62.0341667,63.0736667 62.4025,62.909 C62.7708333,62.7443333 63.0893333,62.5081667 63.358,62.2005 C63.6266667,61.8928333 63.8346667,61.5245 63.982,61.0955 C64.1293333,60.6665 64.203,60.1833333 64.203,59.646 C64.203,59.1173333 64.1293333,58.6363333 63.982,58.203 C63.8346667,57.7696667 63.6266667,57.3991667 63.358,57.0915 C63.0893333,56.7838333 62.7708333,56.5476667 62.4025,56.383 C62.0341667,56.2183333 61.6246667,56.136 61.174,56.136 C60.7233333,56.136 60.3116667,56.2183333 59.939,56.383 C59.5663333,56.5476667 59.2478333,56.7838333 58.9835,57.0915 C58.7191667,57.3991667 58.5133333,57.7696667 58.366,58.203 C58.2186667,58.6363333 58.145,59.1173333 58.145,59.646 C58.145,60.1833333 58.2186667,60.6665 58.366,61.0955 C58.5133333,61.5245 58.7191667,61.8928333 58.9835,62.2005 C59.2478333,62.5081667 59.5663333,62.7443333 59.939,62.909 C60.3116667,63.0736667 60.7233333,63.156 61.174,63.156 Z M61.174,62.233 C60.6106667,62.233 60.1513333,62.0596667 59.796,61.713 C59.4406667,61.3663333 59.263,60.8376667 59.263,60.127 L59.263,60.127 L59.263,59.165 C59.263,58.4543333 59.4406667,57.9256667 59.796,57.579 C60.1513333,57.2323333 60.6106667,57.059 61.174,57.059 C61.7373333,57.059 62.1966667,57.2323333 62.552,57.579 C62.9073333,57.9256667 63.085,58.4543333 63.085,59.165 L63.085,59.165 L63.085,60.127 C63.085,60.8376667 62.9073333,61.3663333 62.552,61.713 C62.1966667,62.0596667 61.7373333,62.233 61.174,62.233 Z M66.959,63 L66.959,58.346 C66.959,58.1293333 67.0045,57.9408333 67.0955,57.7805 C67.1865,57.6201667 67.31,57.488 67.466,57.384 C67.622,57.28 67.7975,57.202 67.9925,57.15 C68.1875,57.098 68.389,57.072 68.597,57.072 C69.611,57.072 70.118,57.6743333 70.118,58.879 L70.118,58.879 L70.118,63 L71.158,63 L71.158,58.697 C71.158,57.8823333 70.9565,57.2518333 70.5535,56.8055 C70.1505,56.3591667 69.6023333,56.136 68.909,56.136 C68.4063333,56.136 68.0055,56.2486667 67.7065,56.474 C67.4075,56.6993333 67.1756667,57.0026667 67.011,57.384 L67.011,57.384 L66.959,57.384 L66.959,56.292 L65.919,56.292 L65.919,63 L66.959,63 Z M77.411,63 L77.411,58.45 C77.411,58.1293333 77.5691667,57.8628333 77.8855,57.6505 C78.2018333,57.4381667 78.6416667,57.332 79.205,57.332 L79.205,57.332 L79.816,57.332 L79.816,56.292 L79.413,56.292 C78.867,56.292 78.438,56.4176667 78.126,56.669 C77.814,56.9203333 77.5973333,57.2063333 77.476,57.527 L77.476,57.527 L77.411,57.527 L77.411,56.292 L76.371,56.292 L76.371,63 L77.411,63 Z M82.858,63.156 C83.326,63.156 83.729,63.052 84.067,62.844 C84.405,62.636 84.6476667,62.324 84.795,61.908 L84.795,61.908 L84.86,61.908 C84.9033333,62.22 85.0095,62.48 85.1785,62.688 C85.3475,62.896 85.627,63 86.017,63 L86.017,63 L86.602,63 L86.602,62.09 L85.835,62.09 L85.835,58.398 C85.835,57.6873333 85.6096667,57.1326667 85.159,56.734 C84.7083333,56.3353333 84.0756667,56.136 83.261,56.136 C82.6543333,56.136 82.1516667,56.2638333 81.753,56.5195 C81.3543333,56.7751667 81.064,57.085 80.882,57.449 L80.882,57.449 L81.506,58.034 C81.688,57.7306667 81.9155,57.488 82.1885,57.306 C82.4615,57.124 82.8016667,57.033 83.209,57.033 C83.7463333,57.033 84.145,57.1586667 84.405,57.41 C84.665,57.6613333 84.795,58.0253333 84.795,58.502 L84.795,58.502 L84.795,59.165 L83.469,59.165 C82.4896667,59.165 81.7681667,59.334 81.3045,59.672 C80.8408333,60.01 80.609,60.4953333 80.609,61.128 C80.609,61.752 80.8061667,62.246 81.2005,62.61 C81.5948333,62.974 82.1473333,63.156 82.858,63.156 Z M83.027,62.272 C82.6196667,62.272 82.2968333,62.181 82.0585,61.999 C81.8201667,61.817 81.701,61.5613333 81.701,61.232 L81.701,61.232 L81.701,60.959 C81.701,60.6296667 81.8375,60.3783333 82.1105,60.205 C82.3835,60.0316667 82.819,59.945 83.417,59.945 L83.417,59.945 L84.795,59.945 L84.795,61.05 C84.795,61.2233333 84.7516667,61.3836667 84.665,61.531 C84.5783333,61.6783333 84.457,61.8083333 84.301,61.921 C84.145,62.0336667 83.9586667,62.1203333 83.742,62.181 C83.5253333,62.2416667 83.287,62.272 83.027,62.272 Z M90.866,63 L90.866,62.09 L89.501,62.09 L89.501,57.202 L90.97,57.202 L90.97,56.292 L89.501,56.292 L89.501,54.433 L88.565,54.433 L88.565,55.681 C88.565,55.9063333 88.5238333,56.0645 88.4415,56.1555 C88.3591667,56.2465 88.2053333,56.292 87.98,56.292 L87.98,56.292 L87.356,56.292 L87.356,57.202 L88.461,57.202 L88.461,61.895 C88.461,62.2243333 88.5541667,62.4908333 88.7405,62.6945 C88.9268333,62.8981667 89.202,63 89.566,63 L89.566,63 L90.866,63 Z M95.169,63.156 C95.8016667,63.156 96.3476667,63.0151667 96.807,62.7335 C97.2663333,62.4518333 97.6043333,62.0813333 97.821,61.622 L97.821,61.622 L97.08,61.089 C96.9066667,61.4616667 96.6618333,61.7476667 96.3455,61.947 C96.0291667,62.1463333 95.6586667,62.246 95.234,62.246 C94.922,62.246 94.6425,62.194 94.3955,62.09 C94.1485,61.986 93.9405,61.843 93.7715,61.661 C93.6025,61.479 93.4725,61.2645 93.3815,61.0175 C93.2905,60.7705 93.245,60.504 93.245,60.218 L93.245,60.218 L93.245,59.906 L98.068,59.906 L98.068,59.412 C98.068,58.9353333 98.0008333,58.4976667 97.8665,58.099 C97.7321667,57.7003333 97.5393333,57.3558333 97.288,57.0655 C97.0366667,56.7751667 96.7333333,56.5476667 96.378,56.383 C96.0226667,56.2183333 95.6196667,56.136 95.169,56.136 C94.7096667,56.136 94.2958333,56.2183333 93.9275,56.383 C93.5591667,56.5476667 93.2428333,56.7838333 92.9785,57.0915 C92.7141667,57.3991667 92.5105,57.7696667 92.3675,58.203 C92.2245,58.6363333 92.153,59.1173333 92.153,59.646 C92.153,60.1833333 92.2245,60.6665 92.3675,61.0955 C92.5105,61.5245 92.7141667,61.8928333 92.9785,62.2005 C93.2428333,62.5081667 93.5591667,62.7443333 93.9275,62.909 C94.2958333,63.0736667 94.7096667,63.156 95.169,63.156 Z M96.95,59.126 L93.245,59.126 L93.245,59.035 C93.245,58.7403333 93.2926667,58.4695 93.388,58.2225 C93.4833333,57.9755 93.6155,57.761 93.7845,57.579 C93.9535,57.397 94.155,57.2561667 94.389,57.1565 C94.623,57.0568333 94.883,57.007 95.169,57.007 C95.7063333,57.007 96.1375,57.1868333 96.4625,57.5465 C96.7875,57.9061667 96.95,58.385 96.95,58.983 L96.95,58.983 L96.95,59.126 Z" id="Commissionrate" fill="#2A3052" fill-rule="nonzero"></path>
            <path d="M49.5,0 C50.8807119,0 52,1.11928813 52,2.5 C52,3.70932545 51.1413382,4.71809967 50.0004345,4.94990271 L50,50 L49,50 L49.000574,4.9501074 C47.8591679,4.7186941 47,3.70968176 47,2.5 C47,1.11928813 48.1192881,0 49.5,0 Z" id="Combined-Shape" fill="#E98024"></path>
        </g>
    </g>
</svg>