<?xml version="1.0" encoding="UTF-8"?>
<svg width="680px" height="97px" viewBox="0 0 680 97" version="1.1" xmlns="http://www.w3.org/2000/svg" xmlns:xlink="http://www.w3.org/1999/xlink">
    <title>Minimum Volume Requirement - Synthetic - USD Volume</title>
    <g id="Minimum-Volume-Requirement---Synthetic---USD-Volume" stroke="none" stroke-width="1" fill="none" fill-rule="evenodd">
        <rect id="bottom" fill="#E5E5E5" x="0" y="55" width="680" height="2"></rect>
        <g id="box-4" transform="translate(516.000000, 0.000000)">
            <rect id="leg-2" stroke="#DEDEDE" stroke-width="2" fill="#F2F2F2" x="34" y="41" width="7" height="13"></rect>
            <rect id="leg-1" stroke="#DEDEDE" stroke-width="2" fill="#F2F2F2" x="11" y="41" width="7" height="13"></rect>
            <rect id="back" fill="#2A3052" x="0" y="0" width="53" height="43"></rect>
            <path d="M19.594,28 L19.594,26.668 L12.988,26.668 L16.372,23.626 C16.768,23.266 17.137,22.906 17.479,22.546 C17.821,22.186 18.112,21.817 18.352,21.439 C18.592,21.061 18.781,20.662 18.919,20.242 C19.057,19.822 19.126,19.366 19.126,18.874 C19.126,18.334 19.039,17.842 18.865,17.398 C18.691,16.954 18.442,16.57 18.118,16.246 C17.794,15.922 17.392,15.67 16.912,15.49 C16.432,15.31 15.886,15.22 15.274,15.22 C14.662,15.22 14.131,15.304 13.681,15.472 C13.231,15.64 12.847,15.862 12.529,16.138 C12.211,16.414 11.947,16.729 11.737,17.083 C11.527,17.437 11.362,17.8 11.242,18.172 L11.242,18.172 L12.592,18.694 C12.676,18.394 12.787,18.115 12.925,17.857 C13.063,17.599 13.237,17.374 13.447,17.182 C13.657,16.99 13.906,16.84 14.194,16.732 C14.482,16.624 14.818,16.57 15.202,16.57 C15.982,16.57 16.564,16.786 16.948,17.218 C17.332,17.65 17.524,18.214 17.524,18.91 L17.524,18.91 L17.524,19.126 C17.524,19.738 17.326,20.347 16.93,20.953 C16.534,21.559 16.042,22.132 15.454,22.672 L15.454,22.672 L11.35,26.452 L11.35,28 L19.594,28 Z M26.2,28.216 C27.7,28.216 28.795,27.646 29.485,26.506 C30.175,25.366 30.52,23.77 30.52,21.718 C30.52,19.666 30.175,18.07 29.485,16.93 C28.795,15.79 27.7,15.22 26.2,15.22 C24.7,15.22 23.605,15.79 22.915,16.93 C22.225,18.07 21.88,19.666 21.88,21.718 C21.88,23.77 22.225,25.366 22.915,26.506 C23.605,27.646 24.7,28.216 26.2,28.216 Z M26.2,26.902 C25.708,26.902 25.288,26.8 24.94,26.596 C24.592,26.392 24.31,26.104 24.094,25.732 C23.878,25.36 23.719,24.922 23.617,24.418 C23.515,23.914 23.464,23.356 23.464,22.744 L23.464,22.744 L23.464,20.692 C23.464,20.08 23.515,19.522 23.617,19.018 C23.719,18.514 23.878,18.076 24.094,17.704 C24.31,17.332 24.592,17.044 24.94,16.84 C25.288,16.636 25.708,16.534 26.2,16.534 C26.692,16.534 27.112,16.636 27.46,16.84 C27.808,17.044 28.09,17.332 28.306,17.704 C28.522,18.076 28.681,18.514 28.783,19.018 C28.885,19.522 28.936,20.08 28.936,20.692 L28.936,20.692 L28.936,22.744 C28.936,23.356 28.885,23.914 28.783,24.418 C28.681,24.922 28.522,25.36 28.306,25.732 C28.09,26.104 27.808,26.392 27.46,26.596 C27.112,26.8 26.692,26.902 26.2,26.902 Z M37,28.216 C38.5,28.216 39.595,27.646 40.285,26.506 C40.975,25.366 41.32,23.77 41.32,21.718 C41.32,19.666 40.975,18.07 40.285,16.93 C39.595,15.79 38.5,15.22 37,15.22 C35.5,15.22 34.405,15.79 33.715,16.93 C33.025,18.07 32.68,19.666 32.68,21.718 C32.68,23.77 33.025,25.366 33.715,26.506 C34.405,27.646 35.5,28.216 37,28.216 Z M37,26.902 C36.508,26.902 36.088,26.8 35.74,26.596 C35.392,26.392 35.11,26.104 34.894,25.732 C34.678,25.36 34.519,24.922 34.417,24.418 C34.315,23.914 34.264,23.356 34.264,22.744 L34.264,22.744 L34.264,20.692 C34.264,20.08 34.315,19.522 34.417,19.018 C34.519,18.514 34.678,18.076 34.894,17.704 C35.11,17.332 35.392,17.044 35.74,16.84 C36.088,16.636 36.508,16.534 37,16.534 C37.492,16.534 37.912,16.636 38.26,16.84 C38.608,17.044 38.89,17.332 39.106,17.704 C39.322,18.076 39.481,18.514 39.583,19.018 C39.685,19.522 39.736,20.08 39.736,20.692 L39.736,20.692 L39.736,22.744 C39.736,23.356 39.685,23.914 39.583,24.418 C39.481,24.922 39.322,25.36 39.106,25.732 C38.89,26.104 38.608,26.392 38.26,26.596 C37.912,26.8 37.492,26.902 37,26.902 Z" id="200" fill="#FFFFFF" fill-rule="nonzero"></path>
        </g>
        <g id="note" transform="translate(506.000000, 33.000000)">
            <path d="M5.248,63.156 C5.85466667,63.156 6.36816667,63.078 6.7885,62.922 C7.20883333,62.766 7.549,62.5276667 7.809,62.207 C8.069,61.8863333 8.2575,61.4833333 8.3745,60.998 C8.4915,60.5126667 8.55,59.9406667 8.55,59.282 L8.55,59.282 L8.55,53.926 L7.458,53.926 L7.458,59.542 C7.458,60.4086667 7.29766667,61.0651667 6.977,61.5115 C6.65633333,61.9578333 6.093,62.181 5.287,62.181 C4.481,62.181 3.91766667,61.9578333 3.597,61.5115 C3.27633333,61.0651667 3.116,60.4086667 3.116,59.542 L3.116,59.542 L3.116,53.926 L2.024,53.926 L2.024,59.282 C2.024,59.9406667 2.07816667,60.5126667 2.1865,60.998 C2.29483333,61.4833333 2.47466667,61.8863333 2.726,62.207 C2.97733333,62.5276667 3.30883333,62.766 3.7205,62.922 C4.13216667,63.078 4.64133333,63.156 5.248,63.156 Z M13.451,63.156 C13.9363333,63.156 14.3718333,63.091 14.7575,62.961 C15.1431667,62.831 15.4703333,62.649 15.739,62.415 C16.0076667,62.181 16.2135,61.895 16.3565,61.557 C16.4995,61.219 16.571,60.842 16.571,60.426 C16.571,59.75 16.3716667,59.2083333 15.973,58.801 C15.5743333,58.3936667 14.9286667,58.0903333 14.036,57.891 L14.036,57.891 L13.295,57.722 C12.723,57.592 12.2961667,57.4165 12.0145,57.1955 C11.7328333,56.9745 11.592,56.6473333 11.592,56.214 C11.592,55.72 11.7588333,55.3495 12.0925,55.1025 C12.4261667,54.8555 12.8833333,54.732 13.464,54.732 C13.9926667,54.732 14.4346667,54.8316667 14.79,55.031 C15.1453333,55.2303333 15.4486667,55.5033333 15.7,55.85 L15.7,55.85 L16.519,55.252 C16.181,54.7666667 15.7671667,54.3983333 15.2775,54.147 C14.7878333,53.8956667 14.2006667,53.77 13.516,53.77 C13.074,53.77 12.6688333,53.8241667 12.3005,53.9325 C11.9321667,54.0408333 11.6158333,54.199 11.3515,54.407 C11.0871667,54.615 10.8813333,54.875 10.734,55.187 C10.5866667,55.499 10.513,55.8543333 10.513,56.253 C10.513,56.955 10.7318333,57.4988333 11.1695,57.8845 C11.6071667,58.2701667 12.242,58.5583333 13.074,58.749 L13.074,58.749 L13.815,58.918 C14.413,59.0566667 14.842,59.243 15.102,59.477 C15.362,59.711 15.492,60.0446667 15.492,60.478 C15.492,60.998 15.3208333,61.414 14.9785,61.726 C14.6361667,62.038 14.14,62.194 13.49,62.194 C12.9613333,62.194 12.502,62.0835 12.112,61.8625 C11.722,61.6415 11.3666667,61.3186667 11.046,60.894 L11.046,60.894 L10.24,61.57 C10.604,62.064 11.046,62.4518333 11.566,62.7335 C12.086,63.0151667 12.7143333,63.156 13.451,63.156 Z M21.498,63 C22.0613333,63 22.5726667,62.9046667 23.032,62.714 C23.4913333,62.5233333 23.8835,62.2395 24.2085,61.8625 C24.5335,61.4855 24.7826667,61.0131667 24.956,60.4455 C25.1293333,59.8778333 25.216,59.217 25.216,58.463 C25.216,57.709 25.1293333,57.0481667 24.956,56.4805 C24.7826667,55.9128333 24.5335,55.4405 24.2085,55.0635 C23.8835,54.6865 23.4913333,54.4026667 23.032,54.212 C22.5726667,54.0213333 22.0613333,53.926 21.498,53.926 L21.498,53.926 L18.456,53.926 L18.456,63 L21.498,63 Z M21.498,62.038 L19.548,62.038 L19.548,54.888 L21.498,54.888 C21.8706667,54.888 22.213,54.9508333 22.525,55.0765 C22.837,55.2021667 23.1056667,55.3863333 23.331,55.629 C23.5563333,55.8716667 23.7318333,56.1685 23.8575,56.5195 C23.9831667,56.8705 24.046,57.2713333 24.046,57.722 L24.046,57.722 L24.046,59.204 C24.046,59.6546667 23.9831667,60.0555 23.8575,60.4065 C23.7318333,60.7575 23.5563333,61.0543333 23.331,61.297 C23.1056667,61.5396667 22.837,61.7238333 22.525,61.8495 C22.213,61.9751667 21.8706667,62.038 21.498,62.038 L21.498,62.038 Z M32.834,63 L35.2,56.292 L34.199,56.292 L33.003,59.62 L32.275,61.908 L32.21,61.908 L31.482,59.62 L30.312,56.292 L29.272,56.292 L31.625,63 L32.834,63 Z M39.074,63.156 C39.5246667,63.156 39.9341667,63.0736667 40.3025,62.909 C40.6708333,62.7443333 40.9893333,62.5081667 41.258,62.2005 C41.5266667,61.8928333 41.7346667,61.5245 41.882,61.0955 C42.0293333,60.6665 42.103,60.1833333 42.103,59.646 C42.103,59.1173333 42.0293333,58.6363333 41.882,58.203 C41.7346667,57.7696667 41.5266667,57.3991667 41.258,57.0915 C40.9893333,56.7838333 40.6708333,56.5476667 40.3025,56.383 C39.9341667,56.2183333 39.5246667,56.136 39.074,56.136 C38.6233333,56.136 38.2116667,56.2183333 37.839,56.383 C37.4663333,56.5476667 37.1478333,56.7838333 36.8835,57.0915 C36.6191667,57.3991667 36.4133333,57.7696667 36.266,58.203 C36.1186667,58.6363333 36.045,59.1173333 36.045,59.646 C36.045,60.1833333 36.1186667,60.6665 36.266,61.0955 C36.4133333,61.5245 36.6191667,61.8928333 36.8835,62.2005 C37.1478333,62.5081667 37.4663333,62.7443333 37.839,62.909 C38.2116667,63.0736667 38.6233333,63.156 39.074,63.156 Z M39.074,62.233 C38.5106667,62.233 38.0513333,62.0596667 37.696,61.713 C37.3406667,61.3663333 37.163,60.8376667 37.163,60.127 L37.163,60.127 L37.163,59.165 C37.163,58.4543333 37.3406667,57.9256667 37.696,57.579 C38.0513333,57.2323333 38.5106667,57.059 39.074,57.059 C39.6373333,57.059 40.0966667,57.2323333 40.452,57.579 C40.8073333,57.9256667 40.985,58.4543333 40.985,59.165 L40.985,59.165 L40.985,60.127 C40.985,60.8376667 40.8073333,61.3663333 40.452,61.713 C40.0966667,62.0596667 39.6373333,62.233 39.074,62.233 Z M45.847,63 L45.847,62.09 L44.859,62.09 L44.859,53.38 L43.819,53.38 L43.819,61.921 C43.819,62.233 43.9121667,62.4908333 44.0985,62.6945 C44.2848333,62.8981667 44.56,63 44.924,63 L44.924,63 L45.847,63 Z M49.552,63.156 C49.8293333,63.156 50.072,63.1213333 50.28,63.052 C50.488,62.9826667 50.6656667,62.8895 50.813,62.7725 C50.9603333,62.6555 51.0838333,62.5211667 51.1835,62.3695 C51.2831667,62.2178333 51.3676667,62.064 51.437,61.908 L51.437,61.908 L51.489,61.908 L51.489,63 L52.529,63 L52.529,56.292 L51.489,56.292 L51.489,60.933 C51.489,61.1583333 51.4435,61.3511667 51.3525,61.5115 C51.2615,61.6718333 51.1401667,61.804 50.9885,61.908 C50.8368333,62.012 50.6635,62.09 50.4685,62.142 C50.2735,62.194 50.072,62.22 49.864,62.22 C48.8413333,62.22 48.33,61.6176667 48.33,60.413 L48.33,60.413 L48.33,56.292 L47.29,56.292 L47.29,60.595 C47.29,61.4096667 47.4936667,62.0401667 47.901,62.4865 C48.3083333,62.9328333 48.8586667,63.156 49.552,63.156 Z M55.779,63 L55.779,58.346 C55.779,58.1293333 55.8245,57.9408333 55.9155,57.7805 C56.0065,57.6201667 56.1256667,57.488 56.273,57.384 C56.4203333,57.28 56.5893333,57.202 56.78,57.15 C56.9706667,57.098 57.17,57.072 57.378,57.072 C57.872,57.072 58.236,57.2236667 58.47,57.527 C58.704,57.8303333 58.821,58.281 58.821,58.879 L58.821,58.879 L58.821,63 L59.861,63 L59.861,58.346 C59.861,58.1293333 59.9043333,57.9408333 59.991,57.7805 C60.0776667,57.6201667 60.1946667,57.488 60.342,57.384 C60.4893333,57.28 60.6561667,57.202 60.8425,57.15 C61.0288333,57.098 61.226,57.072 61.434,57.072 C61.9453333,57.072 62.318,57.2236667 62.552,57.527 C62.786,57.8303333 62.903,58.281 62.903,58.879 L62.903,58.879 L62.903,63 L63.943,63 L63.943,58.697 C63.943,57.8823333 63.7501667,57.2518333 63.3645,56.8055 C62.9788333,56.3591667 62.4436667,56.136 61.759,56.136 C61.187,56.136 60.7341667,56.2725 60.4005,56.5455 C60.0668333,56.8185 59.8393333,57.137 59.718,57.501 L59.718,57.501 L59.692,57.501 C59.51,57.0156667 59.2326667,56.6668333 58.86,56.4545 C58.4873333,56.2421667 58.08,56.136 57.638,56.136 C57.378,56.136 57.1526667,56.1685 56.962,56.2335 C56.7713333,56.2985 56.6045,56.3873333 56.4615,56.5 C56.3185,56.6126667 56.1971667,56.7448333 56.0975,56.8965 C55.9978333,57.0481667 55.909,57.2106667 55.831,57.384 L55.831,57.384 L55.779,57.384 L55.779,56.292 L54.739,56.292 L54.739,63 L55.779,63 Z M68.61,63.156 C69.2426667,63.156 69.7886667,63.0151667 70.248,62.7335 C70.7073333,62.4518333 71.0453333,62.0813333 71.262,61.622 L71.262,61.622 L70.521,61.089 C70.3476667,61.4616667 70.1028333,61.7476667 69.7865,61.947 C69.4701667,62.1463333 69.0996667,62.246 68.675,62.246 C68.363,62.246 68.0835,62.194 67.8365,62.09 C67.5895,61.986 67.3815,61.843 67.2125,61.661 C67.0435,61.479 66.9135,61.2645 66.8225,61.0175 C66.7315,60.7705 66.686,60.504 66.686,60.218 L66.686,60.218 L66.686,59.906 L71.509,59.906 L71.509,59.412 C71.509,58.9353333 71.4418333,58.4976667 71.3075,58.099 C71.1731667,57.7003333 70.9803333,57.3558333 70.729,57.0655 C70.4776667,56.7751667 70.1743333,56.5476667 69.819,56.383 C69.4636667,56.2183333 69.0606667,56.136 68.61,56.136 C68.1506667,56.136 67.7368333,56.2183333 67.3685,56.383 C67.0001667,56.5476667 66.6838333,56.7838333 66.4195,57.0915 C66.1551667,57.3991667 65.9515,57.7696667 65.8085,58.203 C65.6655,58.6363333 65.594,59.1173333 65.594,59.646 C65.594,60.1833333 65.6655,60.6665 65.8085,61.0955 C65.9515,61.5245 66.1551667,61.8928333 66.4195,62.2005 C66.6838333,62.5081667 67.0001667,62.7443333 67.3685,62.909 C67.7368333,63.0736667 68.1506667,63.156 68.61,63.156 Z M70.391,59.126 L66.686,59.126 L66.686,59.035 C66.686,58.7403333 66.7336667,58.4695 66.829,58.2225 C66.9243333,57.9755 67.0565,57.761 67.2255,57.579 C67.3945,57.397 67.596,57.2561667 67.83,57.1565 C68.064,57.0568333 68.324,57.007 68.61,57.007 C69.1473333,57.007 69.5785,57.1868333 69.9035,57.5465 C70.2285,57.9061667 70.391,58.385 70.391,58.983 L70.391,58.983 L70.391,59.126 Z" id="USDvolume" fill="#2A3052" fill-rule="nonzero"></path>
            <path d="M36.5,0 C37.8807119,0 39,1.11928813 39,2.5 C39,3.70932545 38.1413382,4.71809967 37.0004345,4.94990271 L37,50 L36,50 L36.000574,4.9501074 C34.8591679,4.7186941 34,3.70968176 34,2.5 C34,1.11928813 35.1192881,0 36.5,0 Z" id="Combined-Shape" fill="#E98024"></path>
        </g>
        <path d="M483.792,21.312 L483.792,18.48 L472.608,18.48 L472.608,21.312 L483.792,21.312 Z M483.792,26.88 L483.792,24.048 L472.608,24.048 L472.608,26.88 L483.792,26.88 Z" id="=" fill="#E98024" fill-rule="nonzero"></path>
        <g id="box-2" transform="translate(390.000000, 0.000000)">
            <rect id="leg-2" stroke="#DEDEDE" stroke-width="2" fill="#F2F2F2" x="33" y="41" width="7" height="13"></rect>
            <rect id="leg-1" stroke="#DEDEDE" stroke-width="2" fill="#F2F2F2" x="11" y="41" width="7" height="13"></rect>
            <rect id="back" stroke="#DEDEDE" stroke-width="2" fill="#F2F2F2" x="1" y="1" width="49" height="41"></rect>
            <path d="M25.31,28.216 C25.97,28.216 26.561,28.114 27.083,27.91 C27.605,27.706 28.049,27.421 28.415,27.055 C28.781,26.689 29.06,26.251 29.252,25.741 C29.444,25.231 29.54,24.67 29.54,24.058 C29.54,23.446 29.447,22.9 29.261,22.42 C29.075,21.94 28.814,21.535 28.478,21.205 C28.142,20.875 27.746,20.62 27.29,20.44 C26.834,20.26 26.336,20.17 25.796,20.17 C25.136,20.17 24.617,20.296 24.239,20.548 C23.861,20.8 23.522,21.136 23.222,21.556 L23.222,21.556 L23.096,21.556 L23.456,16.768 L28.964,16.768 L28.964,15.436 L22.232,15.436 L21.782,22.348 L23.06,22.528 C23.324,22.24 23.621,21.991 23.951,21.781 C24.281,21.571 24.734,21.466 25.31,21.466 C26.174,21.466 26.828,21.694 27.272,22.15 C27.716,22.606 27.938,23.248 27.938,24.076 L27.938,24.076 L27.938,24.256 C27.938,25.084 27.716,25.726 27.272,26.182 C26.828,26.638 26.174,26.866 25.31,26.866 C24.926,26.866 24.596,26.827 24.32,26.749 C24.044,26.671 23.801,26.56 23.591,26.416 C23.381,26.272 23.189,26.098 23.015,25.894 C22.841,25.69 22.676,25.462 22.52,25.21 L22.52,25.21 L21.386,26.074 C21.578,26.35 21.791,26.614 22.025,26.866 C22.259,27.118 22.532,27.346 22.844,27.55 C23.156,27.754 23.513,27.916 23.915,28.036 C24.317,28.156 24.782,28.216 25.31,28.216 Z" id="5" fill="#2A3052" fill-rule="nonzero"></path>
        </g>
        <g id="note" transform="translate(366.000000, 33.000000)">
            <path d="M4.728,63.156 C5.49066667,63.156 6.14066667,62.9718333 6.678,62.6035 C7.21533333,62.2351667 7.627,61.7303333 7.913,61.089 L7.913,61.089 L7.042,60.543 C6.86,61.037 6.574,61.4335 6.184,61.7325 C5.794,62.0315 5.30866667,62.181 4.728,62.181 C3.93933333,62.181 3.32833333,61.9166667 2.895,61.388 C2.46166667,60.8593333 2.245,60.127 2.245,59.191 L2.245,59.191 L2.245,57.839 C2.245,57.371 2.30133333,56.9485 2.414,56.5715 C2.52666667,56.1945 2.68916667,55.8695 2.9015,55.5965 C3.11383333,55.3235 3.37383333,55.1133333 3.6815,54.966 C3.98916667,54.8186667 4.338,54.745 4.728,54.745 C5.29133333,54.745 5.75933333,54.8858333 6.132,55.1675 C6.50466667,55.4491667 6.782,55.824 6.964,56.292 L6.964,56.292 L7.848,55.759 C7.562,55.1263333 7.16116667,54.6366667 6.6455,54.29 C6.12983333,53.9433333 5.49066667,53.77 4.728,53.77 C3.57533333,53.77 2.67833333,54.1795 2.037,54.9985 C1.39566667,55.8175 1.075,56.9896667 1.075,58.515 C1.075,60.0403333 1.39566667,61.1951667 2.037,61.9795 C2.67833333,62.7638333 3.57533333,63.156 4.728,63.156 Z M12.034,63.156 C12.4846667,63.156 12.8941667,63.0736667 13.2625,62.909 C13.6308333,62.7443333 13.9493333,62.5081667 14.218,62.2005 C14.4866667,61.8928333 14.6946667,61.5245 14.842,61.0955 C14.9893333,60.6665 15.063,60.1833333 15.063,59.646 C15.063,59.1173333 14.9893333,58.6363333 14.842,58.203 C14.6946667,57.7696667 14.4866667,57.3991667 14.218,57.0915 C13.9493333,56.7838333 13.6308333,56.5476667 13.2625,56.383 C12.8941667,56.2183333 12.4846667,56.136 12.034,56.136 C11.5833333,56.136 11.1716667,56.2183333 10.799,56.383 C10.4263333,56.5476667 10.1078333,56.7838333 9.8435,57.0915 C9.57916667,57.3991667 9.37333333,57.7696667 9.226,58.203 C9.07866667,58.6363333 9.005,59.1173333 9.005,59.646 C9.005,60.1833333 9.07866667,60.6665 9.226,61.0955 C9.37333333,61.5245 9.57916667,61.8928333 9.8435,62.2005 C10.1078333,62.5081667 10.4263333,62.7443333 10.799,62.909 C11.1716667,63.0736667 11.5833333,63.156 12.034,63.156 Z M12.034,62.233 C11.4706667,62.233 11.0113333,62.0596667 10.656,61.713 C10.3006667,61.3663333 10.123,60.8376667 10.123,60.127 L10.123,60.127 L10.123,59.165 C10.123,58.4543333 10.3006667,57.9256667 10.656,57.579 C11.0113333,57.2323333 11.4706667,57.059 12.034,57.059 C12.5973333,57.059 13.0566667,57.2323333 13.412,57.579 C13.7673333,57.9256667 13.945,58.4543333 13.945,59.165 L13.945,59.165 L13.945,60.127 C13.945,60.8376667 13.7673333,61.3663333 13.412,61.713 C13.0566667,62.0596667 12.5973333,62.233 12.034,62.233 Z M17.819,63 L17.819,58.346 C17.819,58.1293333 17.8645,57.9408333 17.9555,57.7805 C18.0465,57.6201667 18.1656667,57.488 18.313,57.384 C18.4603333,57.28 18.6293333,57.202 18.82,57.15 C19.0106667,57.098 19.21,57.072 19.418,57.072 C19.912,57.072 20.276,57.2236667 20.51,57.527 C20.744,57.8303333 20.861,58.281 20.861,58.879 L20.861,58.879 L20.861,63 L21.901,63 L21.901,58.346 C21.901,58.1293333 21.9443333,57.9408333 22.031,57.7805 C22.1176667,57.6201667 22.2346667,57.488 22.382,57.384 C22.5293333,57.28 22.6961667,57.202 22.8825,57.15 C23.0688333,57.098 23.266,57.072 23.474,57.072 C23.9853333,57.072 24.358,57.2236667 24.592,57.527 C24.826,57.8303333 24.943,58.281 24.943,58.879 L24.943,58.879 L24.943,63 L25.983,63 L25.983,58.697 C25.983,57.8823333 25.7901667,57.2518333 25.4045,56.8055 C25.0188333,56.3591667 24.4836667,56.136 23.799,56.136 C23.227,56.136 22.7741667,56.2725 22.4405,56.5455 C22.1068333,56.8185 21.8793333,57.137 21.758,57.501 L21.758,57.501 L21.732,57.501 C21.55,57.0156667 21.2726667,56.6668333 20.9,56.4545 C20.5273333,56.2421667 20.12,56.136 19.678,56.136 C19.418,56.136 19.1926667,56.1685 19.002,56.2335 C18.8113333,56.2985 18.6445,56.3873333 18.5015,56.5 C18.3585,56.6126667 18.2371667,56.7448333 18.1375,56.8965 C18.0378333,57.0481667 17.949,57.2106667 17.871,57.384 L17.871,57.384 L17.819,57.384 L17.819,56.292 L16.779,56.292 L16.779,63 L17.819,63 Z M29.168,63 L29.168,58.346 C29.168,58.1293333 29.2135,57.9408333 29.3045,57.7805 C29.3955,57.6201667 29.5146667,57.488 29.662,57.384 C29.8093333,57.28 29.9783333,57.202 30.169,57.15 C30.3596667,57.098 30.559,57.072 30.767,57.072 C31.261,57.072 31.625,57.2236667 31.859,57.527 C32.093,57.8303333 32.21,58.281 32.21,58.879 L32.21,58.879 L32.21,63 L33.25,63 L33.25,58.346 C33.25,58.1293333 33.2933333,57.9408333 33.38,57.7805 C33.4666667,57.6201667 33.5836667,57.488 33.731,57.384 C33.8783333,57.28 34.0451667,57.202 34.2315,57.15 C34.4178333,57.098 34.615,57.072 34.823,57.072 C35.3343333,57.072 35.707,57.2236667 35.941,57.527 C36.175,57.8303333 36.292,58.281 36.292,58.879 L36.292,58.879 L36.292,63 L37.332,63 L37.332,58.697 C37.332,57.8823333 37.1391667,57.2518333 36.7535,56.8055 C36.3678333,56.3591667 35.8326667,56.136 35.148,56.136 C34.576,56.136 34.1231667,56.2725 33.7895,56.5455 C33.4558333,56.8185 33.2283333,57.137 33.107,57.501 L33.107,57.501 L33.081,57.501 C32.899,57.0156667 32.6216667,56.6668333 32.249,56.4545 C31.8763333,56.2421667 31.469,56.136 31.027,56.136 C30.767,56.136 30.5416667,56.1685 30.351,56.2335 C30.1603333,56.2985 29.9935,56.3873333 29.8505,56.5 C29.7075,56.6126667 29.5861667,56.7448333 29.4865,56.8965 C29.3868333,57.0481667 29.298,57.2106667 29.22,57.384 L29.22,57.384 L29.168,57.384 L29.168,56.292 L28.128,56.292 L28.128,63 L29.168,63 Z M39.997,54.719 C40.2223333,54.719 40.3848333,54.6648333 40.4845,54.5565 C40.5841667,54.4481667 40.634,54.3073333 40.634,54.134 L40.634,54.134 L40.634,53.965 C40.634,53.7916667 40.5841667,53.6508333 40.4845,53.5425 C40.3848333,53.4341667 40.2223333,53.38 39.997,53.38 C39.7716667,53.38 39.6091667,53.4341667 39.5095,53.5425 C39.4098333,53.6508333 39.36,53.7916667 39.36,53.965 L39.36,53.965 L39.36,54.134 C39.36,54.3073333 39.4098333,54.4481667 39.5095,54.5565 C39.6091667,54.6648333 39.7716667,54.719 39.997,54.719 Z M40.517,63 L40.517,56.292 L39.477,56.292 L39.477,63 L40.517,63 Z M44.742,63.156 C45.5133333,63.156 46.12,62.9696667 46.562,62.597 C47.004,62.2243333 47.225,61.713 47.225,61.063 C47.225,60.5516667 47.069,60.1378333 46.757,59.8215 C46.445,59.5051667 45.9163333,59.2906667 45.171,59.178 L45.171,59.178 L44.651,59.1 C44.235,59.0306667 43.9165,58.9223333 43.6955,58.775 C43.4745,58.6276667 43.364,58.3893333 43.364,58.06 C43.364,57.7393333 43.4745,57.4858333 43.6955,57.2995 C43.9165,57.1131667 44.2436667,57.02 44.677,57.02 C45.1103333,57.02 45.47,57.1045 45.756,57.2735 C46.042,57.4425 46.2586667,57.631 46.406,57.839 L46.406,57.839 L47.095,57.215 C46.8176667,56.877 46.4948333,56.6126667 46.1265,56.422 C45.7581667,56.2313333 45.301,56.136 44.755,56.136 C44.417,56.136 44.1006667,56.1771667 43.806,56.2595 C43.5113333,56.3418333 43.2578333,56.4653333 43.0455,56.63 C42.8331667,56.7946667 42.6663333,57.0005 42.545,57.2475 C42.4236667,57.4945 42.363,57.7826667 42.363,58.112 C42.363,58.424 42.4171667,58.6926667 42.5255,58.918 C42.6338333,59.1433333 42.7855,59.3318333 42.9805,59.4835 C43.1755,59.6351667 43.403,59.7565 43.663,59.8475 C43.923,59.9385 44.209,60.0056667 44.521,60.049 L44.521,60.049 L45.054,60.127 C45.496,60.1963333 45.8015,60.3241667 45.9705,60.5105 C46.1395,60.6968333 46.224,60.92 46.224,61.18 C46.224,61.5266667 46.1005,61.7953333 45.8535,61.986 C45.6065,62.1766667 45.262,62.272 44.82,62.272 C44.3953333,62.272 44.0226667,62.1831667 43.702,62.0055 C43.3813333,61.8278333 43.091,61.5743333 42.831,61.245 L42.831,61.245 L42.09,61.843 C42.3933333,62.2416667 42.7551667,62.5601667 43.1755,62.7985 C43.5958333,63.0368333 44.118,63.156 44.742,63.156 Z M51.073,63.156 C51.8443333,63.156 52.451,62.9696667 52.893,62.597 C53.335,62.2243333 53.556,61.713 53.556,61.063 C53.556,60.5516667 53.4,60.1378333 53.088,59.8215 C52.776,59.5051667 52.2473333,59.2906667 51.502,59.178 L51.502,59.178 L50.982,59.1 C50.566,59.0306667 50.2475,58.9223333 50.0265,58.775 C49.8055,58.6276667 49.695,58.3893333 49.695,58.06 C49.695,57.7393333 49.8055,57.4858333 50.0265,57.2995 C50.2475,57.1131667 50.5746667,57.02 51.008,57.02 C51.4413333,57.02 51.801,57.1045 52.087,57.2735 C52.373,57.4425 52.5896667,57.631 52.737,57.839 L52.737,57.839 L53.426,57.215 C53.1486667,56.877 52.8258333,56.6126667 52.4575,56.422 C52.0891667,56.2313333 51.632,56.136 51.086,56.136 C50.748,56.136 50.4316667,56.1771667 50.137,56.2595 C49.8423333,56.3418333 49.5888333,56.4653333 49.3765,56.63 C49.1641667,56.7946667 48.9973333,57.0005 48.876,57.2475 C48.7546667,57.4945 48.694,57.7826667 48.694,58.112 C48.694,58.424 48.7481667,58.6926667 48.8565,58.918 C48.9648333,59.1433333 49.1165,59.3318333 49.3115,59.4835 C49.5065,59.6351667 49.734,59.7565 49.994,59.8475 C50.254,59.9385 50.54,60.0056667 50.852,60.049 L50.852,60.049 L51.385,60.127 C51.827,60.1963333 52.1325,60.3241667 52.3015,60.5105 C52.4705,60.6968333 52.555,60.92 52.555,61.18 C52.555,61.5266667 52.4315,61.7953333 52.1845,61.986 C51.9375,62.1766667 51.593,62.272 51.151,62.272 C50.7263333,62.272 50.3536667,62.1831667 50.033,62.0055 C49.7123333,61.8278333 49.422,61.5743333 49.162,61.245 L49.162,61.245 L48.421,61.843 C48.7243333,62.2416667 49.0861667,62.5601667 49.5065,62.7985 C49.9268333,63.0368333 50.449,63.156 51.073,63.156 Z M55.909,54.719 C56.1343333,54.719 56.2968333,54.6648333 56.3965,54.5565 C56.4961667,54.4481667 56.546,54.3073333 56.546,54.134 L56.546,54.134 L56.546,53.965 C56.546,53.7916667 56.4961667,53.6508333 56.3965,53.5425 C56.2968333,53.4341667 56.1343333,53.38 55.909,53.38 C55.6836667,53.38 55.5211667,53.4341667 55.4215,53.5425 C55.3218333,53.6508333 55.272,53.7916667 55.272,53.965 L55.272,53.965 L55.272,54.134 C55.272,54.3073333 55.3218333,54.4481667 55.4215,54.5565 C55.5211667,54.6648333 55.6836667,54.719 55.909,54.719 Z M56.429,63 L56.429,56.292 L55.389,56.292 L55.389,63 L56.429,63 Z M61.174,63.156 C61.6246667,63.156 62.0341667,63.0736667 62.4025,62.909 C62.7708333,62.7443333 63.0893333,62.5081667 63.358,62.2005 C63.6266667,61.8928333 63.8346667,61.5245 63.982,61.0955 C64.1293333,60.6665 64.203,60.1833333 64.203,59.646 C64.203,59.1173333 64.1293333,58.6363333 63.982,58.203 C63.8346667,57.7696667 63.6266667,57.3991667 63.358,57.0915 C63.0893333,56.7838333 62.7708333,56.5476667 62.4025,56.383 C62.0341667,56.2183333 61.6246667,56.136 61.174,56.136 C60.7233333,56.136 60.3116667,56.2183333 59.939,56.383 C59.5663333,56.5476667 59.2478333,56.7838333 58.9835,57.0915 C58.7191667,57.3991667 58.5133333,57.7696667 58.366,58.203 C58.2186667,58.6363333 58.145,59.1173333 58.145,59.646 C58.145,60.1833333 58.2186667,60.6665 58.366,61.0955 C58.5133333,61.5245 58.7191667,61.8928333 58.9835,62.2005 C59.2478333,62.5081667 59.5663333,62.7443333 59.939,62.909 C60.3116667,63.0736667 60.7233333,63.156 61.174,63.156 Z M61.174,62.233 C60.6106667,62.233 60.1513333,62.0596667 59.796,61.713 C59.4406667,61.3663333 59.263,60.8376667 59.263,60.127 L59.263,60.127 L59.263,59.165 C59.263,58.4543333 59.4406667,57.9256667 59.796,57.579 C60.1513333,57.2323333 60.6106667,57.059 61.174,57.059 C61.7373333,57.059 62.1966667,57.2323333 62.552,57.579 C62.9073333,57.9256667 63.085,58.4543333 63.085,59.165 L63.085,59.165 L63.085,60.127 C63.085,60.8376667 62.9073333,61.3663333 62.552,61.713 C62.1966667,62.0596667 61.7373333,62.233 61.174,62.233 Z M66.959,63 L66.959,58.346 C66.959,58.1293333 67.0045,57.9408333 67.0955,57.7805 C67.1865,57.6201667 67.31,57.488 67.466,57.384 C67.622,57.28 67.7975,57.202 67.9925,57.15 C68.1875,57.098 68.389,57.072 68.597,57.072 C69.611,57.072 70.118,57.6743333 70.118,58.879 L70.118,58.879 L70.118,63 L71.158,63 L71.158,58.697 C71.158,57.8823333 70.9565,57.2518333 70.5535,56.8055 C70.1505,56.3591667 69.6023333,56.136 68.909,56.136 C68.4063333,56.136 68.0055,56.2486667 67.7065,56.474 C67.4075,56.6993333 67.1756667,57.0026667 67.011,57.384 L67.011,57.384 L66.959,57.384 L66.959,56.292 L65.919,56.292 L65.919,63 L66.959,63 Z M77.411,63 L77.411,58.45 C77.411,58.1293333 77.5691667,57.8628333 77.8855,57.6505 C78.2018333,57.4381667 78.6416667,57.332 79.205,57.332 L79.205,57.332 L79.816,57.332 L79.816,56.292 L79.413,56.292 C78.867,56.292 78.438,56.4176667 78.126,56.669 C77.814,56.9203333 77.5973333,57.2063333 77.476,57.527 L77.476,57.527 L77.411,57.527 L77.411,56.292 L76.371,56.292 L76.371,63 L77.411,63 Z M82.858,63.156 C83.326,63.156 83.729,63.052 84.067,62.844 C84.405,62.636 84.6476667,62.324 84.795,61.908 L84.795,61.908 L84.86,61.908 C84.9033333,62.22 85.0095,62.48 85.1785,62.688 C85.3475,62.896 85.627,63 86.017,63 L86.017,63 L86.602,63 L86.602,62.09 L85.835,62.09 L85.835,58.398 C85.835,57.6873333 85.6096667,57.1326667 85.159,56.734 C84.7083333,56.3353333 84.0756667,56.136 83.261,56.136 C82.6543333,56.136 82.1516667,56.2638333 81.753,56.5195 C81.3543333,56.7751667 81.064,57.085 80.882,57.449 L80.882,57.449 L81.506,58.034 C81.688,57.7306667 81.9155,57.488 82.1885,57.306 C82.4615,57.124 82.8016667,57.033 83.209,57.033 C83.7463333,57.033 84.145,57.1586667 84.405,57.41 C84.665,57.6613333 84.795,58.0253333 84.795,58.502 L84.795,58.502 L84.795,59.165 L83.469,59.165 C82.4896667,59.165 81.7681667,59.334 81.3045,59.672 C80.8408333,60.01 80.609,60.4953333 80.609,61.128 C80.609,61.752 80.8061667,62.246 81.2005,62.61 C81.5948333,62.974 82.1473333,63.156 82.858,63.156 Z M83.027,62.272 C82.6196667,62.272 82.2968333,62.181 82.0585,61.999 C81.8201667,61.817 81.701,61.5613333 81.701,61.232 L81.701,61.232 L81.701,60.959 C81.701,60.6296667 81.8375,60.3783333 82.1105,60.205 C82.3835,60.0316667 82.819,59.945 83.417,59.945 L83.417,59.945 L84.795,59.945 L84.795,61.05 C84.795,61.2233333 84.7516667,61.3836667 84.665,61.531 C84.5783333,61.6783333 84.457,61.8083333 84.301,61.921 C84.145,62.0336667 83.9586667,62.1203333 83.742,62.181 C83.5253333,62.2416667 83.287,62.272 83.027,62.272 Z M90.866,63 L90.866,62.09 L89.501,62.09 L89.501,57.202 L90.97,57.202 L90.97,56.292 L89.501,56.292 L89.501,54.433 L88.565,54.433 L88.565,55.681 C88.565,55.9063333 88.5238333,56.0645 88.4415,56.1555 C88.3591667,56.2465 88.2053333,56.292 87.98,56.292 L87.98,56.292 L87.356,56.292 L87.356,57.202 L88.461,57.202 L88.461,61.895 C88.461,62.2243333 88.5541667,62.4908333 88.7405,62.6945 C88.9268333,62.8981667 89.202,63 89.566,63 L89.566,63 L90.866,63 Z M95.169,63.156 C95.8016667,63.156 96.3476667,63.0151667 96.807,62.7335 C97.2663333,62.4518333 97.6043333,62.0813333 97.821,61.622 L97.821,61.622 L97.08,61.089 C96.9066667,61.4616667 96.6618333,61.7476667 96.3455,61.947 C96.0291667,62.1463333 95.6586667,62.246 95.234,62.246 C94.922,62.246 94.6425,62.194 94.3955,62.09 C94.1485,61.986 93.9405,61.843 93.7715,61.661 C93.6025,61.479 93.4725,61.2645 93.3815,61.0175 C93.2905,60.7705 93.245,60.504 93.245,60.218 L93.245,60.218 L93.245,59.906 L98.068,59.906 L98.068,59.412 C98.068,58.9353333 98.0008333,58.4976667 97.8665,58.099 C97.7321667,57.7003333 97.5393333,57.3558333 97.288,57.0655 C97.0366667,56.7751667 96.7333333,56.5476667 96.378,56.383 C96.0226667,56.2183333 95.6196667,56.136 95.169,56.136 C94.7096667,56.136 94.2958333,56.2183333 93.9275,56.383 C93.5591667,56.5476667 93.2428333,56.7838333 92.9785,57.0915 C92.7141667,57.3991667 92.5105,57.7696667 92.3675,58.203 C92.2245,58.6363333 92.153,59.1173333 92.153,59.646 C92.153,60.1833333 92.2245,60.6665 92.3675,61.0955 C92.5105,61.5245 92.7141667,61.8928333 92.9785,62.2005 C93.2428333,62.5081667 93.5591667,62.7443333 93.9275,62.909 C94.2958333,63.0736667 94.7096667,63.156 95.169,63.156 Z M96.95,59.126 L93.245,59.126 L93.245,59.035 C93.245,58.7403333 93.2926667,58.4695 93.388,58.2225 C93.4833333,57.9755 93.6155,57.761 93.7845,57.579 C93.9535,57.397 94.155,57.2561667 94.389,57.1565 C94.623,57.0568333 94.883,57.007 95.169,57.007 C95.7063333,57.007 96.1375,57.1868333 96.4625,57.5465 C96.7875,57.9061667 96.95,58.385 96.95,58.983 L96.95,58.983 L96.95,59.126 Z" id="Commissionrate" fill="#2A3052" fill-rule="nonzero"></path>
            <path d="M49.5,0 C50.8807119,0 52,1.11928813 52,2.5 C52,3.70932545 51.1413382,4.71809967 50.0004345,4.94990271 L50,50 L49,50 L49.000574,4.9501074 C47.8591679,4.7186941 47,3.70968176 47,2.5 C47,1.11928813 48.1192881,0 49.5,0 Z" id="Combined-Shape" fill="#E98024"></path>
        </g>
        <path d="M352.2,19.92 C352.952,19.92 353.488,19.756 353.808,19.428 C354.128,19.1 354.288,18.712 354.288,18.264 L354.288,18.264 L354.288,17.688 C354.288,17.24 354.128,16.852 353.808,16.524 C353.488,16.196 352.952,16.032 352.2,16.032 C351.448,16.032 350.912,16.196 350.592,16.524 C350.272,16.852 350.112,17.24 350.112,17.688 L350.112,17.688 L350.112,18.264 C350.112,18.712 350.272,19.1 350.592,19.428 C350.912,19.756 351.448,19.92 352.2,19.92 Z M357.768,24.072 L357.768,21.24 L346.608,21.24 L346.608,24.072 L357.768,24.072 Z M352.2,29.328 C352.952,29.328 353.488,29.164 353.808,28.836 C354.128,28.508 354.288,28.12 354.288,27.672 L354.288,27.672 L354.288,27.096 C354.288,26.648 354.128,26.26 353.808,25.932 C353.488,25.604 352.952,25.44 352.2,25.44 C351.448,25.44 350.912,25.604 350.592,25.932 C350.272,26.26 350.112,26.648 350.112,27.096 L350.112,27.096 L350.112,27.672 C350.112,28.12 350.272,28.508 350.592,28.836 C350.912,29.164 351.448,29.328 352.2,29.328 Z" id="รท" fill="#E98024" fill-rule="nonzero"></path>
        <g id="box-1" transform="translate(110.000000, 0.000000)">
            <rect id="leg-2" stroke="#DEDEDE" stroke-width="2" fill="#F2F2F2" x="167" y="41" width="7" height="13"></rect>
            <rect id="leg-1" stroke="#DEDEDE" stroke-width="2" fill="#F2F2F2" x="31" y="41" width="7" height="13"></rect>
            <rect id="back" stroke="#DEDEDE" stroke-width="2" fill="#F2F2F2" x="1" y="1" width="203" height="41"></rect>
            <path d="M16.12,30.466 C15.628,30.034 15.181,29.53 14.779,28.954 C14.377,28.378 14.032,27.766 13.744,27.118 C13.456,26.47 13.234,25.81 13.078,25.138 C12.922,24.466 12.844,23.812 12.844,23.176 L12.844,23.176 L12.844,21.628 C12.844,21.004 12.922,20.356 13.078,19.684 C13.234,19.012 13.453,18.352 13.735,17.704 C14.017,17.056 14.359,16.444 14.761,15.868 C15.163,15.292 15.616,14.776 16.12,14.32 L16.12,14.32 L14.752,14.32 C14.296,14.716 13.87,15.196 13.474,15.76 C13.078,16.324 12.733,16.951 12.439,17.641 C12.145,18.331 11.914,19.078 11.746,19.882 C11.578,20.686 11.494,21.52 11.494,22.384 C11.494,23.26 11.581,24.103 11.755,24.913 C11.929,25.723 12.163,26.476 12.457,27.172 C12.751,27.868 13.096,28.498 13.492,29.062 C13.888,29.626 14.308,30.094 14.752,30.466 L14.752,30.466 L16.12,30.466 Z M25.678,28.216 C27.178,28.216 28.273,27.646 28.963,26.506 C29.653,25.366 29.998,23.77 29.998,21.718 C29.998,19.666 29.653,18.07 28.963,16.93 C28.273,15.79 27.178,15.22 25.678,15.22 C24.178,15.22 23.083,15.79 22.393,16.93 C21.703,18.07 21.358,19.666 21.358,21.718 C21.358,23.77 21.703,25.366 22.393,26.506 C23.083,27.646 24.178,28.216 25.678,28.216 Z M25.678,26.902 C25.186,26.902 24.766,26.8 24.418,26.596 C24.07,26.392 23.788,26.104 23.572,25.732 C23.356,25.36 23.197,24.922 23.095,24.418 C22.993,23.914 22.942,23.356 22.942,22.744 L22.942,22.744 L22.942,20.692 C22.942,20.08 22.993,19.522 23.095,19.018 C23.197,18.514 23.356,18.076 23.572,17.704 C23.788,17.332 24.07,17.044 24.418,16.84 C24.766,16.636 25.186,16.534 25.678,16.534 C26.17,16.534 26.59,16.636 26.938,16.84 C27.286,17.044 27.568,17.332 27.784,17.704 C28,18.076 28.159,18.514 28.261,19.018 C28.363,19.522 28.414,20.08 28.414,20.692 L28.414,20.692 L28.414,22.744 C28.414,23.356 28.363,23.914 28.261,24.418 C28.159,24.922 28,25.36 27.784,25.732 C27.568,26.104 27.286,26.392 26.938,26.596 C26.59,26.8 26.17,26.902 25.678,26.902 Z M33.526,28.216 C33.91,28.216 34.189,28.12 34.363,27.928 C34.537,27.736 34.624,27.484 34.624,27.172 L34.624,27.172 L34.624,26.938 C34.624,26.626 34.537,26.374 34.363,26.182 C34.189,25.99 33.91,25.894 33.526,25.894 C33.142,25.894 32.863,25.99 32.689,26.182 C32.515,26.374 32.428,26.626 32.428,26.938 L32.428,26.938 L32.428,27.172 C32.428,27.484 32.515,27.736 32.689,27.928 C32.863,28.12 33.142,28.216 33.526,28.216 Z M41.374,28.216 C42.874,28.216 43.969,27.646 44.659,26.506 C45.349,25.366 45.694,23.77 45.694,21.718 C45.694,19.666 45.349,18.07 44.659,16.93 C43.969,15.79 42.874,15.22 41.374,15.22 C39.874,15.22 38.779,15.79 38.089,16.93 C37.399,18.07 37.054,19.666 37.054,21.718 C37.054,23.77 37.399,25.366 38.089,26.506 C38.779,27.646 39.874,28.216 41.374,28.216 Z M41.374,26.902 C40.882,26.902 40.462,26.8 40.114,26.596 C39.766,26.392 39.484,26.104 39.268,25.732 C39.052,25.36 38.893,24.922 38.791,24.418 C38.689,23.914 38.638,23.356 38.638,22.744 L38.638,22.744 L38.638,20.692 C38.638,20.08 38.689,19.522 38.791,19.018 C38.893,18.514 39.052,18.076 39.268,17.704 C39.484,17.332 39.766,17.044 40.114,16.84 C40.462,16.636 40.882,16.534 41.374,16.534 C41.866,16.534 42.286,16.636 42.634,16.84 C42.982,17.044 43.264,17.332 43.48,17.704 C43.696,18.076 43.855,18.514 43.957,19.018 C44.059,19.522 44.11,20.08 44.11,20.692 L44.11,20.692 L44.11,22.744 C44.11,23.356 44.059,23.914 43.957,24.418 C43.855,24.922 43.696,25.36 43.48,25.732 C43.264,26.104 42.982,26.392 42.634,26.596 C42.286,26.8 41.866,26.902 41.374,26.902 Z M56.62,28 L56.62,26.668 L53.38,26.668 L53.38,15.436 L51.022,15.436 L47.692,18.55 L48.574,19.504 L51.742,16.552 L51.868,16.552 L51.868,26.668 L48.358,26.668 L48.358,28 L56.62,28 Z M63.802,28 L66.412,24.364 L66.466,24.364 L68.878,28 L70.57,28 L67.222,23.212 L70.498,18.712 L68.896,18.712 L66.448,22.168 L66.394,22.168 L64.036,18.712 L62.344,18.712 L65.638,23.32 L62.2,28 L63.802,28 Z M81.244,28.216 C82.084,28.216 82.795,28.108 83.377,27.892 C83.959,27.676 84.43,27.346 84.79,26.902 C85.15,26.458 85.411,25.9 85.573,25.228 C85.735,24.556 85.816,23.764 85.816,22.852 L85.816,22.852 L85.816,15.436 L84.304,15.436 L84.304,23.212 C84.304,24.412 84.082,25.321 83.638,25.939 C83.194,26.557 82.414,26.866 81.298,26.866 C80.182,26.866 79.402,26.557 78.958,25.939 C78.514,25.321 78.292,24.412 78.292,23.212 L78.292,23.212 L78.292,15.436 L76.78,15.436 L76.78,22.852 C76.78,23.764 76.855,24.556 77.005,25.228 C77.155,25.9 77.404,26.458 77.752,26.902 C78.1,27.346 78.559,27.676 79.129,27.892 C79.699,28.108 80.404,28.216 81.244,28.216 Z M92.602,28.216 C93.274,28.216 93.877,28.126 94.411,27.946 C94.945,27.766 95.398,27.514 95.77,27.19 C96.142,26.866 96.427,26.47 96.625,26.002 C96.823,25.534 96.922,25.012 96.922,24.436 C96.922,23.5 96.646,22.75 96.094,22.186 C95.542,21.622 94.648,21.202 93.412,20.926 L93.412,20.926 L92.386,20.692 C91.594,20.512 91.003,20.269 90.613,19.963 C90.223,19.657 90.028,19.204 90.028,18.604 C90.028,17.92 90.259,17.407 90.721,17.065 C91.183,16.723 91.816,16.552 92.62,16.552 C93.352,16.552 93.964,16.69 94.456,16.966 C94.948,17.242 95.368,17.62 95.716,18.1 L95.716,18.1 L96.85,17.272 C96.382,16.6 95.809,16.09 95.131,15.742 C94.453,15.394 93.64,15.22 92.692,15.22 C92.08,15.22 91.519,15.295 91.009,15.445 C90.499,15.595 90.061,15.814 89.695,16.102 C89.329,16.39 89.044,16.75 88.84,17.182 C88.636,17.614 88.534,18.106 88.534,18.658 C88.534,19.63 88.837,20.383 89.443,20.917 C90.049,21.451 90.928,21.85 92.08,22.114 L92.08,22.114 L93.106,22.348 C93.934,22.54 94.528,22.798 94.888,23.122 C95.248,23.446 95.428,23.908 95.428,24.508 C95.428,25.228 95.191,25.804 94.717,26.236 C94.243,26.668 93.556,26.884 92.656,26.884 C91.924,26.884 91.288,26.731 90.748,26.425 C90.208,26.119 89.716,25.672 89.272,25.084 L89.272,25.084 L88.156,26.02 C88.66,26.704 89.272,27.241 89.992,27.631 C90.712,28.021 91.582,28.216 92.602,28.216 Z M103.744,28 C104.524,28 105.232,27.868 105.868,27.604 C106.504,27.34 107.047,26.947 107.497,26.425 C107.947,25.903 108.292,25.249 108.532,24.463 C108.772,23.677 108.892,22.762 108.892,21.718 C108.892,20.674 108.772,19.759 108.532,18.973 C108.292,18.187 107.947,17.533 107.497,17.011 C107.047,16.489 106.504,16.096 105.868,15.832 C105.232,15.568 104.524,15.436 103.744,15.436 L103.744,15.436 L99.532,15.436 L99.532,28 L103.744,28 Z M103.744,26.668 L101.044,26.668 L101.044,16.768 L103.744,16.768 C104.26,16.768 104.734,16.855 105.166,17.029 C105.598,17.203 105.97,17.458 106.282,17.794 C106.594,18.13 106.837,18.541 107.011,19.027 C107.185,19.513 107.272,20.068 107.272,20.692 L107.272,20.692 L107.272,22.744 C107.272,23.368 107.185,23.923 107.011,24.409 C106.837,24.895 106.594,25.306 106.282,25.642 C105.97,25.978 105.598,26.233 105.166,26.407 C104.734,26.581 104.26,26.668 103.744,26.668 L103.744,26.668 Z M124.03,28 L124.03,26.668 L120.79,26.668 L120.79,15.436 L118.432,15.436 L115.102,18.55 L115.984,19.504 L119.152,16.552 L119.278,16.552 L119.278,26.668 L115.768,26.668 L115.768,28 L124.03,28 Z M130.384,28.216 C131.884,28.216 132.979,27.646 133.669,26.506 C134.359,25.366 134.704,23.77 134.704,21.718 C134.704,19.666 134.359,18.07 133.669,16.93 C132.979,15.79 131.884,15.22 130.384,15.22 C128.884,15.22 127.789,15.79 127.099,16.93 C126.409,18.07 126.064,19.666 126.064,21.718 C126.064,23.77 126.409,25.366 127.099,26.506 C127.789,27.646 128.884,28.216 130.384,28.216 Z M130.384,26.902 C129.892,26.902 129.472,26.8 129.124,26.596 C128.776,26.392 128.494,26.104 128.278,25.732 C128.062,25.36 127.903,24.922 127.801,24.418 C127.699,23.914 127.648,23.356 127.648,22.744 L127.648,22.744 L127.648,20.692 C127.648,20.08 127.699,19.522 127.801,19.018 C127.903,18.514 128.062,18.076 128.278,17.704 C128.494,17.332 128.776,17.044 129.124,16.84 C129.472,16.636 129.892,16.534 130.384,16.534 C130.876,16.534 131.296,16.636 131.644,16.84 C131.992,17.044 132.274,17.332 132.49,17.704 C132.706,18.076 132.865,18.514 132.967,19.018 C133.069,19.522 133.12,20.08 133.12,20.692 L133.12,20.692 L133.12,22.744 C133.12,23.356 133.069,23.914 132.967,24.418 C132.865,24.922 132.706,25.36 132.49,25.732 C132.274,26.104 131.992,26.392 131.644,26.596 C131.296,26.8 130.876,26.902 130.384,26.902 Z M141.184,28.216 C142.684,28.216 143.779,27.646 144.469,26.506 C145.159,25.366 145.504,23.77 145.504,21.718 C145.504,19.666 145.159,18.07 144.469,16.93 C143.779,15.79 142.684,15.22 141.184,15.22 C139.684,15.22 138.589,15.79 137.899,16.93 C137.209,18.07 136.864,19.666 136.864,21.718 C136.864,23.77 137.209,25.366 137.899,26.506 C138.589,27.646 139.684,28.216 141.184,28.216 Z M141.184,26.902 C140.692,26.902 140.272,26.8 139.924,26.596 C139.576,26.392 139.294,26.104 139.078,25.732 C138.862,25.36 138.703,24.922 138.601,24.418 C138.499,23.914 138.448,23.356 138.448,22.744 L138.448,22.744 L138.448,20.692 C138.448,20.08 138.499,19.522 138.601,19.018 C138.703,18.514 138.862,18.076 139.078,17.704 C139.294,17.332 139.576,17.044 139.924,16.84 C140.272,16.636 140.692,16.534 141.184,16.534 C141.676,16.534 142.096,16.636 142.444,16.84 C142.792,17.044 143.074,17.332 143.29,17.704 C143.506,18.076 143.665,18.514 143.767,19.018 C143.869,19.522 143.92,20.08 143.92,20.692 L143.92,20.692 L143.92,22.744 C143.92,23.356 143.869,23.914 143.767,24.418 C143.665,24.922 143.506,25.36 143.29,25.732 C143.074,26.104 142.792,26.392 142.444,26.596 C142.096,26.8 141.676,26.902 141.184,26.902 Z M148.492,30.394 C149.008,29.95 149.41,29.431 149.698,28.837 C149.986,28.243 150.13,27.7 150.13,27.208 L150.13,27.208 L150.13,26.956 C150.13,26.644 150.043,26.389 149.869,26.191 C149.695,25.993 149.416,25.894 149.032,25.894 C148.648,25.894 148.369,25.993 148.195,26.191 C148.021,26.389 147.934,26.644 147.934,26.956 L147.934,26.956 L147.934,27.208 C147.934,27.448 147.991,27.652 148.105,27.82 C148.219,27.988 148.396,28.102 148.636,28.162 C148.54,28.582 148.381,28.963 148.159,29.305 C147.937,29.647 147.646,30.01 147.286,30.394 L147.286,30.394 L148.492,30.394 Z M156.88,28.216 C158.38,28.216 159.475,27.646 160.165,26.506 C160.855,25.366 161.2,23.77 161.2,21.718 C161.2,19.666 160.855,18.07 160.165,16.93 C159.475,15.79 158.38,15.22 156.88,15.22 C155.38,15.22 154.285,15.79 153.595,16.93 C152.905,18.07 152.56,19.666 152.56,21.718 C152.56,23.77 152.905,25.366 153.595,26.506 C154.285,27.646 155.38,28.216 156.88,28.216 Z M156.88,26.902 C156.388,26.902 155.968,26.8 155.62,26.596 C155.272,26.392 154.99,26.104 154.774,25.732 C154.558,25.36 154.399,24.922 154.297,24.418 C154.195,23.914 154.144,23.356 154.144,22.744 L154.144,22.744 L154.144,20.692 C154.144,20.08 154.195,19.522 154.297,19.018 C154.399,18.514 154.558,18.076 154.774,17.704 C154.99,17.332 155.272,17.044 155.62,16.84 C155.968,16.636 156.388,16.534 156.88,16.534 C157.372,16.534 157.792,16.636 158.14,16.84 C158.488,17.044 158.77,17.332 158.986,17.704 C159.202,18.076 159.361,18.514 159.463,19.018 C159.565,19.522 159.616,20.08 159.616,20.692 L159.616,20.692 L159.616,22.744 C159.616,23.356 159.565,23.914 159.463,24.418 C159.361,24.922 159.202,25.36 158.986,25.732 C158.77,26.104 158.488,26.392 158.14,26.596 C157.792,26.8 157.372,26.902 156.88,26.902 Z M167.68,28.216 C169.18,28.216 170.275,27.646 170.965,26.506 C171.655,25.366 172,23.77 172,21.718 C172,19.666 171.655,18.07 170.965,16.93 C170.275,15.79 169.18,15.22 167.68,15.22 C166.18,15.22 165.085,15.79 164.395,16.93 C163.705,18.07 163.36,19.666 163.36,21.718 C163.36,23.77 163.705,25.366 164.395,26.506 C165.085,27.646 166.18,28.216 167.68,28.216 Z M167.68,26.902 C167.188,26.902 166.768,26.8 166.42,26.596 C166.072,26.392 165.79,26.104 165.574,25.732 C165.358,25.36 165.199,24.922 165.097,24.418 C164.995,23.914 164.944,23.356 164.944,22.744 L164.944,22.744 L164.944,20.692 C164.944,20.08 164.995,19.522 165.097,19.018 C165.199,18.514 165.358,18.076 165.574,17.704 C165.79,17.332 166.072,17.044 166.42,16.84 C166.768,16.636 167.188,16.534 167.68,16.534 C168.172,16.534 168.592,16.636 168.94,16.84 C169.288,17.044 169.57,17.332 169.786,17.704 C170.002,18.076 170.161,18.514 170.263,19.018 C170.365,19.522 170.416,20.08 170.416,20.692 L170.416,20.692 L170.416,22.744 C170.416,23.356 170.365,23.914 170.263,24.418 C170.161,24.922 170.002,25.36 169.786,25.732 C169.57,26.104 169.288,26.392 168.94,26.596 C168.592,26.8 168.172,26.902 167.68,26.902 Z M178.48,28.216 C179.98,28.216 181.075,27.646 181.765,26.506 C182.455,25.366 182.8,23.77 182.8,21.718 C182.8,19.666 182.455,18.07 181.765,16.93 C181.075,15.79 179.98,15.22 178.48,15.22 C176.98,15.22 175.885,15.79 175.195,16.93 C174.505,18.07 174.16,19.666 174.16,21.718 C174.16,23.77 174.505,25.366 175.195,26.506 C175.885,27.646 176.98,28.216 178.48,28.216 Z M178.48,26.902 C177.988,26.902 177.568,26.8 177.22,26.596 C176.872,26.392 176.59,26.104 176.374,25.732 C176.158,25.36 175.999,24.922 175.897,24.418 C175.795,23.914 175.744,23.356 175.744,22.744 L175.744,22.744 L175.744,20.692 C175.744,20.08 175.795,19.522 175.897,19.018 C175.999,18.514 176.158,18.076 176.374,17.704 C176.59,17.332 176.872,17.044 177.22,16.84 C177.568,16.636 177.988,16.534 178.48,16.534 C178.972,16.534 179.392,16.636 179.74,16.84 C180.088,17.044 180.37,17.332 180.586,17.704 C180.802,18.076 180.961,18.514 181.063,19.018 C181.165,19.522 181.216,20.08 181.216,20.692 L181.216,20.692 L181.216,22.744 C181.216,23.356 181.165,23.914 181.063,24.418 C180.961,24.922 180.802,25.36 180.586,25.732 C180.37,26.104 180.088,26.392 179.74,26.596 C179.392,26.8 178.972,26.902 178.48,26.902 Z M189.406,30.466 C189.85,30.094 190.27,29.626 190.666,29.062 C191.062,28.498 191.407,27.868 191.701,27.172 C191.995,26.476 192.229,25.723 192.403,24.913 C192.577,24.103 192.664,23.26 192.664,22.384 C192.664,21.52 192.58,20.686 192.412,19.882 C192.244,19.078 192.013,18.331 191.719,17.641 C191.425,16.951 191.08,16.324 190.684,15.76 C190.288,15.196 189.862,14.716 189.406,14.32 L189.406,14.32 L188.038,14.32 C188.542,14.776 188.995,15.292 189.397,15.868 C189.799,16.444 190.141,17.056 190.423,17.704 C190.705,18.352 190.924,19.012 191.08,19.684 C191.236,20.356 191.314,21.004 191.314,21.628 L191.314,21.628 L191.314,23.176 C191.314,23.812 191.236,24.466 191.08,25.138 C190.924,25.81 190.702,26.47 190.414,27.118 C190.126,27.766 189.781,28.378 189.379,28.954 C188.977,29.53 188.53,30.034 188.038,30.466 L188.038,30.466 L189.406,30.466 Z" id="(0.01xUSD100,000)" fill="#2A3052" fill-rule="nonzero"></path>
        </g>
        <g id="note" transform="translate(100.000000, 33.000000)">
            <path d="M4.951,64.781 C4.59566667,64.469 4.27283333,64.105 3.9825,63.689 C3.69216667,63.273 3.443,62.831 3.235,62.363 C3.027,61.895 2.86666667,61.4183333 2.754,60.933 C2.64133333,60.4476667 2.585,59.9753333 2.585,59.516 L2.585,59.516 L2.585,58.398 C2.585,57.9473333 2.64133333,57.4793333 2.754,56.994 C2.86666667,56.5086667 3.02483333,56.032 3.2285,55.564 C3.43216667,55.096 3.67916667,54.654 3.9695,54.238 C4.25983333,53.822 4.587,53.4493333 4.951,53.12 L4.951,53.12 L3.963,53.12 C3.63366667,53.406 3.326,53.7526667 3.04,54.16 C2.754,54.5673333 2.50483333,55.0201667 2.2925,55.5185 C2.08016667,56.0168333 1.91333333,56.5563333 1.792,57.137 C1.67066667,57.7176667 1.61,58.32 1.61,58.944 C1.61,59.5766667 1.67283333,60.1855 1.7985,60.7705 C1.92416667,61.3555 2.09316667,61.8993333 2.3055,62.402 C2.51783333,62.9046667 2.767,63.3596667 3.053,63.767 C3.339,64.1743333 3.64233333,64.5123333 3.963,64.781 L3.963,64.781 L4.951,64.781 Z M10.229,63 L10.229,55.356 L10.294,55.356 L11.061,56.877 L13.232,60.829 L15.403,56.877 L16.17,55.356 L16.235,55.356 L16.235,63 L17.301,63 L17.301,53.926 L15.897,53.926 L13.284,58.814 L13.219,58.814 L10.619,53.926 L9.163,53.926 L9.163,63 L10.229,63 Z M20.135,54.719 C20.3603333,54.719 20.5228333,54.6648333 20.6225,54.5565 C20.7221667,54.4481667 20.772,54.3073333 20.772,54.134 L20.772,54.134 L20.772,53.965 C20.772,53.7916667 20.7221667,53.6508333 20.6225,53.5425 C20.5228333,53.4341667 20.3603333,53.38 20.135,53.38 C19.9096667,53.38 19.7471667,53.4341667 19.6475,53.5425 C19.5478333,53.6508333 19.498,53.7916667 19.498,53.965 L19.498,53.965 L19.498,54.134 C19.498,54.3073333 19.5478333,54.4481667 19.6475,54.5565 C19.7471667,54.6648333 19.9096667,54.719 20.135,54.719 Z M20.655,63 L20.655,56.292 L19.615,56.292 L19.615,63 L20.655,63 Z M23.905,63 L23.905,58.346 C23.905,58.1293333 23.9505,57.9408333 24.0415,57.7805 C24.1325,57.6201667 24.256,57.488 24.412,57.384 C24.568,57.28 24.7435,57.202 24.9385,57.15 C25.1335,57.098 25.335,57.072 25.543,57.072 C26.557,57.072 27.064,57.6743333 27.064,58.879 L27.064,58.879 L27.064,63 L28.104,63 L28.104,58.697 C28.104,57.8823333 27.9025,57.2518333 27.4995,56.8055 C27.0965,56.3591667 26.5483333,56.136 25.855,56.136 C25.3523333,56.136 24.9515,56.2486667 24.6525,56.474 C24.3535,56.6993333 24.1216667,57.0026667 23.957,57.384 L23.957,57.384 L23.905,57.384 L23.905,56.292 L22.865,56.292 L22.865,63 L23.905,63 Z M30.912,63.156 C31.1893333,63.156 31.3908333,63.0866667 31.5165,62.948 C31.6421667,62.8093333 31.705,62.6273333 31.705,62.402 L31.705,62.402 L31.705,62.233 C31.705,62.0076667 31.6421667,61.8256667 31.5165,61.687 C31.3908333,61.5483333 31.1893333,61.479 30.912,61.479 C30.6346667,61.479 30.4331667,61.5483333 30.3075,61.687 C30.1818333,61.8256667 30.119,62.0076667 30.119,62.233 L30.119,62.233 L30.119,62.402 C30.119,62.6273333 30.1818333,62.8093333 30.3075,62.948 C30.4331667,63.0866667 30.6346667,63.156 30.912,63.156 Z M39.349,63.156 C39.9903333,63.156 40.5255,63.013 40.9545,62.727 C41.3835,62.441 41.7063333,62.0553333 41.923,61.57 L41.923,61.57 L41.169,61.063 C40.7963333,61.843 40.1896667,62.233 39.349,62.233 C38.7336667,62.233 38.2678333,62.0445 37.9515,61.6675 C37.6351667,61.2905 37.477,60.8073333 37.477,60.218 L37.477,60.218 L37.477,59.074 C37.477,58.7793333 37.516,58.5085 37.594,58.2615 C37.672,58.0145 37.789,57.8021667 37.945,57.6245 C38.101,57.4468333 38.296,57.3081667 38.53,57.2085 C38.764,57.1088333 39.037,57.059 39.349,57.059 C39.765,57.059 40.1116667,57.1543333 40.389,57.345 C40.6663333,57.5356667 40.8656667,57.8043333 40.987,58.151 L40.987,58.151 L41.858,57.709 C41.6586667,57.241 41.3575,56.8618333 40.9545,56.5715 C40.5515,56.2811667 40.0163333,56.136 39.349,56.136 C38.881,56.136 38.4606667,56.2183333 38.088,56.383 C37.7153333,56.5476667 37.4011667,56.7816667 37.1455,57.085 C36.8898333,57.3883333 36.6948333,57.7566667 36.5605,58.19 C36.4261667,58.6233333 36.359,59.1086667 36.359,59.646 C36.359,60.1833333 36.4261667,60.6686667 36.5605,61.102 C36.6948333,61.5353333 36.8898333,61.9036667 37.1455,62.207 C37.4011667,62.5103333 37.7153333,62.7443333 38.088,62.909 C38.4606667,63.0736667 38.881,63.156 39.349,63.156 Z M45.927,63.156 C46.3776667,63.156 46.7871667,63.0736667 47.1555,62.909 C47.5238333,62.7443333 47.8423333,62.5081667 48.111,62.2005 C48.3796667,61.8928333 48.5876667,61.5245 48.735,61.0955 C48.8823333,60.6665 48.956,60.1833333 48.956,59.646 C48.956,59.1173333 48.8823333,58.6363333 48.735,58.203 C48.5876667,57.7696667 48.3796667,57.3991667 48.111,57.0915 C47.8423333,56.7838333 47.5238333,56.5476667 47.1555,56.383 C46.7871667,56.2183333 46.3776667,56.136 45.927,56.136 C45.4763333,56.136 45.0646667,56.2183333 44.692,56.383 C44.3193333,56.5476667 44.0008333,56.7838333 43.7365,57.0915 C43.4721667,57.3991667 43.2663333,57.7696667 43.119,58.203 C42.9716667,58.6363333 42.898,59.1173333 42.898,59.646 C42.898,60.1833333 42.9716667,60.6665 43.119,61.0955 C43.2663333,61.5245 43.4721667,61.8928333 43.7365,62.2005 C44.0008333,62.5081667 44.3193333,62.7443333 44.692,62.909 C45.0646667,63.0736667 45.4763333,63.156 45.927,63.156 Z M45.927,62.233 C45.3636667,62.233 44.9043333,62.0596667 44.549,61.713 C44.1936667,61.3663333 44.016,60.8376667 44.016,60.127 L44.016,60.127 L44.016,59.165 C44.016,58.4543333 44.1936667,57.9256667 44.549,57.579 C44.9043333,57.2323333 45.3636667,57.059 45.927,57.059 C46.4903333,57.059 46.9496667,57.2323333 47.305,57.579 C47.6603333,57.9256667 47.838,58.4543333 47.838,59.165 L47.838,59.165 L47.838,60.127 C47.838,60.8376667 47.6603333,61.3663333 47.305,61.713 C46.9496667,62.0596667 46.4903333,62.233 45.927,62.233 Z M51.712,63 L51.712,58.346 C51.712,58.1293333 51.7575,57.9408333 51.8485,57.7805 C51.9395,57.6201667 52.0586667,57.488 52.206,57.384 C52.3533333,57.28 52.5223333,57.202 52.713,57.15 C52.9036667,57.098 53.103,57.072 53.311,57.072 C53.805,57.072 54.169,57.2236667 54.403,57.527 C54.637,57.8303333 54.754,58.281 54.754,58.879 L54.754,58.879 L54.754,63 L55.794,63 L55.794,58.346 C55.794,58.1293333 55.8373333,57.9408333 55.924,57.7805 C56.0106667,57.6201667 56.1276667,57.488 56.275,57.384 C56.4223333,57.28 56.5891667,57.202 56.7755,57.15 C56.9618333,57.098 57.159,57.072 57.367,57.072 C57.8783333,57.072 58.251,57.2236667 58.485,57.527 C58.719,57.8303333 58.836,58.281 58.836,58.879 L58.836,58.879 L58.836,63 L59.876,63 L59.876,58.697 C59.876,57.8823333 59.6831667,57.2518333 59.2975,56.8055 C58.9118333,56.3591667 58.3766667,56.136 57.692,56.136 C57.12,56.136 56.6671667,56.2725 56.3335,56.5455 C55.9998333,56.8185 55.7723333,57.137 55.651,57.501 L55.651,57.501 L55.625,57.501 C55.443,57.0156667 55.1656667,56.6668333 54.793,56.4545 C54.4203333,56.2421667 54.013,56.136 53.571,56.136 C53.311,56.136 53.0856667,56.1685 52.895,56.2335 C52.7043333,56.2985 52.5375,56.3873333 52.3945,56.5 C52.2515,56.6126667 52.1301667,56.7448333 52.0305,56.8965 C51.9308333,57.0481667 51.842,57.2106667 51.764,57.384 L51.764,57.384 L51.712,57.384 L51.712,56.292 L50.672,56.292 L50.672,63 L51.712,63 Z M63.061,63 L63.061,58.346 C63.061,58.1293333 63.1065,57.9408333 63.1975,57.7805 C63.2885,57.6201667 63.4076667,57.488 63.555,57.384 C63.7023333,57.28 63.8713333,57.202 64.062,57.15 C64.2526667,57.098 64.452,57.072 64.66,57.072 C65.154,57.072 65.518,57.2236667 65.752,57.527 C65.986,57.8303333 66.103,58.281 66.103,58.879 L66.103,58.879 L66.103,63 L67.143,63 L67.143,58.346 C67.143,58.1293333 67.1863333,57.9408333 67.273,57.7805 C67.3596667,57.6201667 67.4766667,57.488 67.624,57.384 C67.7713333,57.28 67.9381667,57.202 68.1245,57.15 C68.3108333,57.098 68.508,57.072 68.716,57.072 C69.2273333,57.072 69.6,57.2236667 69.834,57.527 C70.068,57.8303333 70.185,58.281 70.185,58.879 L70.185,58.879 L70.185,63 L71.225,63 L71.225,58.697 C71.225,57.8823333 71.0321667,57.2518333 70.6465,56.8055 C70.2608333,56.3591667 69.7256667,56.136 69.041,56.136 C68.469,56.136 68.0161667,56.2725 67.6825,56.5455 C67.3488333,56.8185 67.1213333,57.137 67,57.501 L67,57.501 L66.974,57.501 C66.792,57.0156667 66.5146667,56.6668333 66.142,56.4545 C65.7693333,56.2421667 65.362,56.136 64.92,56.136 C64.66,56.136 64.4346667,56.1685 64.244,56.2335 C64.0533333,56.2985 63.8865,56.3873333 63.7435,56.5 C63.6005,56.6126667 63.4791667,56.7448333 63.3795,56.8965 C63.2798333,57.0481667 63.191,57.2106667 63.113,57.384 L63.113,57.384 L63.061,57.384 L63.061,56.292 L62.021,56.292 L62.021,63 L63.061,63 Z M73.89,54.719 C74.1153333,54.719 74.2778333,54.6648333 74.3775,54.5565 C74.4771667,54.4481667 74.527,54.3073333 74.527,54.134 L74.527,54.134 L74.527,53.965 C74.527,53.7916667 74.4771667,53.6508333 74.3775,53.5425 C74.2778333,53.4341667 74.1153333,53.38 73.89,53.38 C73.6646667,53.38 73.5021667,53.4341667 73.4025,53.5425 C73.3028333,53.6508333 73.253,53.7916667 73.253,53.965 L73.253,53.965 L73.253,54.134 C73.253,54.3073333 73.3028333,54.4481667 73.4025,54.5565 C73.5021667,54.6648333 73.6646667,54.719 73.89,54.719 Z M74.41,63 L74.41,56.292 L73.37,56.292 L73.37,63 L74.41,63 Z M78.635,63.156 C79.4063333,63.156 80.013,62.9696667 80.455,62.597 C80.897,62.2243333 81.118,61.713 81.118,61.063 C81.118,60.5516667 80.962,60.1378333 80.65,59.8215 C80.338,59.5051667 79.8093333,59.2906667 79.064,59.178 L79.064,59.178 L78.544,59.1 C78.128,59.0306667 77.8095,58.9223333 77.5885,58.775 C77.3675,58.6276667 77.257,58.3893333 77.257,58.06 C77.257,57.7393333 77.3675,57.4858333 77.5885,57.2995 C77.8095,57.1131667 78.1366667,57.02 78.57,57.02 C79.0033333,57.02 79.363,57.1045 79.649,57.2735 C79.935,57.4425 80.1516667,57.631 80.299,57.839 L80.299,57.839 L80.988,57.215 C80.7106667,56.877 80.3878333,56.6126667 80.0195,56.422 C79.6511667,56.2313333 79.194,56.136 78.648,56.136 C78.31,56.136 77.9936667,56.1771667 77.699,56.2595 C77.4043333,56.3418333 77.1508333,56.4653333 76.9385,56.63 C76.7261667,56.7946667 76.5593333,57.0005 76.438,57.2475 C76.3166667,57.4945 76.256,57.7826667 76.256,58.112 C76.256,58.424 76.3101667,58.6926667 76.4185,58.918 C76.5268333,59.1433333 76.6785,59.3318333 76.8735,59.4835 C77.0685,59.6351667 77.296,59.7565 77.556,59.8475 C77.816,59.9385 78.102,60.0056667 78.414,60.049 L78.414,60.049 L78.947,60.127 C79.389,60.1963333 79.6945,60.3241667 79.8635,60.5105 C80.0325,60.6968333 80.117,60.92 80.117,61.18 C80.117,61.5266667 79.9935,61.7953333 79.7465,61.986 C79.4995,62.1766667 79.155,62.272 78.713,62.272 C78.2883333,62.272 77.9156667,62.1831667 77.595,62.0055 C77.2743333,61.8278333 76.984,61.5743333 76.724,61.245 L76.724,61.245 L75.983,61.843 C76.2863333,62.2416667 76.6481667,62.5601667 77.0685,62.7985 C77.4888333,63.0368333 78.011,63.156 78.635,63.156 Z M84.966,63.156 C85.7373333,63.156 86.344,62.9696667 86.786,62.597 C87.228,62.2243333 87.449,61.713 87.449,61.063 C87.449,60.5516667 87.293,60.1378333 86.981,59.8215 C86.669,59.5051667 86.1403333,59.2906667 85.395,59.178 L85.395,59.178 L84.875,59.1 C84.459,59.0306667 84.1405,58.9223333 83.9195,58.775 C83.6985,58.6276667 83.588,58.3893333 83.588,58.06 C83.588,57.7393333 83.6985,57.4858333 83.9195,57.2995 C84.1405,57.1131667 84.4676667,57.02 84.901,57.02 C85.3343333,57.02 85.694,57.1045 85.98,57.2735 C86.266,57.4425 86.4826667,57.631 86.63,57.839 L86.63,57.839 L87.319,57.215 C87.0416667,56.877 86.7188333,56.6126667 86.3505,56.422 C85.9821667,56.2313333 85.525,56.136 84.979,56.136 C84.641,56.136 84.3246667,56.1771667 84.03,56.2595 C83.7353333,56.3418333 83.4818333,56.4653333 83.2695,56.63 C83.0571667,56.7946667 82.8903333,57.0005 82.769,57.2475 C82.6476667,57.4945 82.587,57.7826667 82.587,58.112 C82.587,58.424 82.6411667,58.6926667 82.7495,58.918 C82.8578333,59.1433333 83.0095,59.3318333 83.2045,59.4835 C83.3995,59.6351667 83.627,59.7565 83.887,59.8475 C84.147,59.9385 84.433,60.0056667 84.745,60.049 L84.745,60.049 L85.278,60.127 C85.72,60.1963333 86.0255,60.3241667 86.1945,60.5105 C86.3635,60.6968333 86.448,60.92 86.448,61.18 C86.448,61.5266667 86.3245,61.7953333 86.0775,61.986 C85.8305,62.1766667 85.486,62.272 85.044,62.272 C84.6193333,62.272 84.2466667,62.1831667 83.926,62.0055 C83.6053333,61.8278333 83.315,61.5743333 83.055,61.245 L83.055,61.245 L82.314,61.843 C82.6173333,62.2416667 82.9791667,62.5601667 83.3995,62.7985 C83.8198333,63.0368333 84.342,63.156 84.966,63.156 Z M89.802,54.719 C90.0273333,54.719 90.1898333,54.6648333 90.2895,54.5565 C90.3891667,54.4481667 90.439,54.3073333 90.439,54.134 L90.439,54.134 L90.439,53.965 C90.439,53.7916667 90.3891667,53.6508333 90.2895,53.5425 C90.1898333,53.4341667 90.0273333,53.38 89.802,53.38 C89.5766667,53.38 89.4141667,53.4341667 89.3145,53.5425 C89.2148333,53.6508333 89.165,53.7916667 89.165,53.965 L89.165,53.965 L89.165,54.134 C89.165,54.3073333 89.2148333,54.4481667 89.3145,54.5565 C89.4141667,54.6648333 89.5766667,54.719 89.802,54.719 Z M90.322,63 L90.322,56.292 L89.282,56.292 L89.282,63 L90.322,63 Z M95.067,63.156 C95.5176667,63.156 95.9271667,63.0736667 96.2955,62.909 C96.6638333,62.7443333 96.9823333,62.5081667 97.251,62.2005 C97.5196667,61.8928333 97.7276667,61.5245 97.875,61.0955 C98.0223333,60.6665 98.096,60.1833333 98.096,59.646 C98.096,59.1173333 98.0223333,58.6363333 97.875,58.203 C97.7276667,57.7696667 97.5196667,57.3991667 97.251,57.0915 C96.9823333,56.7838333 96.6638333,56.5476667 96.2955,56.383 C95.9271667,56.2183333 95.5176667,56.136 95.067,56.136 C94.6163333,56.136 94.2046667,56.2183333 93.832,56.383 C93.4593333,56.5476667 93.1408333,56.7838333 92.8765,57.0915 C92.6121667,57.3991667 92.4063333,57.7696667 92.259,58.203 C92.1116667,58.6363333 92.038,59.1173333 92.038,59.646 C92.038,60.1833333 92.1116667,60.6665 92.259,61.0955 C92.4063333,61.5245 92.6121667,61.8928333 92.8765,62.2005 C93.1408333,62.5081667 93.4593333,62.7443333 93.832,62.909 C94.2046667,63.0736667 94.6163333,63.156 95.067,63.156 Z M95.067,62.233 C94.5036667,62.233 94.0443333,62.0596667 93.689,61.713 C93.3336667,61.3663333 93.156,60.8376667 93.156,60.127 L93.156,60.127 L93.156,59.165 C93.156,58.4543333 93.3336667,57.9256667 93.689,57.579 C94.0443333,57.2323333 94.5036667,57.059 95.067,57.059 C95.6303333,57.059 96.0896667,57.2323333 96.445,57.579 C96.8003333,57.9256667 96.978,58.4543333 96.978,59.165 L96.978,59.165 L96.978,60.127 C96.978,60.8376667 96.8003333,61.3663333 96.445,61.713 C96.0896667,62.0596667 95.6303333,62.233 95.067,62.233 Z M100.852,63 L100.852,58.346 C100.852,58.1293333 100.8975,57.9408333 100.9885,57.7805 C101.0795,57.6201667 101.203,57.488 101.359,57.384 C101.515,57.28 101.6905,57.202 101.8855,57.15 C102.0805,57.098 102.282,57.072 102.49,57.072 C103.504,57.072 104.011,57.6743333 104.011,58.879 L104.011,58.879 L104.011,63 L105.051,63 L105.051,58.697 C105.051,57.8823333 104.8495,57.2518333 104.4465,56.8055 C104.0435,56.3591667 103.495333,56.136 102.802,56.136 C102.299333,56.136 101.8985,56.2486667 101.5995,56.474 C101.3005,56.6993333 101.068667,57.0026667 100.904,57.384 L100.904,57.384 L100.852,57.384 L100.852,56.292 L99.812,56.292 L99.812,63 L100.852,63 Z M110.589,63 L112.474,60.374 L112.513,60.374 L114.255,63 L115.477,63 L113.059,59.542 L115.425,56.292 L114.268,56.292 L112.5,58.788 L112.461,58.788 L110.758,56.292 L109.536,56.292 L111.915,59.62 L109.432,63 L110.589,63 Z M120.222,63 L121.132,60.322 L124.798,60.322 L125.708,63 L126.852,63 L123.68,53.926 L122.289,53.926 L119.117,63 L120.222,63 Z M124.525,59.36 L121.392,59.36 L122.926,54.94 L122.991,54.94 L124.525,59.36 Z M130.531,63.156 C131.432333,63.156 132.086667,62.74 132.494,61.908 L132.494,61.908 L132.546,61.908 L132.546,63 L133.586,63 L133.586,53.38 L132.546,53.38 L132.546,57.384 L132.494,57.384 C132.320667,56.9593333 132.067167,56.6451667 131.7335,56.4415 C131.399833,56.2378333 130.999,56.136 130.531,56.136 C130.115,56.136 129.738,56.2183333 129.4,56.383 C129.062,56.5476667 128.773833,56.7816667 128.5355,57.085 C128.297167,57.3883333 128.115167,57.7566667 127.9895,58.19 C127.863833,58.6233333 127.801,59.1086667 127.801,59.646 C127.801,60.1833333 127.863833,60.6686667 127.9895,61.102 C128.115167,61.5353333 128.297167,61.9036667 128.5355,62.207 C128.773833,62.5103333 129.062,62.7443333 129.4,62.909 C129.738,63.0736667 130.115,63.156 130.531,63.156 Z M130.817,62.22 C130.227667,62.22 129.764,62.0358333 129.426,61.6675 C129.088,61.2991667 128.919,60.816 128.919,60.218 L128.919,60.218 L128.919,59.074 C128.919,58.476 129.088,57.9928333 129.426,57.6245 C129.764,57.2561667 130.227667,57.072 130.817,57.072 C131.051,57.072 131.274167,57.1045 131.4865,57.1695 C131.698833,57.2345 131.883,57.3233333 132.039,57.436 C132.195,57.5486667 132.3185,57.6851667 132.4095,57.8455 C132.5005,58.0058333 132.546,58.177 132.546,58.359 L132.546,58.359 L132.546,60.855 C132.546,61.0716667 132.5005,61.2645 132.4095,61.4335 C132.3185,61.6025 132.195,61.7455 132.039,61.8625 C131.883,61.9795 131.698833,62.0683333 131.4865,62.129 C131.274167,62.1896667 131.051,62.22 130.817,62.22 Z M136.316,54.719 C136.541333,54.719 136.703833,54.6648333 136.8035,54.5565 C136.903167,54.4481667 136.953,54.3073333 136.953,54.134 L136.953,54.134 L136.953,53.965 C136.953,53.7916667 136.903167,53.6508333 136.8035,53.5425 C136.703833,53.4341667 136.541333,53.38 136.316,53.38 C136.090667,53.38 135.928167,53.4341667 135.8285,53.5425 C135.728833,53.6508333 135.679,53.7916667 135.679,53.965 L135.679,53.965 L135.679,54.134 C135.679,54.3073333 135.728833,54.4481667 135.8285,54.5565 C135.928167,54.6648333 136.090667,54.719 136.316,54.719 Z M135.38,65.6 C135.882667,65.6 136.251,65.457 136.485,65.171 C136.719,64.885 136.836,64.508 136.836,64.04 L136.836,64.04 L136.836,56.292 L135.796,56.292 L135.796,64.69 L134.704,64.69 L134.704,65.6 L135.38,65.6 Z M141.243,63.156 C141.520333,63.156 141.763,63.1213333 141.971,63.052 C142.179,62.9826667 142.356667,62.8895 142.504,62.7725 C142.651333,62.6555 142.774833,62.5211667 142.8745,62.3695 C142.974167,62.2178333 143.058667,62.064 143.128,61.908 L143.128,61.908 L143.18,61.908 L143.18,63 L144.22,63 L144.22,56.292 L143.18,56.292 L143.18,60.933 C143.18,61.1583333 143.1345,61.3511667 143.0435,61.5115 C142.9525,61.6718333 142.831167,61.804 142.6795,61.908 C142.527833,62.012 142.3545,62.09 142.1595,62.142 C141.9645,62.194 141.763,62.22 141.555,62.22 C140.532333,62.22 140.021,61.6176667 140.021,60.413 L140.021,60.413 L140.021,56.292 L138.981,56.292 L138.981,60.595 C138.981,61.4096667 139.184667,62.0401667 139.592,62.4865 C139.999333,62.9328333 140.549667,63.156 141.243,63.156 Z M148.445,63.156 C149.216333,63.156 149.823,62.9696667 150.265,62.597 C150.707,62.2243333 150.928,61.713 150.928,61.063 C150.928,60.5516667 150.772,60.1378333 150.46,59.8215 C150.148,59.5051667 149.619333,59.2906667 148.874,59.178 L148.874,59.178 L148.354,59.1 C147.938,59.0306667 147.6195,58.9223333 147.3985,58.775 C147.1775,58.6276667 147.067,58.3893333 147.067,58.06 C147.067,57.7393333 147.1775,57.4858333 147.3985,57.2995 C147.6195,57.1131667 147.946667,57.02 148.38,57.02 C148.813333,57.02 149.173,57.1045 149.459,57.2735 C149.745,57.4425 149.961667,57.631 150.109,57.839 L150.109,57.839 L150.798,57.215 C150.520667,56.877 150.197833,56.6126667 149.8295,56.422 C149.461167,56.2313333 149.004,56.136 148.458,56.136 C148.12,56.136 147.803667,56.1771667 147.509,56.2595 C147.214333,56.3418333 146.960833,56.4653333 146.7485,56.63 C146.536167,56.7946667 146.369333,57.0005 146.248,57.2475 C146.126667,57.4945 146.066,57.7826667 146.066,58.112 C146.066,58.424 146.120167,58.6926667 146.2285,58.918 C146.336833,59.1433333 146.4885,59.3318333 146.6835,59.4835 C146.8785,59.6351667 147.106,59.7565 147.366,59.8475 C147.626,59.9385 147.912,60.0056667 148.224,60.049 L148.224,60.049 L148.757,60.127 C149.199,60.1963333 149.5045,60.3241667 149.6735,60.5105 C149.8425,60.6968333 149.927,60.92 149.927,61.18 C149.927,61.5266667 149.8035,61.7953333 149.5565,61.986 C149.3095,62.1766667 148.965,62.272 148.523,62.272 C148.098333,62.272 147.725667,62.1831667 147.405,62.0055 C147.084333,61.8278333 146.794,61.5743333 146.534,61.245 L146.534,61.245 L145.793,61.843 C146.096333,62.2416667 146.458167,62.5601667 146.8785,62.7985 C147.298833,63.0368333 147.821,63.156 148.445,63.156 Z M155.543,63 L155.543,62.09 L154.178,62.09 L154.178,57.202 L155.647,57.202 L155.647,56.292 L154.178,56.292 L154.178,54.433 L153.242,54.433 L153.242,55.681 C153.242,55.9063333 153.200833,56.0645 153.1185,56.1555 C153.036167,56.2465 152.882333,56.292 152.657,56.292 L152.657,56.292 L152.033,56.292 L152.033,57.202 L153.138,57.202 L153.138,61.895 C153.138,62.2243333 153.231167,62.4908333 153.4175,62.6945 C153.603833,62.8981667 153.879,63 154.243,63 L154.243,63 L155.543,63 Z M159.846,63.156 C160.478667,63.156 161.024667,63.0151667 161.484,62.7335 C161.943333,62.4518333 162.281333,62.0813333 162.498,61.622 L162.498,61.622 L161.757,61.089 C161.583667,61.4616667 161.338833,61.7476667 161.0225,61.947 C160.706167,62.1463333 160.335667,62.246 159.911,62.246 C159.599,62.246 159.3195,62.194 159.0725,62.09 C158.8255,61.986 158.6175,61.843 158.4485,61.661 C158.2795,61.479 158.1495,61.2645 158.0585,61.0175 C157.9675,60.7705 157.922,60.504 157.922,60.218 L157.922,60.218 L157.922,59.906 L162.745,59.906 L162.745,59.412 C162.745,58.9353333 162.677833,58.4976667 162.5435,58.099 C162.409167,57.7003333 162.216333,57.3558333 161.965,57.0655 C161.713667,56.7751667 161.410333,56.5476667 161.055,56.383 C160.699667,56.2183333 160.296667,56.136 159.846,56.136 C159.386667,56.136 158.972833,56.2183333 158.6045,56.383 C158.236167,56.5476667 157.919833,56.7838333 157.6555,57.0915 C157.391167,57.3991667 157.1875,57.7696667 157.0445,58.203 C156.9015,58.6363333 156.83,59.1173333 156.83,59.646 C156.83,60.1833333 156.9015,60.6665 157.0445,61.0955 C157.1875,61.5245 157.391167,61.8928333 157.6555,62.2005 C157.919833,62.5081667 158.236167,62.7443333 158.6045,62.909 C158.972833,63.0736667 159.386667,63.156 159.846,63.156 Z M161.627,59.126 L157.922,59.126 L157.922,59.035 C157.922,58.7403333 157.969667,58.4695 158.065,58.2225 C158.160333,57.9755 158.2925,57.761 158.4615,57.579 C158.6305,57.397 158.832,57.2561667 159.066,57.1565 C159.3,57.0568333 159.56,57.007 159.846,57.007 C160.383333,57.007 160.8145,57.1868333 161.1395,57.5465 C161.4645,57.9061667 161.627,58.385 161.627,58.983 L161.627,58.983 L161.627,59.126 Z M166.736,63.156 C167.637333,63.156 168.291667,62.74 168.699,61.908 L168.699,61.908 L168.751,61.908 L168.751,63 L169.791,63 L169.791,53.38 L168.751,53.38 L168.751,57.384 L168.699,57.384 C168.525667,56.9593333 168.272167,56.6451667 167.9385,56.4415 C167.604833,56.2378333 167.204,56.136 166.736,56.136 C166.32,56.136 165.943,56.2183333 165.605,56.383 C165.267,56.5476667 164.978833,56.7816667 164.7405,57.085 C164.502167,57.3883333 164.320167,57.7566667 164.1945,58.19 C164.068833,58.6233333 164.006,59.1086667 164.006,59.646 C164.006,60.1833333 164.068833,60.6686667 164.1945,61.102 C164.320167,61.5353333 164.502167,61.9036667 164.7405,62.207 C164.978833,62.5103333 165.267,62.7443333 165.605,62.909 C165.943,63.0736667 166.32,63.156 166.736,63.156 Z M167.022,62.22 C166.432667,62.22 165.969,62.0358333 165.631,61.6675 C165.293,61.2991667 165.124,60.816 165.124,60.218 L165.124,60.218 L165.124,59.074 C165.124,58.476 165.293,57.9928333 165.631,57.6245 C165.969,57.2561667 166.432667,57.072 167.022,57.072 C167.256,57.072 167.479167,57.1045 167.6915,57.1695 C167.903833,57.2345 168.088,57.3233333 168.244,57.436 C168.4,57.5486667 168.5235,57.6851667 168.6145,57.8455 C168.7055,58.0058333 168.751,58.177 168.751,58.359 L168.751,58.359 L168.751,60.855 C168.751,61.0716667 168.7055,61.2645 168.6145,61.4335 C168.5235,61.6025 168.4,61.7455 168.244,61.8625 C168.088,61.9795 167.903833,62.0683333 167.6915,62.129 C167.479167,62.1896667 167.256,62.22 167.022,62.22 Z M177.76,63 L180.126,56.292 L179.125,56.292 L177.929,59.62 L177.201,61.908 L177.136,61.908 L176.408,59.62 L175.238,56.292 L174.198,56.292 L176.551,63 L177.76,63 Z M184,63.156 C184.450667,63.156 184.860167,63.0736667 185.2285,62.909 C185.596833,62.7443333 185.915333,62.5081667 186.184,62.2005 C186.452667,61.8928333 186.660667,61.5245 186.808,61.0955 C186.955333,60.6665 187.029,60.1833333 187.029,59.646 C187.029,59.1173333 186.955333,58.6363333 186.808,58.203 C186.660667,57.7696667 186.452667,57.3991667 186.184,57.0915 C185.915333,56.7838333 185.596833,56.5476667 185.2285,56.383 C184.860167,56.2183333 184.450667,56.136 184,56.136 C183.549333,56.136 183.137667,56.2183333 182.765,56.383 C182.392333,56.5476667 182.073833,56.7838333 181.8095,57.0915 C181.545167,57.3991667 181.339333,57.7696667 181.192,58.203 C181.044667,58.6363333 180.971,59.1173333 180.971,59.646 C180.971,60.1833333 181.044667,60.6665 181.192,61.0955 C181.339333,61.5245 181.545167,61.8928333 181.8095,62.2005 C182.073833,62.5081667 182.392333,62.7443333 182.765,62.909 C183.137667,63.0736667 183.549333,63.156 184,63.156 Z M184,62.233 C183.436667,62.233 182.977333,62.0596667 182.622,61.713 C182.266667,61.3663333 182.089,60.8376667 182.089,60.127 L182.089,60.127 L182.089,59.165 C182.089,58.4543333 182.266667,57.9256667 182.622,57.579 C182.977333,57.2323333 183.436667,57.059 184,57.059 C184.563333,57.059 185.022667,57.2323333 185.378,57.579 C185.733333,57.9256667 185.911,58.4543333 185.911,59.165 L185.911,59.165 L185.911,60.127 C185.911,60.8376667 185.733333,61.3663333 185.378,61.713 C185.022667,62.0596667 184.563333,62.233 184,62.233 Z M190.773,63 L190.773,62.09 L189.785,62.09 L189.785,53.38 L188.745,53.38 L188.745,61.921 C188.745,62.233 188.838167,62.4908333 189.0245,62.6945 C189.210833,62.8981667 189.486,63 189.85,63 L189.85,63 L190.773,63 Z M194.478,63.156 C194.755333,63.156 194.998,63.1213333 195.206,63.052 C195.414,62.9826667 195.591667,62.8895 195.739,62.7725 C195.886333,62.6555 196.009833,62.5211667 196.1095,62.3695 C196.209167,62.2178333 196.293667,62.064 196.363,61.908 L196.363,61.908 L196.415,61.908 L196.415,63 L197.455,63 L197.455,56.292 L196.415,56.292 L196.415,60.933 C196.415,61.1583333 196.3695,61.3511667 196.2785,61.5115 C196.1875,61.6718333 196.066167,61.804 195.9145,61.908 C195.762833,62.012 195.5895,62.09 195.3945,62.142 C195.1995,62.194 194.998,62.22 194.79,62.22 C193.767333,62.22 193.256,61.6176667 193.256,60.413 L193.256,60.413 L193.256,56.292 L192.216,56.292 L192.216,60.595 C192.216,61.4096667 192.419667,62.0401667 192.827,62.4865 C193.234333,62.9328333 193.784667,63.156 194.478,63.156 Z M200.705,63 L200.705,58.346 C200.705,58.1293333 200.7505,57.9408333 200.8415,57.7805 C200.9325,57.6201667 201.051667,57.488 201.199,57.384 C201.346333,57.28 201.515333,57.202 201.706,57.15 C201.896667,57.098 202.096,57.072 202.304,57.072 C202.798,57.072 203.162,57.2236667 203.396,57.527 C203.63,57.8303333 203.747,58.281 203.747,58.879 L203.747,58.879 L203.747,63 L204.787,63 L204.787,58.346 C204.787,58.1293333 204.830333,57.9408333 204.917,57.7805 C205.003667,57.6201667 205.120667,57.488 205.268,57.384 C205.415333,57.28 205.582167,57.202 205.7685,57.15 C205.954833,57.098 206.152,57.072 206.36,57.072 C206.871333,57.072 207.244,57.2236667 207.478,57.527 C207.712,57.8303333 207.829,58.281 207.829,58.879 L207.829,58.879 L207.829,63 L208.869,63 L208.869,58.697 C208.869,57.8823333 208.676167,57.2518333 208.2905,56.8055 C207.904833,56.3591667 207.369667,56.136 206.685,56.136 C206.113,56.136 205.660167,56.2725 205.3265,56.5455 C204.992833,56.8185 204.765333,57.137 204.644,57.501 L204.644,57.501 L204.618,57.501 C204.436,57.0156667 204.158667,56.6668333 203.786,56.4545 C203.413333,56.2421667 203.006,56.136 202.564,56.136 C202.304,56.136 202.078667,56.1685 201.888,56.2335 C201.697333,56.2985 201.5305,56.3873333 201.3875,56.5 C201.2445,56.6126667 201.123167,56.7448333 201.0235,56.8965 C200.923833,57.0481667 200.835,57.2106667 200.757,57.384 L200.757,57.384 L200.705,57.384 L200.705,56.292 L199.665,56.292 L199.665,63 L200.705,63 Z M213.536,63.156 C214.168667,63.156 214.714667,63.0151667 215.174,62.7335 C215.633333,62.4518333 215.971333,62.0813333 216.188,61.622 L216.188,61.622 L215.447,61.089 C215.273667,61.4616667 215.028833,61.7476667 214.7125,61.947 C214.396167,62.1463333 214.025667,62.246 213.601,62.246 C213.289,62.246 213.0095,62.194 212.7625,62.09 C212.5155,61.986 212.3075,61.843 212.1385,61.661 C211.9695,61.479 211.8395,61.2645 211.7485,61.0175 C211.6575,60.7705 211.612,60.504 211.612,60.218 L211.612,60.218 L211.612,59.906 L216.435,59.906 L216.435,59.412 C216.435,58.9353333 216.367833,58.4976667 216.2335,58.099 C216.099167,57.7003333 215.906333,57.3558333 215.655,57.0655 C215.403667,56.7751667 215.100333,56.5476667 214.745,56.383 C214.389667,56.2183333 213.986667,56.136 213.536,56.136 C213.076667,56.136 212.662833,56.2183333 212.2945,56.383 C211.926167,56.5476667 211.609833,56.7838333 211.3455,57.0915 C211.081167,57.3991667 210.8775,57.7696667 210.7345,58.203 C210.5915,58.6363333 210.52,59.1173333 210.52,59.646 C210.52,60.1833333 210.5915,60.6665 210.7345,61.0955 C210.8775,61.5245 211.081167,61.8928333 211.3455,62.2005 C211.609833,62.5081667 211.926167,62.7443333 212.2945,62.909 C212.662833,63.0736667 213.076667,63.156 213.536,63.156 Z M215.317,59.126 L211.612,59.126 L211.612,59.035 C211.612,58.7403333 211.659667,58.4695 211.755,58.2225 C211.850333,57.9755 211.9825,57.761 212.1515,57.579 C212.3205,57.397 212.522,57.2561667 212.756,57.1565 C212.99,57.0568333 213.25,57.007 213.536,57.007 C214.073333,57.007 214.5045,57.1868333 214.8295,57.5465 C215.1545,57.9061667 215.317,58.385 215.317,58.983 L215.317,58.983 L215.317,59.126 Z M221.037,64.781 C221.357667,64.5123333 221.661,64.1743333 221.947,63.767 C222.233,63.3596667 222.482167,62.9046667 222.6945,62.402 C222.906833,61.8993333 223.075833,61.3555 223.2015,60.7705 C223.327167,60.1855 223.39,59.5766667 223.39,58.944 C223.39,58.32 223.329333,57.7176667 223.208,57.137 C223.086667,56.5563333 222.919833,56.0168333 222.7075,55.5185 C222.495167,55.0201667 222.246,54.5673333 221.96,54.16 C221.674,53.7526667 221.366333,53.406 221.037,53.12 L221.037,53.12 L220.049,53.12 C220.413,53.4493333 220.740167,53.822 221.0305,54.238 C221.320833,54.654 221.567833,55.096 221.7715,55.564 C221.975167,56.032 222.133333,56.5086667 222.246,56.994 C222.358667,57.4793333 222.415,57.9473333 222.415,58.398 L222.415,58.398 L222.415,59.516 C222.415,59.9753333 222.358667,60.4476667 222.246,60.933 C222.133333,61.4183333 221.973,61.895 221.765,62.363 C221.557,62.831 221.307833,63.273 221.0175,63.689 C220.727167,64.105 220.404333,64.469 220.049,64.781 L220.049,64.781 L221.037,64.781 Z" id="(Min.commissionxAdjustedvolume)" fill="#2A3052" fill-rule="nonzero"></path>
            <path d="M112.5,0 C113.880712,0 115,1.11928813 115,2.5 C115,3.70932545 114.141338,4.71809967 113.000434,4.94990271 L113,50 L112,50 L112.000574,4.9501074 C110.859168,4.7186941 110,3.70968176 110,2.5 C110,1.11928813 111.119288,0 112.5,0 Z" id="Combined-Shape" fill="#E98024"></path>
        </g>
    </g>
</svg>