<?xml version="1.0" encoding="UTF-8"?>
<svg width="680px" height="97px" viewBox="0 0 680 97" version="1.1" xmlns="http://www.w3.org/2000/svg" xmlns:xlink="http://www.w3.org/1999/xlink">
    <title>Minimum Volume Requirement - Synthetic - Volume in Lots</title>
    <g id="Minimum-Volume-Requirement---Synthetic---Volume-in-Lots" stroke="none" stroke-width="1" fill="none" fill-rule="evenodd">
        <rect id="bottom" fill="#E5E5E5" x="0" y="55" width="680" height="2"></rect>
        <g id="box-4" transform="translate(443.000000, 0.000000)">
            <rect id="leg-2" stroke="#DEDEDE" stroke-width="2" fill="#F2F2F2" x="86" y="41" width="7" height="13"></rect>
            <rect id="leg-1" stroke="#DEDEDE" stroke-width="2" fill="#F2F2F2" x="21" y="41" width="7" height="13"></rect>
            <rect id="back" fill="#2A3052" x="0" y="0" width="114" height="43"></rect>
            <path d="M15.4,28.216 C16.9,28.216 17.995,27.646 18.685,26.506 C19.375,25.366 19.72,23.77 19.72,21.718 C19.72,19.666 19.375,18.07 18.685,16.93 C17.995,15.79 16.9,15.22 15.4,15.22 C13.9,15.22 12.805,15.79 12.115,16.93 C11.425,18.07 11.08,19.666 11.08,21.718 C11.08,23.77 11.425,25.366 12.115,26.506 C12.805,27.646 13.9,28.216 15.4,28.216 Z M15.4,26.902 C14.908,26.902 14.488,26.8 14.14,26.596 C13.792,26.392 13.51,26.104 13.294,25.732 C13.078,25.36 12.919,24.922 12.817,24.418 C12.715,23.914 12.664,23.356 12.664,22.744 L12.664,22.744 L12.664,20.692 C12.664,20.08 12.715,19.522 12.817,19.018 C12.919,18.514 13.078,18.076 13.294,17.704 C13.51,17.332 13.792,17.044 14.14,16.84 C14.488,16.636 14.908,16.534 15.4,16.534 C15.892,16.534 16.312,16.636 16.66,16.84 C17.008,17.044 17.29,17.332 17.506,17.704 C17.722,18.076 17.881,18.514 17.983,19.018 C18.085,19.522 18.136,20.08 18.136,20.692 L18.136,20.692 L18.136,22.744 C18.136,23.356 18.085,23.914 17.983,24.418 C17.881,24.922 17.722,25.36 17.506,25.732 C17.29,26.104 17.008,26.392 16.66,26.596 C16.312,26.8 15.892,26.902 15.4,26.902 Z M23.248,28.216 C23.632,28.216 23.911,28.12 24.085,27.928 C24.259,27.736 24.346,27.484 24.346,27.172 L24.346,27.172 L24.346,26.938 C24.346,26.626 24.259,26.374 24.085,26.182 C23.911,25.99 23.632,25.894 23.248,25.894 C22.864,25.894 22.585,25.99 22.411,26.182 C22.237,26.374 22.15,26.626 22.15,26.938 L22.15,26.938 L22.15,27.172 C22.15,27.484 22.237,27.736 22.411,27.928 C22.585,28.12 22.864,28.216 23.248,28.216 Z M31.096,28.216 C32.596,28.216 33.691,27.646 34.381,26.506 C35.071,25.366 35.416,23.77 35.416,21.718 C35.416,19.666 35.071,18.07 34.381,16.93 C33.691,15.79 32.596,15.22 31.096,15.22 C29.596,15.22 28.501,15.79 27.811,16.93 C27.121,18.07 26.776,19.666 26.776,21.718 C26.776,23.77 27.121,25.366 27.811,26.506 C28.501,27.646 29.596,28.216 31.096,28.216 Z M31.096,26.902 C30.604,26.902 30.184,26.8 29.836,26.596 C29.488,26.392 29.206,26.104 28.99,25.732 C28.774,25.36 28.615,24.922 28.513,24.418 C28.411,23.914 28.36,23.356 28.36,22.744 L28.36,22.744 L28.36,20.692 C28.36,20.08 28.411,19.522 28.513,19.018 C28.615,18.514 28.774,18.076 28.99,17.704 C29.206,17.332 29.488,17.044 29.836,16.84 C30.184,16.636 30.604,16.534 31.096,16.534 C31.588,16.534 32.008,16.636 32.356,16.84 C32.704,17.044 32.986,17.332 33.202,17.704 C33.418,18.076 33.577,18.514 33.679,19.018 C33.781,19.522 33.832,20.08 33.832,20.692 L33.832,20.692 L33.832,22.744 C33.832,23.356 33.781,23.914 33.679,24.418 C33.577,24.922 33.418,25.36 33.202,25.732 C32.986,26.104 32.704,26.392 32.356,26.596 C32.008,26.8 31.588,26.902 31.096,26.902 Z M41.896,28.216 C43.396,28.216 44.491,27.646 45.181,26.506 C45.871,25.366 46.216,23.77 46.216,21.718 C46.216,19.666 45.871,18.07 45.181,16.93 C44.491,15.79 43.396,15.22 41.896,15.22 C40.396,15.22 39.301,15.79 38.611,16.93 C37.921,18.07 37.576,19.666 37.576,21.718 C37.576,23.77 37.921,25.366 38.611,26.506 C39.301,27.646 40.396,28.216 41.896,28.216 Z M41.896,26.902 C41.404,26.902 40.984,26.8 40.636,26.596 C40.288,26.392 40.006,26.104 39.79,25.732 C39.574,25.36 39.415,24.922 39.313,24.418 C39.211,23.914 39.16,23.356 39.16,22.744 L39.16,22.744 L39.16,20.692 C39.16,20.08 39.211,19.522 39.313,19.018 C39.415,18.514 39.574,18.076 39.79,17.704 C40.006,17.332 40.288,17.044 40.636,16.84 C40.984,16.636 41.404,16.534 41.896,16.534 C42.388,16.534 42.808,16.636 43.156,16.84 C43.504,17.044 43.786,17.332 44.002,17.704 C44.218,18.076 44.377,18.514 44.479,19.018 C44.581,19.522 44.632,20.08 44.632,20.692 L44.632,20.692 L44.632,22.744 C44.632,23.356 44.581,23.914 44.479,24.418 C44.377,24.922 44.218,25.36 44.002,25.732 C43.786,26.104 43.504,26.392 43.156,26.596 C42.808,26.8 42.388,26.902 41.896,26.902 Z M52.696,28.216 C54.196,28.216 55.291,27.646 55.981,26.506 C56.671,25.366 57.016,23.77 57.016,21.718 C57.016,19.666 56.671,18.07 55.981,16.93 C55.291,15.79 54.196,15.22 52.696,15.22 C51.196,15.22 50.101,15.79 49.411,16.93 C48.721,18.07 48.376,19.666 48.376,21.718 C48.376,23.77 48.721,25.366 49.411,26.506 C50.101,27.646 51.196,28.216 52.696,28.216 Z M52.696,26.902 C52.204,26.902 51.784,26.8 51.436,26.596 C51.088,26.392 50.806,26.104 50.59,25.732 C50.374,25.36 50.215,24.922 50.113,24.418 C50.011,23.914 49.96,23.356 49.96,22.744 L49.96,22.744 L49.96,20.692 C49.96,20.08 50.011,19.522 50.113,19.018 C50.215,18.514 50.374,18.076 50.59,17.704 C50.806,17.332 51.088,17.044 51.436,16.84 C51.784,16.636 52.204,16.534 52.696,16.534 C53.188,16.534 53.608,16.636 53.956,16.84 C54.304,17.044 54.586,17.332 54.802,17.704 C55.018,18.076 55.177,18.514 55.279,19.018 C55.381,19.522 55.432,20.08 55.432,20.692 L55.432,20.692 L55.432,22.744 C55.432,23.356 55.381,23.914 55.279,24.418 C55.177,24.922 55.018,25.36 54.802,25.732 C54.586,26.104 54.304,26.392 53.956,26.596 C53.608,26.8 53.188,26.902 52.696,26.902 Z M66.286,28 L66.286,25.534 L68.104,25.534 L68.104,24.274 L66.286,24.274 L66.286,15.436 L64.036,15.436 L58.78,24.202 L58.78,25.534 L64.846,25.534 L64.846,28 L66.286,28 Z M64.846,24.274 L60.202,24.274 L64.756,16.606 L64.846,16.606 L64.846,24.274 Z M77.482,28 L77.482,26.74 L76.114,26.74 L76.114,14.68 L74.674,14.68 L74.674,26.506 C74.674,26.938 74.803,27.295 75.061,27.577 C75.319,27.859 75.7,28 76.204,28 L76.204,28 L77.482,28 Z M83.08,28.216 C83.704,28.216 84.271,28.102 84.781,27.874 C85.291,27.646 85.732,27.319 86.104,26.893 C86.476,26.467 86.764,25.957 86.968,25.363 C87.172,24.769 87.274,24.1 87.274,23.356 C87.274,22.624 87.172,21.958 86.968,21.358 C86.764,20.758 86.476,20.245 86.104,19.819 C85.732,19.393 85.291,19.066 84.781,18.838 C84.271,18.61 83.704,18.496 83.08,18.496 C82.456,18.496 81.886,18.61 81.37,18.838 C80.854,19.066 80.413,19.393 80.047,19.819 C79.681,20.245 79.396,20.758 79.192,21.358 C78.988,21.958 78.886,22.624 78.886,23.356 C78.886,24.1 78.988,24.769 79.192,25.363 C79.396,25.957 79.681,26.467 80.047,26.893 C80.413,27.319 80.854,27.646 81.37,27.874 C81.886,28.102 82.456,28.216 83.08,28.216 Z M83.08,26.938 C82.3,26.938 81.664,26.698 81.172,26.218 C80.68,25.738 80.434,25.006 80.434,24.022 L80.434,24.022 L80.434,22.69 C80.434,21.706 80.68,20.974 81.172,20.494 C81.664,20.014 82.3,19.774 83.08,19.774 C83.86,19.774 84.496,20.014 84.988,20.494 C85.48,20.974 85.726,21.706 85.726,22.69 L85.726,22.69 L85.726,24.022 C85.726,25.006 85.48,25.738 84.988,26.218 C84.496,26.698 83.86,26.938 83.08,26.938 Z M93.502,28 L93.502,26.74 L91.612,26.74 L91.612,19.972 L93.646,19.972 L93.646,18.712 L91.612,18.712 L91.612,16.138 L90.316,16.138 L90.316,17.866 C90.316,18.178 90.259,18.397 90.145,18.523 C90.031,18.649 89.818,18.712 89.506,18.712 L89.506,18.712 L88.642,18.712 L88.642,19.972 L90.172,19.972 L90.172,26.47 C90.172,26.926 90.301,27.295 90.559,27.577 C90.817,27.859 91.198,28 91.702,28 L91.702,28 L93.502,28 Z M98.758,28.216 C99.826,28.216 100.666,27.958 101.278,27.442 C101.89,26.926 102.196,26.218 102.196,25.318 C102.196,24.61 101.98,24.037 101.548,23.599 C101.116,23.161 100.384,22.864 99.352,22.708 L99.352,22.708 L98.632,22.6 C98.056,22.504 97.615,22.354 97.309,22.15 C97.003,21.946 96.85,21.616 96.85,21.16 C96.85,20.716 97.003,20.365 97.309,20.107 C97.615,19.849 98.068,19.72 98.668,19.72 C99.268,19.72 99.766,19.837 100.162,20.071 C100.558,20.305 100.858,20.566 101.062,20.854 L101.062,20.854 L102.016,19.99 C101.632,19.522 101.185,19.156 100.675,18.892 C100.165,18.628 99.532,18.496 98.776,18.496 C98.308,18.496 97.87,18.553 97.462,18.667 C97.054,18.781 96.703,18.952 96.409,19.18 C96.115,19.408 95.884,19.693 95.716,20.035 C95.548,20.377 95.464,20.776 95.464,21.232 C95.464,21.664 95.539,22.036 95.689,22.348 C95.839,22.66 96.049,22.921 96.319,23.131 C96.589,23.341 96.904,23.509 97.264,23.635 C97.624,23.761 98.02,23.854 98.452,23.914 L98.452,23.914 L99.19,24.022 C99.802,24.118 100.225,24.295 100.459,24.553 C100.693,24.811 100.81,25.12 100.81,25.48 C100.81,25.96 100.639,26.332 100.297,26.596 C99.955,26.86 99.478,26.992 98.866,26.992 C98.278,26.992 97.762,26.869 97.318,26.623 C96.874,26.377 96.472,26.026 96.112,25.57 L96.112,25.57 L95.086,26.398 C95.506,26.95 96.007,27.391 96.589,27.721 C97.171,28.051 97.894,28.216 98.758,28.216 Z" id="0.0004lots" fill="#FFFFFF" fill-rule="nonzero"></path>
        </g>
        <g id="note" transform="translate(464.000000, 33.000000)">
            <path d="M5.248,63.156 C5.85466667,63.156 6.36816667,63.078 6.7885,62.922 C7.20883333,62.766 7.549,62.5276667 7.809,62.207 C8.069,61.8863333 8.2575,61.4833333 8.3745,60.998 C8.4915,60.5126667 8.55,59.9406667 8.55,59.282 L8.55,59.282 L8.55,53.926 L7.458,53.926 L7.458,59.542 C7.458,60.4086667 7.29766667,61.0651667 6.977,61.5115 C6.65633333,61.9578333 6.093,62.181 5.287,62.181 C4.481,62.181 3.91766667,61.9578333 3.597,61.5115 C3.27633333,61.0651667 3.116,60.4086667 3.116,59.542 L3.116,59.542 L3.116,53.926 L2.024,53.926 L2.024,59.282 C2.024,59.9406667 2.07816667,60.5126667 2.1865,60.998 C2.29483333,61.4833333 2.47466667,61.8863333 2.726,62.207 C2.97733333,62.5276667 3.30883333,62.766 3.7205,62.922 C4.13216667,63.078 4.64133333,63.156 5.248,63.156 Z M13.451,63.156 C13.9363333,63.156 14.3718333,63.091 14.7575,62.961 C15.1431667,62.831 15.4703333,62.649 15.739,62.415 C16.0076667,62.181 16.2135,61.895 16.3565,61.557 C16.4995,61.219 16.571,60.842 16.571,60.426 C16.571,59.75 16.3716667,59.2083333 15.973,58.801 C15.5743333,58.3936667 14.9286667,58.0903333 14.036,57.891 L14.036,57.891 L13.295,57.722 C12.723,57.592 12.2961667,57.4165 12.0145,57.1955 C11.7328333,56.9745 11.592,56.6473333 11.592,56.214 C11.592,55.72 11.7588333,55.3495 12.0925,55.1025 C12.4261667,54.8555 12.8833333,54.732 13.464,54.732 C13.9926667,54.732 14.4346667,54.8316667 14.79,55.031 C15.1453333,55.2303333 15.4486667,55.5033333 15.7,55.85 L15.7,55.85 L16.519,55.252 C16.181,54.7666667 15.7671667,54.3983333 15.2775,54.147 C14.7878333,53.8956667 14.2006667,53.77 13.516,53.77 C13.074,53.77 12.6688333,53.8241667 12.3005,53.9325 C11.9321667,54.0408333 11.6158333,54.199 11.3515,54.407 C11.0871667,54.615 10.8813333,54.875 10.734,55.187 C10.5866667,55.499 10.513,55.8543333 10.513,56.253 C10.513,56.955 10.7318333,57.4988333 11.1695,57.8845 C11.6071667,58.2701667 12.242,58.5583333 13.074,58.749 L13.074,58.749 L13.815,58.918 C14.413,59.0566667 14.842,59.243 15.102,59.477 C15.362,59.711 15.492,60.0446667 15.492,60.478 C15.492,60.998 15.3208333,61.414 14.9785,61.726 C14.6361667,62.038 14.14,62.194 13.49,62.194 C12.9613333,62.194 12.502,62.0835 12.112,61.8625 C11.722,61.6415 11.3666667,61.3186667 11.046,60.894 L11.046,60.894 L10.24,61.57 C10.604,62.064 11.046,62.4518333 11.566,62.7335 C12.086,63.0151667 12.7143333,63.156 13.451,63.156 Z M21.498,63 C22.0613333,63 22.5726667,62.9046667 23.032,62.714 C23.4913333,62.5233333 23.8835,62.2395 24.2085,61.8625 C24.5335,61.4855 24.7826667,61.0131667 24.956,60.4455 C25.1293333,59.8778333 25.216,59.217 25.216,58.463 C25.216,57.709 25.1293333,57.0481667 24.956,56.4805 C24.7826667,55.9128333 24.5335,55.4405 24.2085,55.0635 C23.8835,54.6865 23.4913333,54.4026667 23.032,54.212 C22.5726667,54.0213333 22.0613333,53.926 21.498,53.926 L21.498,53.926 L18.456,53.926 L18.456,63 L21.498,63 Z M21.498,62.038 L19.548,62.038 L19.548,54.888 L21.498,54.888 C21.8706667,54.888 22.213,54.9508333 22.525,55.0765 C22.837,55.2021667 23.1056667,55.3863333 23.331,55.629 C23.5563333,55.8716667 23.7318333,56.1685 23.8575,56.5195 C23.9831667,56.8705 24.046,57.2713333 24.046,57.722 L24.046,57.722 L24.046,59.204 C24.046,59.6546667 23.9831667,60.0555 23.8575,60.4065 C23.7318333,60.7575 23.5563333,61.0543333 23.331,61.297 C23.1056667,61.5396667 22.837,61.7238333 22.525,61.8495 C22.213,61.9751667 21.8706667,62.038 21.498,62.038 L21.498,62.038 Z M32.834,63 L35.2,56.292 L34.199,56.292 L33.003,59.62 L32.275,61.908 L32.21,61.908 L31.482,59.62 L30.312,56.292 L29.272,56.292 L31.625,63 L32.834,63 Z M39.074,63.156 C39.5246667,63.156 39.9341667,63.0736667 40.3025,62.909 C40.6708333,62.7443333 40.9893333,62.5081667 41.258,62.2005 C41.5266667,61.8928333 41.7346667,61.5245 41.882,61.0955 C42.0293333,60.6665 42.103,60.1833333 42.103,59.646 C42.103,59.1173333 42.0293333,58.6363333 41.882,58.203 C41.7346667,57.7696667 41.5266667,57.3991667 41.258,57.0915 C40.9893333,56.7838333 40.6708333,56.5476667 40.3025,56.383 C39.9341667,56.2183333 39.5246667,56.136 39.074,56.136 C38.6233333,56.136 38.2116667,56.2183333 37.839,56.383 C37.4663333,56.5476667 37.1478333,56.7838333 36.8835,57.0915 C36.6191667,57.3991667 36.4133333,57.7696667 36.266,58.203 C36.1186667,58.6363333 36.045,59.1173333 36.045,59.646 C36.045,60.1833333 36.1186667,60.6665 36.266,61.0955 C36.4133333,61.5245 36.6191667,61.8928333 36.8835,62.2005 C37.1478333,62.5081667 37.4663333,62.7443333 37.839,62.909 C38.2116667,63.0736667 38.6233333,63.156 39.074,63.156 Z M39.074,62.233 C38.5106667,62.233 38.0513333,62.0596667 37.696,61.713 C37.3406667,61.3663333 37.163,60.8376667 37.163,60.127 L37.163,60.127 L37.163,59.165 C37.163,58.4543333 37.3406667,57.9256667 37.696,57.579 C38.0513333,57.2323333 38.5106667,57.059 39.074,57.059 C39.6373333,57.059 40.0966667,57.2323333 40.452,57.579 C40.8073333,57.9256667 40.985,58.4543333 40.985,59.165 L40.985,59.165 L40.985,60.127 C40.985,60.8376667 40.8073333,61.3663333 40.452,61.713 C40.0966667,62.0596667 39.6373333,62.233 39.074,62.233 Z M45.847,63 L45.847,62.09 L44.859,62.09 L44.859,53.38 L43.819,53.38 L43.819,61.921 C43.819,62.233 43.9121667,62.4908333 44.0985,62.6945 C44.2848333,62.8981667 44.56,63 44.924,63 L44.924,63 L45.847,63 Z M49.552,63.156 C49.8293333,63.156 50.072,63.1213333 50.28,63.052 C50.488,62.9826667 50.6656667,62.8895 50.813,62.7725 C50.9603333,62.6555 51.0838333,62.5211667 51.1835,62.3695 C51.2831667,62.2178333 51.3676667,62.064 51.437,61.908 L51.437,61.908 L51.489,61.908 L51.489,63 L52.529,63 L52.529,56.292 L51.489,56.292 L51.489,60.933 C51.489,61.1583333 51.4435,61.3511667 51.3525,61.5115 C51.2615,61.6718333 51.1401667,61.804 50.9885,61.908 C50.8368333,62.012 50.6635,62.09 50.4685,62.142 C50.2735,62.194 50.072,62.22 49.864,62.22 C48.8413333,62.22 48.33,61.6176667 48.33,60.413 L48.33,60.413 L48.33,56.292 L47.29,56.292 L47.29,60.595 C47.29,61.4096667 47.4936667,62.0401667 47.901,62.4865 C48.3083333,62.9328333 48.8586667,63.156 49.552,63.156 Z M55.779,63 L55.779,58.346 C55.779,58.1293333 55.8245,57.9408333 55.9155,57.7805 C56.0065,57.6201667 56.1256667,57.488 56.273,57.384 C56.4203333,57.28 56.5893333,57.202 56.78,57.15 C56.9706667,57.098 57.17,57.072 57.378,57.072 C57.872,57.072 58.236,57.2236667 58.47,57.527 C58.704,57.8303333 58.821,58.281 58.821,58.879 L58.821,58.879 L58.821,63 L59.861,63 L59.861,58.346 C59.861,58.1293333 59.9043333,57.9408333 59.991,57.7805 C60.0776667,57.6201667 60.1946667,57.488 60.342,57.384 C60.4893333,57.28 60.6561667,57.202 60.8425,57.15 C61.0288333,57.098 61.226,57.072 61.434,57.072 C61.9453333,57.072 62.318,57.2236667 62.552,57.527 C62.786,57.8303333 62.903,58.281 62.903,58.879 L62.903,58.879 L62.903,63 L63.943,63 L63.943,58.697 C63.943,57.8823333 63.7501667,57.2518333 63.3645,56.8055 C62.9788333,56.3591667 62.4436667,56.136 61.759,56.136 C61.187,56.136 60.7341667,56.2725 60.4005,56.5455 C60.0668333,56.8185 59.8393333,57.137 59.718,57.501 L59.718,57.501 L59.692,57.501 C59.51,57.0156667 59.2326667,56.6668333 58.86,56.4545 C58.4873333,56.2421667 58.08,56.136 57.638,56.136 C57.378,56.136 57.1526667,56.1685 56.962,56.2335 C56.7713333,56.2985 56.6045,56.3873333 56.4615,56.5 C56.3185,56.6126667 56.1971667,56.7448333 56.0975,56.8965 C55.9978333,57.0481667 55.909,57.2106667 55.831,57.384 L55.831,57.384 L55.779,57.384 L55.779,56.292 L54.739,56.292 L54.739,63 L55.779,63 Z M68.61,63.156 C69.2426667,63.156 69.7886667,63.0151667 70.248,62.7335 C70.7073333,62.4518333 71.0453333,62.0813333 71.262,61.622 L71.262,61.622 L70.521,61.089 C70.3476667,61.4616667 70.1028333,61.7476667 69.7865,61.947 C69.4701667,62.1463333 69.0996667,62.246 68.675,62.246 C68.363,62.246 68.0835,62.194 67.8365,62.09 C67.5895,61.986 67.3815,61.843 67.2125,61.661 C67.0435,61.479 66.9135,61.2645 66.8225,61.0175 C66.7315,60.7705 66.686,60.504 66.686,60.218 L66.686,60.218 L66.686,59.906 L71.509,59.906 L71.509,59.412 C71.509,58.9353333 71.4418333,58.4976667 71.3075,58.099 C71.1731667,57.7003333 70.9803333,57.3558333 70.729,57.0655 C70.4776667,56.7751667 70.1743333,56.5476667 69.819,56.383 C69.4636667,56.2183333 69.0606667,56.136 68.61,56.136 C68.1506667,56.136 67.7368333,56.2183333 67.3685,56.383 C67.0001667,56.5476667 66.6838333,56.7838333 66.4195,57.0915 C66.1551667,57.3991667 65.9515,57.7696667 65.8085,58.203 C65.6655,58.6363333 65.594,59.1173333 65.594,59.646 C65.594,60.1833333 65.6655,60.6665 65.8085,61.0955 C65.9515,61.5245 66.1551667,61.8928333 66.4195,62.2005 C66.6838333,62.5081667 67.0001667,62.7443333 67.3685,62.909 C67.7368333,63.0736667 68.1506667,63.156 68.61,63.156 Z M70.391,59.126 L66.686,59.126 L66.686,59.035 C66.686,58.7403333 66.7336667,58.4695 66.829,58.2225 C66.9243333,57.9755 67.0565,57.761 67.2255,57.579 C67.3945,57.397 67.596,57.2561667 67.83,57.1565 C68.064,57.0568333 68.324,57.007 68.61,57.007 C69.1473333,57.007 69.5785,57.1868333 69.9035,57.5465 C70.2285,57.9061667 70.391,58.385 70.391,58.983 L70.391,58.983 L70.391,59.126 Z" id="USDvolume" fill="#2A3052" fill-rule="nonzero"></path>
            <path d="M36.5,0 C37.8807119,0 39,1.11928813 39,2.5 C39,3.70932545 38.1413382,4.71809967 37.0004345,4.94990271 L37,50 L36,50 L36.000574,4.9501074 C34.8591679,4.7186941 34,3.70968176 34,2.5 C34,1.11928813 35.1192881,0 36.5,0 Z" id="Combined-Shape" fill="#E98024"></path>
        </g>
        <path d="M410.792,21.312 L410.792,18.48 L399.608,18.48 L399.608,21.312 L410.792,21.312 Z M410.792,26.88 L410.792,24.048 L399.608,24.048 L399.608,26.88 L410.792,26.88 Z" id="=" fill="#E98024" fill-rule="nonzero"></path>
        <g id="box-2" transform="translate(250.000000, 0.000000)">
            <rect id="leg-2" stroke="#DEDEDE" stroke-width="2" fill="#F2F2F2" x="101" y="41" width="7" height="13"></rect>
            <rect id="leg-1" stroke="#DEDEDE" stroke-width="2" fill="#F2F2F2" x="21" y="41" width="7" height="13"></rect>
            <rect id="back" stroke="#DEDEDE" stroke-width="2" fill="#F2F2F2" x="1" y="1" width="127" height="41"></rect>
            <path d="M16.048,28.216 C16.888,28.216 17.599,28.108 18.181,27.892 C18.763,27.676 19.234,27.346 19.594,26.902 C19.954,26.458 20.215,25.9 20.377,25.228 C20.539,24.556 20.62,23.764 20.62,22.852 L20.62,22.852 L20.62,15.436 L19.108,15.436 L19.108,23.212 C19.108,24.412 18.886,25.321 18.442,25.939 C17.998,26.557 17.218,26.866 16.102,26.866 C14.986,26.866 14.206,26.557 13.762,25.939 C13.318,25.321 13.096,24.412 13.096,23.212 L13.096,23.212 L13.096,15.436 L11.584,15.436 L11.584,22.852 C11.584,23.764 11.659,24.556 11.809,25.228 C11.959,25.9 12.208,26.458 12.556,26.902 C12.904,27.346 13.363,27.676 13.933,27.892 C14.503,28.108 15.208,28.216 16.048,28.216 Z M27.406,28.216 C28.078,28.216 28.681,28.126 29.215,27.946 C29.749,27.766 30.202,27.514 30.574,27.19 C30.946,26.866 31.231,26.47 31.429,26.002 C31.627,25.534 31.726,25.012 31.726,24.436 C31.726,23.5 31.45,22.75 30.898,22.186 C30.346,21.622 29.452,21.202 28.216,20.926 L28.216,20.926 L27.19,20.692 C26.398,20.512 25.807,20.269 25.417,19.963 C25.027,19.657 24.832,19.204 24.832,18.604 C24.832,17.92 25.063,17.407 25.525,17.065 C25.987,16.723 26.62,16.552 27.424,16.552 C28.156,16.552 28.768,16.69 29.26,16.966 C29.752,17.242 30.172,17.62 30.52,18.1 L30.52,18.1 L31.654,17.272 C31.186,16.6 30.613,16.09 29.935,15.742 C29.257,15.394 28.444,15.22 27.496,15.22 C26.884,15.22 26.323,15.295 25.813,15.445 C25.303,15.595 24.865,15.814 24.499,16.102 C24.133,16.39 23.848,16.75 23.644,17.182 C23.44,17.614 23.338,18.106 23.338,18.658 C23.338,19.63 23.641,20.383 24.247,20.917 C24.853,21.451 25.732,21.85 26.884,22.114 L26.884,22.114 L27.91,22.348 C28.738,22.54 29.332,22.798 29.692,23.122 C30.052,23.446 30.232,23.908 30.232,24.508 C30.232,25.228 29.995,25.804 29.521,26.236 C29.047,26.668 28.36,26.884 27.46,26.884 C26.728,26.884 26.092,26.731 25.552,26.425 C25.012,26.119 24.52,25.672 24.076,25.084 L24.076,25.084 L22.96,26.02 C23.464,26.704 24.076,27.241 24.796,27.631 C25.516,28.021 26.386,28.216 27.406,28.216 Z M38.548,28 C39.328,28 40.036,27.868 40.672,27.604 C41.308,27.34 41.851,26.947 42.301,26.425 C42.751,25.903 43.096,25.249 43.336,24.463 C43.576,23.677 43.696,22.762 43.696,21.718 C43.696,20.674 43.576,19.759 43.336,18.973 C43.096,18.187 42.751,17.533 42.301,17.011 C41.851,16.489 41.308,16.096 40.672,15.832 C40.036,15.568 39.328,15.436 38.548,15.436 L38.548,15.436 L34.336,15.436 L34.336,28 L38.548,28 Z M38.548,26.668 L35.848,26.668 L35.848,16.768 L38.548,16.768 C39.064,16.768 39.538,16.855 39.97,17.029 C40.402,17.203 40.774,17.458 41.086,17.794 C41.398,18.13 41.641,18.541 41.815,19.027 C41.989,19.513 42.076,20.068 42.076,20.692 L42.076,20.692 L42.076,22.744 C42.076,23.368 41.989,23.923 41.815,24.409 C41.641,24.895 41.398,25.306 41.086,25.642 C40.774,25.978 40.402,26.233 39.97,26.407 C39.538,26.581 39.064,26.668 38.548,26.668 L38.548,26.668 Z M54.298,28.216 C54.958,28.216 55.549,28.114 56.071,27.91 C56.593,27.706 57.037,27.421 57.403,27.055 C57.769,26.689 58.048,26.251 58.24,25.741 C58.432,25.231 58.528,24.67 58.528,24.058 C58.528,23.446 58.435,22.9 58.249,22.42 C58.063,21.94 57.802,21.535 57.466,21.205 C57.13,20.875 56.734,20.62 56.278,20.44 C55.822,20.26 55.324,20.17 54.784,20.17 C54.124,20.17 53.605,20.296 53.227,20.548 C52.849,20.8 52.51,21.136 52.21,21.556 L52.21,21.556 L52.084,21.556 L52.444,16.768 L57.952,16.768 L57.952,15.436 L51.22,15.436 L50.77,22.348 L52.048,22.528 C52.312,22.24 52.609,21.991 52.939,21.781 C53.269,21.571 53.722,21.466 54.298,21.466 C55.162,21.466 55.816,21.694 56.26,22.15 C56.704,22.606 56.926,23.248 56.926,24.076 L56.926,24.076 L56.926,24.256 C56.926,25.084 56.704,25.726 56.26,26.182 C55.816,26.638 55.162,26.866 54.298,26.866 C53.914,26.866 53.584,26.827 53.308,26.749 C53.032,26.671 52.789,26.56 52.579,26.416 C52.369,26.272 52.177,26.098 52.003,25.894 C51.829,25.69 51.664,25.462 51.508,25.21 L51.508,25.21 L50.374,26.074 C50.566,26.35 50.779,26.614 51.013,26.866 C51.247,27.118 51.52,27.346 51.832,27.55 C52.144,27.754 52.501,27.916 52.903,28.036 C53.305,28.156 53.77,28.216 54.298,28.216 Z M65.188,28.216 C66.688,28.216 67.783,27.646 68.473,26.506 C69.163,25.366 69.508,23.77 69.508,21.718 C69.508,19.666 69.163,18.07 68.473,16.93 C67.783,15.79 66.688,15.22 65.188,15.22 C63.688,15.22 62.593,15.79 61.903,16.93 C61.213,18.07 60.868,19.666 60.868,21.718 C60.868,23.77 61.213,25.366 61.903,26.506 C62.593,27.646 63.688,28.216 65.188,28.216 Z M65.188,26.902 C64.696,26.902 64.276,26.8 63.928,26.596 C63.58,26.392 63.298,26.104 63.082,25.732 C62.866,25.36 62.707,24.922 62.605,24.418 C62.503,23.914 62.452,23.356 62.452,22.744 L62.452,22.744 L62.452,20.692 C62.452,20.08 62.503,19.522 62.605,19.018 C62.707,18.514 62.866,18.076 63.082,17.704 C63.298,17.332 63.58,17.044 63.928,16.84 C64.276,16.636 64.696,16.534 65.188,16.534 C65.68,16.534 66.1,16.636 66.448,16.84 C66.796,17.044 67.078,17.332 67.294,17.704 C67.51,18.076 67.669,18.514 67.771,19.018 C67.873,19.522 67.924,20.08 67.924,20.692 L67.924,20.692 L67.924,22.744 C67.924,23.356 67.873,23.914 67.771,24.418 C67.669,24.922 67.51,25.36 67.294,25.732 C67.078,26.104 66.796,26.392 66.448,26.596 C66.1,26.8 65.68,26.902 65.188,26.902 Z M75.988,28.216 C77.488,28.216 78.583,27.646 79.273,26.506 C79.963,25.366 80.308,23.77 80.308,21.718 C80.308,19.666 79.963,18.07 79.273,16.93 C78.583,15.79 77.488,15.22 75.988,15.22 C74.488,15.22 73.393,15.79 72.703,16.93 C72.013,18.07 71.668,19.666 71.668,21.718 C71.668,23.77 72.013,25.366 72.703,26.506 C73.393,27.646 74.488,28.216 75.988,28.216 Z M75.988,26.902 C75.496,26.902 75.076,26.8 74.728,26.596 C74.38,26.392 74.098,26.104 73.882,25.732 C73.666,25.36 73.507,24.922 73.405,24.418 C73.303,23.914 73.252,23.356 73.252,22.744 L73.252,22.744 L73.252,20.692 C73.252,20.08 73.303,19.522 73.405,19.018 C73.507,18.514 73.666,18.076 73.882,17.704 C74.098,17.332 74.38,17.044 74.728,16.84 C75.076,16.636 75.496,16.534 75.988,16.534 C76.48,16.534 76.9,16.636 77.248,16.84 C77.596,17.044 77.878,17.332 78.094,17.704 C78.31,18.076 78.469,18.514 78.571,19.018 C78.673,19.522 78.724,20.08 78.724,20.692 L78.724,20.692 L78.724,22.744 C78.724,23.356 78.673,23.914 78.571,24.418 C78.469,24.922 78.31,25.36 78.094,25.732 C77.878,26.104 77.596,26.392 77.248,26.596 C76.9,26.8 76.48,26.902 75.988,26.902 Z M83.296,30.394 C83.812,29.95 84.214,29.431 84.502,28.837 C84.79,28.243 84.934,27.7 84.934,27.208 L84.934,27.208 L84.934,26.956 C84.934,26.644 84.847,26.389 84.673,26.191 C84.499,25.993 84.22,25.894 83.836,25.894 C83.452,25.894 83.173,25.993 82.999,26.191 C82.825,26.389 82.738,26.644 82.738,26.956 L82.738,26.956 L82.738,27.208 C82.738,27.448 82.795,27.652 82.909,27.82 C83.023,27.988 83.2,28.102 83.44,28.162 C83.344,28.582 83.185,28.963 82.963,29.305 C82.741,29.647 82.45,30.01 82.09,30.394 L82.09,30.394 L83.296,30.394 Z M91.684,28.216 C93.184,28.216 94.279,27.646 94.969,26.506 C95.659,25.366 96.004,23.77 96.004,21.718 C96.004,19.666 95.659,18.07 94.969,16.93 C94.279,15.79 93.184,15.22 91.684,15.22 C90.184,15.22 89.089,15.79 88.399,16.93 C87.709,18.07 87.364,19.666 87.364,21.718 C87.364,23.77 87.709,25.366 88.399,26.506 C89.089,27.646 90.184,28.216 91.684,28.216 Z M91.684,26.902 C91.192,26.902 90.772,26.8 90.424,26.596 C90.076,26.392 89.794,26.104 89.578,25.732 C89.362,25.36 89.203,24.922 89.101,24.418 C88.999,23.914 88.948,23.356 88.948,22.744 L88.948,22.744 L88.948,20.692 C88.948,20.08 88.999,19.522 89.101,19.018 C89.203,18.514 89.362,18.076 89.578,17.704 C89.794,17.332 90.076,17.044 90.424,16.84 C90.772,16.636 91.192,16.534 91.684,16.534 C92.176,16.534 92.596,16.636 92.944,16.84 C93.292,17.044 93.574,17.332 93.79,17.704 C94.006,18.076 94.165,18.514 94.267,19.018 C94.369,19.522 94.42,20.08 94.42,20.692 L94.42,20.692 L94.42,22.744 C94.42,23.356 94.369,23.914 94.267,24.418 C94.165,24.922 94.006,25.36 93.79,25.732 C93.574,26.104 93.292,26.392 92.944,26.596 C92.596,26.8 92.176,26.902 91.684,26.902 Z M102.484,28.216 C103.984,28.216 105.079,27.646 105.769,26.506 C106.459,25.366 106.804,23.77 106.804,21.718 C106.804,19.666 106.459,18.07 105.769,16.93 C105.079,15.79 103.984,15.22 102.484,15.22 C100.984,15.22 99.889,15.79 99.199,16.93 C98.509,18.07 98.164,19.666 98.164,21.718 C98.164,23.77 98.509,25.366 99.199,26.506 C99.889,27.646 100.984,28.216 102.484,28.216 Z M102.484,26.902 C101.992,26.902 101.572,26.8 101.224,26.596 C100.876,26.392 100.594,26.104 100.378,25.732 C100.162,25.36 100.003,24.922 99.901,24.418 C99.799,23.914 99.748,23.356 99.748,22.744 L99.748,22.744 L99.748,20.692 C99.748,20.08 99.799,19.522 99.901,19.018 C100.003,18.514 100.162,18.076 100.378,17.704 C100.594,17.332 100.876,17.044 101.224,16.84 C101.572,16.636 101.992,16.534 102.484,16.534 C102.976,16.534 103.396,16.636 103.744,16.84 C104.092,17.044 104.374,17.332 104.59,17.704 C104.806,18.076 104.965,18.514 105.067,19.018 C105.169,19.522 105.22,20.08 105.22,20.692 L105.22,20.692 L105.22,22.744 C105.22,23.356 105.169,23.914 105.067,24.418 C104.965,24.922 104.806,25.36 104.59,25.732 C104.374,26.104 104.092,26.392 103.744,26.596 C103.396,26.8 102.976,26.902 102.484,26.902 Z M113.284,28.216 C114.784,28.216 115.879,27.646 116.569,26.506 C117.259,25.366 117.604,23.77 117.604,21.718 C117.604,19.666 117.259,18.07 116.569,16.93 C115.879,15.79 114.784,15.22 113.284,15.22 C111.784,15.22 110.689,15.79 109.999,16.93 C109.309,18.07 108.964,19.666 108.964,21.718 C108.964,23.77 109.309,25.366 109.999,26.506 C110.689,27.646 111.784,28.216 113.284,28.216 Z M113.284,26.902 C112.792,26.902 112.372,26.8 112.024,26.596 C111.676,26.392 111.394,26.104 111.178,25.732 C110.962,25.36 110.803,24.922 110.701,24.418 C110.599,23.914 110.548,23.356 110.548,22.744 L110.548,22.744 L110.548,20.692 C110.548,20.08 110.599,19.522 110.701,19.018 C110.803,18.514 110.962,18.076 111.178,17.704 C111.394,17.332 111.676,17.044 112.024,16.84 C112.372,16.636 112.792,16.534 113.284,16.534 C113.776,16.534 114.196,16.636 114.544,16.84 C114.892,17.044 115.174,17.332 115.39,17.704 C115.606,18.076 115.765,18.514 115.867,19.018 C115.969,19.522 116.02,20.08 116.02,20.692 L116.02,20.692 L116.02,22.744 C116.02,23.356 115.969,23.914 115.867,24.418 C115.765,24.922 115.606,25.36 115.39,25.732 C115.174,26.104 114.892,26.392 114.544,26.596 C114.196,26.8 113.776,26.902 113.284,26.902 Z" id="USD500,000" fill="#2A3052" fill-rule="nonzero"></path>
        </g>
        <g id="note" transform="translate(284.000000, 33.000000)">
            <path d="M4.6365,63.156 C5.12183333,63.156 5.55733333,63.091 5.943,62.961 C6.32866667,62.831 6.65583333,62.649 6.9245,62.415 C7.19316667,62.181 7.399,61.895 7.542,61.557 C7.685,61.219 7.7565,60.842 7.7565,60.426 C7.7565,59.75 7.55716667,59.2083333 7.1585,58.801 C6.75983333,58.3936667 6.11416667,58.0903333 5.2215,57.891 L5.2215,57.891 L4.4805,57.722 C3.9085,57.592 3.48166667,57.4165 3.2,57.1955 C2.91833333,56.9745 2.7775,56.6473333 2.7775,56.214 C2.7775,55.72 2.94433333,55.3495 3.278,55.1025 C3.61166667,54.8555 4.06883333,54.732 4.6495,54.732 C5.17816667,54.732 5.62016667,54.8316667 5.9755,55.031 C6.33083333,55.2303333 6.63416667,55.5033333 6.8855,55.85 L6.8855,55.85 L7.7045,55.252 C7.3665,54.7666667 6.95266667,54.3983333 6.463,54.147 C5.97333333,53.8956667 5.38616667,53.77 4.7015,53.77 C4.2595,53.77 3.85433333,53.8241667 3.486,53.9325 C3.11766667,54.0408333 2.80133333,54.199 2.537,54.407 C2.27266667,54.615 2.06683333,54.875 1.9195,55.187 C1.77216667,55.499 1.6985,55.8543333 1.6985,56.253 C1.6985,56.955 1.91733333,57.4988333 2.355,57.8845 C2.79266667,58.2701667 3.4275,58.5583333 4.2595,58.749 L4.2595,58.749 L5.0005,58.918 C5.5985,59.0566667 6.0275,59.243 6.2875,59.477 C6.5475,59.711 6.6775,60.0446667 6.6775,60.478 C6.6775,60.998 6.50633333,61.414 6.164,61.726 C5.82166667,62.038 5.3255,62.194 4.6755,62.194 C4.14683333,62.194 3.6875,62.0835 3.2975,61.8625 C2.9075,61.6415 2.55216667,61.3186667 2.2315,60.894 L2.2315,60.894 L1.4255,61.57 C1.7895,62.064 2.2315,62.4518333 2.7515,62.7335 C3.2715,63.0151667 3.89983333,63.156 4.6365,63.156 Z M10.5775,65.6 L10.5775,61.908 L10.6295,61.908 C11.0281667,62.74 11.6825,63.156 12.5925,63.156 C13.0085,63.156 13.3855,63.0736667 13.7235,62.909 C14.0615,62.7443333 14.3496667,62.5103333 14.588,62.207 C14.8263333,61.9036667 15.0083333,61.5353333 15.134,61.102 C15.2596667,60.6686667 15.3225,60.1833333 15.3225,59.646 C15.3225,59.1086667 15.2596667,58.6233333 15.134,58.19 C15.0083333,57.7566667 14.8263333,57.3883333 14.588,57.085 C14.3496667,56.7816667 14.0615,56.5476667 13.7235,56.383 C13.3855,56.2183333 13.0085,56.136 12.5925,56.136 C12.1245,56.136 11.7236667,56.2378333 11.39,56.4415 C11.0563333,56.6451667 10.8028333,56.9593333 10.6295,57.384 L10.6295,57.384 L10.5775,57.384 L10.5775,56.292 L9.5375,56.292 L9.5375,65.6 L10.5775,65.6 Z M12.3065,62.22 C12.0725,62.22 11.8493333,62.1896667 11.637,62.129 C11.4246667,62.0683333 11.2405,61.9795 11.0845,61.8625 C10.9285,61.7455 10.805,61.6025 10.714,61.4335 C10.623,61.2645 10.5775,61.0716667 10.5775,60.855 L10.5775,60.855 L10.5775,58.359 C10.5775,58.177 10.623,58.0058333 10.714,57.8455 C10.805,57.6851667 10.9285,57.5486667 11.0845,57.436 C11.2405,57.3233333 11.4246667,57.2345 11.637,57.1695 C11.8493333,57.1045 12.0725,57.072 12.3065,57.072 C12.8958333,57.072 13.3595,57.2561667 13.6975,57.6245 C14.0355,57.9928333 14.2045,58.476 14.2045,59.074 L14.2045,59.074 L14.2045,60.218 C14.2045,60.816 14.0355,61.2991667 13.6975,61.6675 C13.3595,62.0358333 12.8958333,62.22 12.3065,62.22 Z M19.6125,63.156 C20.0631667,63.156 20.4726667,63.0736667 20.841,62.909 C21.2093333,62.7443333 21.5278333,62.5081667 21.7965,62.2005 C22.0651667,61.8928333 22.2731667,61.5245 22.4205,61.0955 C22.5678333,60.6665 22.6415,60.1833333 22.6415,59.646 C22.6415,59.1173333 22.5678333,58.6363333 22.4205,58.203 C22.2731667,57.7696667 22.0651667,57.3991667 21.7965,57.0915 C21.5278333,56.7838333 21.2093333,56.5476667 20.841,56.383 C20.4726667,56.2183333 20.0631667,56.136 19.6125,56.136 C19.1618333,56.136 18.7501667,56.2183333 18.3775,56.383 C18.0048333,56.5476667 17.6863333,56.7838333 17.422,57.0915 C17.1576667,57.3991667 16.9518333,57.7696667 16.8045,58.203 C16.6571667,58.6363333 16.5835,59.1173333 16.5835,59.646 C16.5835,60.1833333 16.6571667,60.6665 16.8045,61.0955 C16.9518333,61.5245 17.1576667,61.8928333 17.422,62.2005 C17.6863333,62.5081667 18.0048333,62.7443333 18.3775,62.909 C18.7501667,63.0736667 19.1618333,63.156 19.6125,63.156 Z M19.6125,62.233 C19.0491667,62.233 18.5898333,62.0596667 18.2345,61.713 C17.8791667,61.3663333 17.7015,60.8376667 17.7015,60.127 L17.7015,60.127 L17.7015,59.165 C17.7015,58.4543333 17.8791667,57.9256667 18.2345,57.579 C18.5898333,57.2323333 19.0491667,57.059 19.6125,57.059 C20.1758333,57.059 20.6351667,57.2323333 20.9905,57.579 C21.3458333,57.9256667 21.5235,58.4543333 21.5235,59.165 L21.5235,59.165 L21.5235,60.127 C21.5235,60.8376667 21.3458333,61.3663333 20.9905,61.713 C20.6351667,62.0596667 20.1758333,62.233 19.6125,62.233 Z M27.1395,63 L27.1395,62.09 L25.7745,62.09 L25.7745,57.202 L27.2435,57.202 L27.2435,56.292 L25.7745,56.292 L25.7745,54.433 L24.8385,54.433 L24.8385,55.681 C24.8385,55.9063333 24.7973333,56.0645 24.715,56.1555 C24.6326667,56.2465 24.4788333,56.292 24.2535,56.292 L24.2535,56.292 L23.6295,56.292 L23.6295,57.202 L24.7345,57.202 L24.7345,61.895 C24.7345,62.2243333 24.8276667,62.4908333 25.014,62.6945 C25.2003333,62.8981667 25.4755,63 25.8395,63 L25.8395,63 L27.1395,63 Z M33.0285,65.6 L33.0285,61.908 L33.0805,61.908 C33.4791667,62.74 34.1335,63.156 35.0435,63.156 C35.4595,63.156 35.8365,63.0736667 36.1745,62.909 C36.5125,62.7443333 36.8006667,62.5103333 37.039,62.207 C37.2773333,61.9036667 37.4593333,61.5353333 37.585,61.102 C37.7106667,60.6686667 37.7735,60.1833333 37.7735,59.646 C37.7735,59.1086667 37.7106667,58.6233333 37.585,58.19 C37.4593333,57.7566667 37.2773333,57.3883333 37.039,57.085 C36.8006667,56.7816667 36.5125,56.5476667 36.1745,56.383 C35.8365,56.2183333 35.4595,56.136 35.0435,56.136 C34.5755,56.136 34.1746667,56.2378333 33.841,56.4415 C33.5073333,56.6451667 33.2538333,56.9593333 33.0805,57.384 L33.0805,57.384 L33.0285,57.384 L33.0285,56.292 L31.9885,56.292 L31.9885,65.6 L33.0285,65.6 Z M34.7575,62.22 C34.5235,62.22 34.3003333,62.1896667 34.088,62.129 C33.8756667,62.0683333 33.6915,61.9795 33.5355,61.8625 C33.3795,61.7455 33.256,61.6025 33.165,61.4335 C33.074,61.2645 33.0285,61.0716667 33.0285,60.855 L33.0285,60.855 L33.0285,58.359 C33.0285,58.177 33.074,58.0058333 33.165,57.8455 C33.256,57.6851667 33.3795,57.5486667 33.5355,57.436 C33.6915,57.3233333 33.8756667,57.2345 34.088,57.1695 C34.3003333,57.1045 34.5235,57.072 34.7575,57.072 C35.3468333,57.072 35.8105,57.2561667 36.1485,57.6245 C36.4865,57.9928333 36.6555,58.476 36.6555,59.074 L36.6555,59.074 L36.6555,60.218 C36.6555,60.816 36.4865,61.2991667 36.1485,61.6675 C35.8105,62.0358333 35.3468333,62.22 34.7575,62.22 Z M40.5685,63 L40.5685,58.45 C40.5685,58.1293333 40.7266667,57.8628333 41.043,57.6505 C41.3593333,57.4381667 41.7991667,57.332 42.3625,57.332 L42.3625,57.332 L42.9735,57.332 L42.9735,56.292 L42.5705,56.292 C42.0245,56.292 41.5955,56.4176667 41.2835,56.669 C40.9715,56.9203333 40.7548333,57.2063333 40.6335,57.527 L40.6335,57.527 L40.5685,57.527 L40.5685,56.292 L39.5285,56.292 L39.5285,63 L40.5685,63 Z M44.8195,54.719 C45.0448333,54.719 45.2073333,54.6648333 45.307,54.5565 C45.4066667,54.4481667 45.4565,54.3073333 45.4565,54.134 L45.4565,54.134 L45.4565,53.965 C45.4565,53.7916667 45.4066667,53.6508333 45.307,53.5425 C45.2073333,53.4341667 45.0448333,53.38 44.8195,53.38 C44.5941667,53.38 44.4316667,53.4341667 44.332,53.5425 C44.2323333,53.6508333 44.1825,53.7916667 44.1825,53.965 L44.1825,53.965 L44.1825,54.134 C44.1825,54.3073333 44.2323333,54.4481667 44.332,54.5565 C44.4316667,54.6648333 44.5941667,54.719 44.8195,54.719 Z M45.3395,63 L45.3395,56.292 L44.2995,56.292 L44.2995,63 L45.3395,63 Z M50.0455,63.156 C50.6868333,63.156 51.222,63.013 51.651,62.727 C52.08,62.441 52.4028333,62.0553333 52.6195,61.57 L52.6195,61.57 L51.8655,61.063 C51.4928333,61.843 50.8861667,62.233 50.0455,62.233 C49.4301667,62.233 48.9643333,62.0445 48.648,61.6675 C48.3316667,61.2905 48.1735,60.8073333 48.1735,60.218 L48.1735,60.218 L48.1735,59.074 C48.1735,58.7793333 48.2125,58.5085 48.2905,58.2615 C48.3685,58.0145 48.4855,57.8021667 48.6415,57.6245 C48.7975,57.4468333 48.9925,57.3081667 49.2265,57.2085 C49.4605,57.1088333 49.7335,57.059 50.0455,57.059 C50.4615,57.059 50.8081667,57.1543333 51.0855,57.345 C51.3628333,57.5356667 51.5621667,57.8043333 51.6835,58.151 L51.6835,58.151 L52.5545,57.709 C52.3551667,57.241 52.054,56.8618333 51.651,56.5715 C51.248,56.2811667 50.7128333,56.136 50.0455,56.136 C49.5775,56.136 49.1571667,56.2183333 48.7845,56.383 C48.4118333,56.5476667 48.0976667,56.7816667 47.842,57.085 C47.5863333,57.3883333 47.3913333,57.7566667 47.257,58.19 C47.1226667,58.6233333 47.0555,59.1086667 47.0555,59.646 C47.0555,60.1833333 47.1226667,60.6686667 47.257,61.102 C47.3913333,61.5353333 47.5863333,61.9036667 47.842,62.207 C48.0976667,62.5103333 48.4118333,62.7443333 48.7845,62.909 C49.1571667,63.0736667 49.5775,63.156 50.0455,63.156 Z M56.6105,63.156 C57.2431667,63.156 57.7891667,63.0151667 58.2485,62.7335 C58.7078333,62.4518333 59.0458333,62.0813333 59.2625,61.622 L59.2625,61.622 L58.5215,61.089 C58.3481667,61.4616667 58.1033333,61.7476667 57.787,61.947 C57.4706667,62.1463333 57.1001667,62.246 56.6755,62.246 C56.3635,62.246 56.084,62.194 55.837,62.09 C55.59,61.986 55.382,61.843 55.213,61.661 C55.044,61.479 54.914,61.2645 54.823,61.0175 C54.732,60.7705 54.6865,60.504 54.6865,60.218 L54.6865,60.218 L54.6865,59.906 L59.5095,59.906 L59.5095,59.412 C59.5095,58.9353333 59.4423333,58.4976667 59.308,58.099 C59.1736667,57.7003333 58.9808333,57.3558333 58.7295,57.0655 C58.4781667,56.7751667 58.1748333,56.5476667 57.8195,56.383 C57.4641667,56.2183333 57.0611667,56.136 56.6105,56.136 C56.1511667,56.136 55.7373333,56.2183333 55.369,56.383 C55.0006667,56.5476667 54.6843333,56.7838333 54.42,57.0915 C54.1556667,57.3991667 53.952,57.7696667 53.809,58.203 C53.666,58.6363333 53.5945,59.1173333 53.5945,59.646 C53.5945,60.1833333 53.666,60.6665 53.809,61.0955 C53.952,61.5245 54.1556667,61.8928333 54.42,62.2005 C54.6843333,62.5081667 55.0006667,62.7443333 55.369,62.909 C55.7373333,63.0736667 56.1511667,63.156 56.6105,63.156 Z M58.3915,59.126 L54.6865,59.126 L54.6865,59.035 C54.6865,58.7403333 54.7341667,58.4695 54.8295,58.2225 C54.9248333,57.9755 55.057,57.761 55.226,57.579 C55.395,57.397 55.5965,57.2561667 55.8305,57.1565 C56.0645,57.0568333 56.3245,57.007 56.6105,57.007 C57.1478333,57.007 57.579,57.1868333 57.904,57.5465 C58.229,57.9061667 58.3915,58.385 58.3915,58.983 L58.3915,58.983 L58.3915,59.126 Z" id="Spotprice" fill="#2A3052" fill-rule="nonzero"></path>
            <path d="M30.5,0 C31.8807119,0 33,1.11928813 33,2.5 C33,3.70932545 32.1413382,4.71809967 31.0004345,4.94990271 L31,50 L30,50 L30.000574,4.9501074 C28.8591679,4.7186941 28,3.70968176 28,2.5 C28,1.11928813 29.1192881,0 30.5,0 Z" id="Combined-Shape" fill="#E98024"></path>
        </g>
        <path d="M212.2,19.92 C212.952,19.92 213.488,19.756 213.808,19.428 C214.128,19.1 214.288,18.712 214.288,18.264 L214.288,18.264 L214.288,17.688 C214.288,17.24 214.128,16.852 213.808,16.524 C213.488,16.196 212.952,16.032 212.2,16.032 C211.448,16.032 210.912,16.196 210.592,16.524 C210.272,16.852 210.112,17.24 210.112,17.688 L210.112,17.688 L210.112,18.264 C210.112,18.712 210.272,19.1 210.592,19.428 C210.912,19.756 211.448,19.92 212.2,19.92 Z M217.768,24.072 L217.768,21.24 L206.608,21.24 L206.608,24.072 L217.768,24.072 Z M212.2,29.328 C212.952,29.328 213.488,29.164 213.808,28.836 C214.128,28.508 214.288,28.12 214.288,27.672 L214.288,27.672 L214.288,27.096 C214.288,26.648 214.128,26.26 213.808,25.932 C213.488,25.604 212.952,25.44 212.2,25.44 C211.448,25.44 210.912,25.604 210.592,25.932 C210.272,26.26 210.112,26.648 210.112,27.096 L210.112,27.096 L210.112,27.672 C210.112,28.12 210.272,28.508 210.592,28.836 C210.912,29.164 211.448,29.328 212.2,29.328 Z" id="รท" fill="#E98024" fill-rule="nonzero"></path>
        <g id="box-1" transform="translate(123.000000, 0.000000)">
            <rect id="leg-2" stroke="#DEDEDE" stroke-width="2" fill="#F2F2F2" x="35" y="41" width="7" height="13"></rect>
            <rect id="leg-1" stroke="#DEDEDE" stroke-width="2" fill="#F2F2F2" x="11" y="41" width="7" height="13"></rect>
            <rect id="back" stroke="#DEDEDE" stroke-width="2" fill="#F2F2F2" x="1" y="1" width="51" height="41"></rect>
            <path d="M19.594,28 L19.594,26.668 L12.988,26.668 L16.372,23.626 C16.768,23.266 17.137,22.906 17.479,22.546 C17.821,22.186 18.112,21.817 18.352,21.439 C18.592,21.061 18.781,20.662 18.919,20.242 C19.057,19.822 19.126,19.366 19.126,18.874 C19.126,18.334 19.039,17.842 18.865,17.398 C18.691,16.954 18.442,16.57 18.118,16.246 C17.794,15.922 17.392,15.67 16.912,15.49 C16.432,15.31 15.886,15.22 15.274,15.22 C14.662,15.22 14.131,15.304 13.681,15.472 C13.231,15.64 12.847,15.862 12.529,16.138 C12.211,16.414 11.947,16.729 11.737,17.083 C11.527,17.437 11.362,17.8 11.242,18.172 L11.242,18.172 L12.592,18.694 C12.676,18.394 12.787,18.115 12.925,17.857 C13.063,17.599 13.237,17.374 13.447,17.182 C13.657,16.99 13.906,16.84 14.194,16.732 C14.482,16.624 14.818,16.57 15.202,16.57 C15.982,16.57 16.564,16.786 16.948,17.218 C17.332,17.65 17.524,18.214 17.524,18.91 L17.524,18.91 L17.524,19.126 C17.524,19.738 17.326,20.347 16.93,20.953 C16.534,21.559 16.042,22.132 15.454,22.672 L15.454,22.672 L11.35,26.452 L11.35,28 L19.594,28 Z M26.2,28.216 C27.7,28.216 28.795,27.646 29.485,26.506 C30.175,25.366 30.52,23.77 30.52,21.718 C30.52,19.666 30.175,18.07 29.485,16.93 C28.795,15.79 27.7,15.22 26.2,15.22 C24.7,15.22 23.605,15.79 22.915,16.93 C22.225,18.07 21.88,19.666 21.88,21.718 C21.88,23.77 22.225,25.366 22.915,26.506 C23.605,27.646 24.7,28.216 26.2,28.216 Z M26.2,26.902 C25.708,26.902 25.288,26.8 24.94,26.596 C24.592,26.392 24.31,26.104 24.094,25.732 C23.878,25.36 23.719,24.922 23.617,24.418 C23.515,23.914 23.464,23.356 23.464,22.744 L23.464,22.744 L23.464,20.692 C23.464,20.08 23.515,19.522 23.617,19.018 C23.719,18.514 23.878,18.076 24.094,17.704 C24.31,17.332 24.592,17.044 24.94,16.84 C25.288,16.636 25.708,16.534 26.2,16.534 C26.692,16.534 27.112,16.636 27.46,16.84 C27.808,17.044 28.09,17.332 28.306,17.704 C28.522,18.076 28.681,18.514 28.783,19.018 C28.885,19.522 28.936,20.08 28.936,20.692 L28.936,20.692 L28.936,22.744 C28.936,23.356 28.885,23.914 28.783,24.418 C28.681,24.922 28.522,25.36 28.306,25.732 C28.09,26.104 27.808,26.392 27.46,26.596 C27.112,26.8 26.692,26.902 26.2,26.902 Z M37,28.216 C38.5,28.216 39.595,27.646 40.285,26.506 C40.975,25.366 41.32,23.77 41.32,21.718 C41.32,19.666 40.975,18.07 40.285,16.93 C39.595,15.79 38.5,15.22 37,15.22 C35.5,15.22 34.405,15.79 33.715,16.93 C33.025,18.07 32.68,19.666 32.68,21.718 C32.68,23.77 33.025,25.366 33.715,26.506 C34.405,27.646 35.5,28.216 37,28.216 Z M37,26.902 C36.508,26.902 36.088,26.8 35.74,26.596 C35.392,26.392 35.11,26.104 34.894,25.732 C34.678,25.36 34.519,24.922 34.417,24.418 C34.315,23.914 34.264,23.356 34.264,22.744 L34.264,22.744 L34.264,20.692 C34.264,20.08 34.315,19.522 34.417,19.018 C34.519,18.514 34.678,18.076 34.894,17.704 C35.11,17.332 35.392,17.044 35.74,16.84 C36.088,16.636 36.508,16.534 37,16.534 C37.492,16.534 37.912,16.636 38.26,16.84 C38.608,17.044 38.89,17.332 39.106,17.704 C39.322,18.076 39.481,18.514 39.583,19.018 C39.685,19.522 39.736,20.08 39.736,20.692 L39.736,20.692 L39.736,22.744 C39.736,23.356 39.685,23.914 39.583,24.418 C39.481,24.922 39.322,25.36 39.106,25.732 C38.89,26.104 38.608,26.392 38.26,26.596 C37.912,26.8 37.492,26.902 37,26.902 Z" id="200" fill="#2A3052" fill-rule="nonzero"></path>
        </g>
        <g id="note" transform="translate(113.000000, 33.000000)">
            <path d="M5.248,63.156 C5.85466667,63.156 6.36816667,63.078 6.7885,62.922 C7.20883333,62.766 7.549,62.5276667 7.809,62.207 C8.069,61.8863333 8.2575,61.4833333 8.3745,60.998 C8.4915,60.5126667 8.55,59.9406667 8.55,59.282 L8.55,59.282 L8.55,53.926 L7.458,53.926 L7.458,59.542 C7.458,60.4086667 7.29766667,61.0651667 6.977,61.5115 C6.65633333,61.9578333 6.093,62.181 5.287,62.181 C4.481,62.181 3.91766667,61.9578333 3.597,61.5115 C3.27633333,61.0651667 3.116,60.4086667 3.116,59.542 L3.116,59.542 L3.116,53.926 L2.024,53.926 L2.024,59.282 C2.024,59.9406667 2.07816667,60.5126667 2.1865,60.998 C2.29483333,61.4833333 2.47466667,61.8863333 2.726,62.207 C2.97733333,62.5276667 3.30883333,62.766 3.7205,62.922 C4.13216667,63.078 4.64133333,63.156 5.248,63.156 Z M13.451,63.156 C13.9363333,63.156 14.3718333,63.091 14.7575,62.961 C15.1431667,62.831 15.4703333,62.649 15.739,62.415 C16.0076667,62.181 16.2135,61.895 16.3565,61.557 C16.4995,61.219 16.571,60.842 16.571,60.426 C16.571,59.75 16.3716667,59.2083333 15.973,58.801 C15.5743333,58.3936667 14.9286667,58.0903333 14.036,57.891 L14.036,57.891 L13.295,57.722 C12.723,57.592 12.2961667,57.4165 12.0145,57.1955 C11.7328333,56.9745 11.592,56.6473333 11.592,56.214 C11.592,55.72 11.7588333,55.3495 12.0925,55.1025 C12.4261667,54.8555 12.8833333,54.732 13.464,54.732 C13.9926667,54.732 14.4346667,54.8316667 14.79,55.031 C15.1453333,55.2303333 15.4486667,55.5033333 15.7,55.85 L15.7,55.85 L16.519,55.252 C16.181,54.7666667 15.7671667,54.3983333 15.2775,54.147 C14.7878333,53.8956667 14.2006667,53.77 13.516,53.77 C13.074,53.77 12.6688333,53.8241667 12.3005,53.9325 C11.9321667,54.0408333 11.6158333,54.199 11.3515,54.407 C11.0871667,54.615 10.8813333,54.875 10.734,55.187 C10.5866667,55.499 10.513,55.8543333 10.513,56.253 C10.513,56.955 10.7318333,57.4988333 11.1695,57.8845 C11.6071667,58.2701667 12.242,58.5583333 13.074,58.749 L13.074,58.749 L13.815,58.918 C14.413,59.0566667 14.842,59.243 15.102,59.477 C15.362,59.711 15.492,60.0446667 15.492,60.478 C15.492,60.998 15.3208333,61.414 14.9785,61.726 C14.6361667,62.038 14.14,62.194 13.49,62.194 C12.9613333,62.194 12.502,62.0835 12.112,61.8625 C11.722,61.6415 11.3666667,61.3186667 11.046,60.894 L11.046,60.894 L10.24,61.57 C10.604,62.064 11.046,62.4518333 11.566,62.7335 C12.086,63.0151667 12.7143333,63.156 13.451,63.156 Z M21.498,63 C22.0613333,63 22.5726667,62.9046667 23.032,62.714 C23.4913333,62.5233333 23.8835,62.2395 24.2085,61.8625 C24.5335,61.4855 24.7826667,61.0131667 24.956,60.4455 C25.1293333,59.8778333 25.216,59.217 25.216,58.463 C25.216,57.709 25.1293333,57.0481667 24.956,56.4805 C24.7826667,55.9128333 24.5335,55.4405 24.2085,55.0635 C23.8835,54.6865 23.4913333,54.4026667 23.032,54.212 C22.5726667,54.0213333 22.0613333,53.926 21.498,53.926 L21.498,53.926 L18.456,53.926 L18.456,63 L21.498,63 Z M21.498,62.038 L19.548,62.038 L19.548,54.888 L21.498,54.888 C21.8706667,54.888 22.213,54.9508333 22.525,55.0765 C22.837,55.2021667 23.1056667,55.3863333 23.331,55.629 C23.5563333,55.8716667 23.7318333,56.1685 23.8575,56.5195 C23.9831667,56.8705 24.046,57.2713333 24.046,57.722 L24.046,57.722 L24.046,59.204 C24.046,59.6546667 23.9831667,60.0555 23.8575,60.4065 C23.7318333,60.7575 23.5563333,61.0543333 23.331,61.297 C23.1056667,61.5396667 22.837,61.7238333 22.525,61.8495 C22.213,61.9751667 21.8706667,62.038 21.498,62.038 L21.498,62.038 Z M32.834,63 L35.2,56.292 L34.199,56.292 L33.003,59.62 L32.275,61.908 L32.21,61.908 L31.482,59.62 L30.312,56.292 L29.272,56.292 L31.625,63 L32.834,63 Z M39.074,63.156 C39.5246667,63.156 39.9341667,63.0736667 40.3025,62.909 C40.6708333,62.7443333 40.9893333,62.5081667 41.258,62.2005 C41.5266667,61.8928333 41.7346667,61.5245 41.882,61.0955 C42.0293333,60.6665 42.103,60.1833333 42.103,59.646 C42.103,59.1173333 42.0293333,58.6363333 41.882,58.203 C41.7346667,57.7696667 41.5266667,57.3991667 41.258,57.0915 C40.9893333,56.7838333 40.6708333,56.5476667 40.3025,56.383 C39.9341667,56.2183333 39.5246667,56.136 39.074,56.136 C38.6233333,56.136 38.2116667,56.2183333 37.839,56.383 C37.4663333,56.5476667 37.1478333,56.7838333 36.8835,57.0915 C36.6191667,57.3991667 36.4133333,57.7696667 36.266,58.203 C36.1186667,58.6363333 36.045,59.1173333 36.045,59.646 C36.045,60.1833333 36.1186667,60.6665 36.266,61.0955 C36.4133333,61.5245 36.6191667,61.8928333 36.8835,62.2005 C37.1478333,62.5081667 37.4663333,62.7443333 37.839,62.909 C38.2116667,63.0736667 38.6233333,63.156 39.074,63.156 Z M39.074,62.233 C38.5106667,62.233 38.0513333,62.0596667 37.696,61.713 C37.3406667,61.3663333 37.163,60.8376667 37.163,60.127 L37.163,60.127 L37.163,59.165 C37.163,58.4543333 37.3406667,57.9256667 37.696,57.579 C38.0513333,57.2323333 38.5106667,57.059 39.074,57.059 C39.6373333,57.059 40.0966667,57.2323333 40.452,57.579 C40.8073333,57.9256667 40.985,58.4543333 40.985,59.165 L40.985,59.165 L40.985,60.127 C40.985,60.8376667 40.8073333,61.3663333 40.452,61.713 C40.0966667,62.0596667 39.6373333,62.233 39.074,62.233 Z M45.847,63 L45.847,62.09 L44.859,62.09 L44.859,53.38 L43.819,53.38 L43.819,61.921 C43.819,62.233 43.9121667,62.4908333 44.0985,62.6945 C44.2848333,62.8981667 44.56,63 44.924,63 L44.924,63 L45.847,63 Z M49.552,63.156 C49.8293333,63.156 50.072,63.1213333 50.28,63.052 C50.488,62.9826667 50.6656667,62.8895 50.813,62.7725 C50.9603333,62.6555 51.0838333,62.5211667 51.1835,62.3695 C51.2831667,62.2178333 51.3676667,62.064 51.437,61.908 L51.437,61.908 L51.489,61.908 L51.489,63 L52.529,63 L52.529,56.292 L51.489,56.292 L51.489,60.933 C51.489,61.1583333 51.4435,61.3511667 51.3525,61.5115 C51.2615,61.6718333 51.1401667,61.804 50.9885,61.908 C50.8368333,62.012 50.6635,62.09 50.4685,62.142 C50.2735,62.194 50.072,62.22 49.864,62.22 C48.8413333,62.22 48.33,61.6176667 48.33,60.413 L48.33,60.413 L48.33,56.292 L47.29,56.292 L47.29,60.595 C47.29,61.4096667 47.4936667,62.0401667 47.901,62.4865 C48.3083333,62.9328333 48.8586667,63.156 49.552,63.156 Z M55.779,63 L55.779,58.346 C55.779,58.1293333 55.8245,57.9408333 55.9155,57.7805 C56.0065,57.6201667 56.1256667,57.488 56.273,57.384 C56.4203333,57.28 56.5893333,57.202 56.78,57.15 C56.9706667,57.098 57.17,57.072 57.378,57.072 C57.872,57.072 58.236,57.2236667 58.47,57.527 C58.704,57.8303333 58.821,58.281 58.821,58.879 L58.821,58.879 L58.821,63 L59.861,63 L59.861,58.346 C59.861,58.1293333 59.9043333,57.9408333 59.991,57.7805 C60.0776667,57.6201667 60.1946667,57.488 60.342,57.384 C60.4893333,57.28 60.6561667,57.202 60.8425,57.15 C61.0288333,57.098 61.226,57.072 61.434,57.072 C61.9453333,57.072 62.318,57.2236667 62.552,57.527 C62.786,57.8303333 62.903,58.281 62.903,58.879 L62.903,58.879 L62.903,63 L63.943,63 L63.943,58.697 C63.943,57.8823333 63.7501667,57.2518333 63.3645,56.8055 C62.9788333,56.3591667 62.4436667,56.136 61.759,56.136 C61.187,56.136 60.7341667,56.2725 60.4005,56.5455 C60.0668333,56.8185 59.8393333,57.137 59.718,57.501 L59.718,57.501 L59.692,57.501 C59.51,57.0156667 59.2326667,56.6668333 58.86,56.4545 C58.4873333,56.2421667 58.08,56.136 57.638,56.136 C57.378,56.136 57.1526667,56.1685 56.962,56.2335 C56.7713333,56.2985 56.6045,56.3873333 56.4615,56.5 C56.3185,56.6126667 56.1971667,56.7448333 56.0975,56.8965 C55.9978333,57.0481667 55.909,57.2106667 55.831,57.384 L55.831,57.384 L55.779,57.384 L55.779,56.292 L54.739,56.292 L54.739,63 L55.779,63 Z M68.61,63.156 C69.2426667,63.156 69.7886667,63.0151667 70.248,62.7335 C70.7073333,62.4518333 71.0453333,62.0813333 71.262,61.622 L71.262,61.622 L70.521,61.089 C70.3476667,61.4616667 70.1028333,61.7476667 69.7865,61.947 C69.4701667,62.1463333 69.0996667,62.246 68.675,62.246 C68.363,62.246 68.0835,62.194 67.8365,62.09 C67.5895,61.986 67.3815,61.843 67.2125,61.661 C67.0435,61.479 66.9135,61.2645 66.8225,61.0175 C66.7315,60.7705 66.686,60.504 66.686,60.218 L66.686,60.218 L66.686,59.906 L71.509,59.906 L71.509,59.412 C71.509,58.9353333 71.4418333,58.4976667 71.3075,58.099 C71.1731667,57.7003333 70.9803333,57.3558333 70.729,57.0655 C70.4776667,56.7751667 70.1743333,56.5476667 69.819,56.383 C69.4636667,56.2183333 69.0606667,56.136 68.61,56.136 C68.1506667,56.136 67.7368333,56.2183333 67.3685,56.383 C67.0001667,56.5476667 66.6838333,56.7838333 66.4195,57.0915 C66.1551667,57.3991667 65.9515,57.7696667 65.8085,58.203 C65.6655,58.6363333 65.594,59.1173333 65.594,59.646 C65.594,60.1833333 65.6655,60.6665 65.8085,61.0955 C65.9515,61.5245 66.1551667,61.8928333 66.4195,62.2005 C66.6838333,62.5081667 67.0001667,62.7443333 67.3685,62.909 C67.7368333,63.0736667 68.1506667,63.156 68.61,63.156 Z M70.391,59.126 L66.686,59.126 L66.686,59.035 C66.686,58.7403333 66.7336667,58.4695 66.829,58.2225 C66.9243333,57.9755 67.0565,57.761 67.2255,57.579 C67.3945,57.397 67.596,57.2561667 67.83,57.1565 C68.064,57.0568333 68.324,57.007 68.61,57.007 C69.1473333,57.007 69.5785,57.1868333 69.9035,57.5465 C70.2285,57.9061667 70.391,58.385 70.391,58.983 L70.391,58.983 L70.391,59.126 Z" id="USDvolume" fill="#2A3052" fill-rule="nonzero"></path>
            <path d="M36.5,0 C37.8807119,0 39,1.11928813 39,2.5 C39,3.70932545 38.1413382,4.71809967 37.0004345,4.94990271 L37,50 L36,50 L36.000574,4.9501074 C34.8591679,4.7186941 34,3.70968176 34,2.5 C34,1.11928813 35.1192881,0 36.5,0 Z" id="Combined-Shape" fill="#E98024"></path>
        </g>
    </g>
</svg>